<?xml version="1.0" encoding="UTF-8"?>
<svg id="Layer_1" data-name="Layer 1" xmlns="http://www.w3.org/2000/svg" viewBox="0 0 629.77 154.28">
  <g style="isolation: isolate;">
    <path d="M12.79,51.25v-31.02H.49v-10.98h38.76v10.98h-12.3v31.02h-14.16Z" style="stroke: #000; stroke-miterlimit: 10; stroke-width: .5px;"/>
    <path d="M42.49,51.25V6.73h13.56v21.3l-3.24-2.76c1.28-2.48,3.01-4.34,5.19-5.58,2.18-1.24,4.61-1.86,7.29-1.86,2.52,0,4.8.51,6.84,1.53,2.04,1.02,3.65,2.61,4.83,4.77,1.18,2.16,1.77,4.96,1.77,8.4v18.72h-13.56v-16.38c0-2.04-.36-3.49-1.08-4.35-.72-.86-1.7-1.29-2.94-1.29-.92,0-1.77.21-2.55.63-.78.42-1.4,1.11-1.86,2.07-.46.96-.69,2.26-.69,3.9v15.42h-13.56Z" style="stroke: #000; stroke-miterlimit: 10; stroke-width: .5px;"/>
    <path d="M103.33,51.85c-4,0-7.49-.74-10.47-2.22-2.98-1.48-5.29-3.51-6.93-6.09-1.64-2.58-2.46-5.49-2.46-8.73s.81-6.26,2.43-8.82c1.62-2.56,3.84-4.56,6.66-6,2.82-1.44,5.99-2.16,9.51-2.16,3.24,0,6.23.64,8.97,1.92,2.74,1.28,4.94,3.18,6.6,5.7,1.66,2.52,2.49,5.64,2.49,9.36,0,.48-.02,1.01-.06,1.59-.04.58-.08,1.11-.12,1.59h-25.26v-6.54h18.06l-5.1,1.74c0-1.28-.23-2.37-.69-3.27-.46-.9-1.09-1.6-1.89-2.1-.8-.5-1.76-.75-2.88-.75s-2.09.25-2.91.75c-.82.5-1.45,1.2-1.89,2.1-.44.9-.66,1.99-.66,3.27v2.04c0,1.4.28,2.6.84,3.6.56,1,1.36,1.75,2.4,2.25,1.04.5,2.3.75,3.78.75s2.77-.2,3.75-.6c.98-.4,2.01-1,3.09-1.8l7.08,7.14c-1.6,1.72-3.57,3.03-5.91,3.93-2.34.9-5.15,1.35-8.43,1.35Z" style="stroke: #000; stroke-miterlimit: 10; stroke-width: .5px;"/>
    <path d="M162.91,52.21c-6.44,0-11.46-1.74-15.06-5.22-3.6-3.48-5.4-8.36-5.4-14.64V9.25h14.16v22.68c0,3.2.58,5.47,1.74,6.81,1.16,1.34,2.72,2.01,4.68,2.01s3.57-.67,4.71-2.01c1.14-1.34,1.71-3.61,1.71-6.81V9.25h13.92v23.1c0,6.28-1.8,11.16-5.4,14.64-3.6,3.48-8.62,5.22-15.06,5.22Z" style="stroke: #000; stroke-miterlimit: 10; stroke-width: .5px;"/>
    <path d="M189.43,51.25V6.73h13.56v44.52h-13.56Z" style="stroke: #000; stroke-miterlimit: 10; stroke-width: .5px;"/>
    <path d="M205.99,28.33v-9.9h24.78v9.9h-24.78ZM224.83,51.85c-4.52,0-8.04-1.09-10.56-3.27-2.52-2.18-3.78-5.53-3.78-10.05V11.05h13.56v27.36c0,1,.27,1.78.81,2.34.54.56,1.21.84,2.01.84,1.16,0,2.18-.3,3.06-.9l3.24,9.42c-1.04.6-2.29,1.04-3.75,1.32-1.46.28-2.99.42-4.59.42Z" style="stroke: #000; stroke-miterlimit: 10; stroke-width: .5px;"/>
    <path d="M243.37,15.79c-2.48,0-4.46-.66-5.94-1.98-1.48-1.32-2.22-2.96-2.22-4.92s.74-3.6,2.22-4.92c1.48-1.32,3.46-1.98,5.94-1.98s4.46.62,5.94,1.86c1.48,1.24,2.22,2.84,2.22,4.8,0,2.08-.74,3.79-2.22,5.13-1.48,1.34-3.46,2.01-5.94,2.01ZM236.59,51.25V18.43h13.56v32.82h-13.56Z" style="stroke: #000; stroke-miterlimit: 10; stroke-width: .5px;"/>
    <path d="M256.15,51.25V18.43h12.9v9.42l-2.64-2.64c1.24-2.48,2.9-4.33,4.98-5.55,2.08-1.22,4.4-1.83,6.96-1.83,2.88,0,5.43.75,7.65,2.25,2.22,1.5,3.71,3.87,4.47,7.11l-4.14-.66c1.2-2.72,2.95-4.85,5.25-6.39,2.3-1.54,4.97-2.31,8.01-2.31,2.48,0,4.71.51,6.69,1.53,1.98,1.02,3.54,2.61,4.68,4.77s1.71,4.96,1.71,8.4v18.72h-13.56v-16.38c0-2.04-.34-3.49-1.02-4.35-.68-.86-1.56-1.29-2.64-1.29-.8,0-1.52.2-2.16.6-.64.4-1.15,1.03-1.53,1.89-.38.86-.57,2.03-.57,3.51v16.02h-13.56v-16.38c0-2.04-.32-3.49-.96-4.35-.64-.86-1.54-1.29-2.7-1.29-.8,0-1.52.2-2.16.6-.64.4-1.15,1.03-1.53,1.89-.38.86-.57,2.03-.57,3.51v16.02h-13.56Z" style="stroke: #000; stroke-miterlimit: 10; stroke-width: .5px;"/>
    <path d="M329.11,51.85c-2.68,0-4.92-.46-6.72-1.38-1.8-.92-3.16-2.15-4.08-3.69-.92-1.54-1.38-3.25-1.38-5.13,0-2.12.54-3.92,1.62-5.4,1.08-1.48,2.73-2.6,4.95-3.36,2.22-.76,5.03-1.14,8.43-1.14h6.84v6.54h-4.68c-1.44,0-2.49.23-3.15.69-.66.46-.99,1.15-.99,2.07,0,.76.29,1.39.87,1.89.58.5,1.37.75,2.37.75.92,0,1.77-.25,2.55-.75.78-.5,1.35-1.29,1.71-2.37l1.74,4.02c-.52,2.44-1.62,4.26-3.3,5.46-1.68,1.2-3.94,1.8-6.78,1.8ZM338.41,51.25v-5.82l-.96-1.56v-11.04c0-1.6-.49-2.82-1.47-3.66-.98-.84-2.57-1.26-4.77-1.26-1.48,0-2.98.23-4.5.69-1.52.46-2.82,1.09-3.9,1.89l-4.32-8.94c1.92-1.2,4.22-2.12,6.9-2.76,2.68-.64,5.3-.96,7.86-.96,5.64,0,10.01,1.26,13.11,3.78,3.1,2.52,4.65,6.52,4.65,12v17.64h-12.6Z" style="stroke: #000; stroke-miterlimit: 10; stroke-width: .5px;"/>
    <path d="M353.89,28.33v-9.9h24.78v9.9h-24.78ZM372.73,51.85c-4.52,0-8.04-1.09-10.56-3.27-2.52-2.18-3.78-5.53-3.78-10.05V11.05h13.56v27.36c0,1,.27,1.78.81,2.34.54.56,1.21.84,2.01.84,1.16,0,2.18-.3,3.06-.9l3.24,9.42c-1.04.6-2.29,1.04-3.75,1.32-1.46.28-2.99.42-4.59.42Z" style="stroke: #000; stroke-miterlimit: 10; stroke-width: .5px;"/>
    <path d="M401.71,51.85c-4,0-7.49-.74-10.47-2.22-2.98-1.48-5.29-3.51-6.93-6.09-1.64-2.58-2.46-5.49-2.46-8.73s.81-6.26,2.43-8.82c1.62-2.56,3.84-4.56,6.66-6,2.82-1.44,5.99-2.16,9.51-2.16,3.24,0,6.23.64,8.97,1.92,2.74,1.28,4.94,3.18,6.6,5.7,1.66,2.52,2.49,5.64,2.49,9.36,0,.48-.02,1.01-.06,1.59-.04.58-.08,1.11-.12,1.59h-25.26v-6.54h18.06l-5.1,1.74c0-1.28-.23-2.37-.69-3.27-.46-.9-1.09-1.6-1.89-2.1-.8-.5-1.76-.75-2.88-.75s-2.09.25-2.91.75c-.82.5-1.45,1.2-1.89,2.1-.44.9-.66,1.99-.66,3.27v2.04c0,1.4.28,2.6.84,3.6.56,1,1.36,1.75,2.4,2.25,1.04.5,2.3.75,3.78.75s2.77-.2,3.75-.6c.98-.4,2.01-1,3.09-1.8l7.08,7.14c-1.6,1.72-3.57,3.03-5.91,3.93-2.34.9-5.15,1.35-8.43,1.35Z" style="stroke: #000; stroke-miterlimit: 10; stroke-width: .5px;"/>
    <path d="M25.39,124.21c-3.36,0-6.47-.53-9.33-1.59-2.86-1.06-5.34-2.57-7.44-4.53-2.1-1.96-3.73-4.28-4.89-6.96-1.16-2.68-1.74-5.64-1.74-8.88s.58-6.2,1.74-8.88c1.16-2.68,2.79-5,4.89-6.96s4.58-3.47,7.44-4.53c2.86-1.06,5.97-1.59,9.33-1.59,4.12,0,7.77.72,10.95,2.16,3.18,1.44,5.81,3.52,7.89,6.24l-8.94,7.98c-1.24-1.56-2.61-2.77-4.11-3.63-1.5-.86-3.19-1.29-5.07-1.29-1.48,0-2.82.24-4.02.72-1.2.48-2.23,1.18-3.09,2.1-.86.92-1.53,2.03-2.01,3.33-.48,1.3-.72,2.75-.72,4.35s.24,3.05.72,4.35c.48,1.3,1.15,2.41,2.01,3.33.86.92,1.89,1.62,3.09,2.1,1.2.48,2.54.72,4.02.72,1.88,0,3.57-.43,5.07-1.29,1.5-.86,2.87-2.07,4.11-3.63l8.94,7.98c-2.08,2.68-4.71,4.75-7.89,6.21-3.18,1.46-6.83,2.19-10.95,2.19Z" style="stroke: #000; stroke-miterlimit: 10; stroke-width: .5px;"/>
    <path d="M54.25,87.79c-2.48,0-4.46-.66-5.94-1.98-1.48-1.32-2.22-2.96-2.22-4.92s.74-3.6,2.22-4.92c1.48-1.32,3.46-1.98,5.94-1.98s4.46.62,5.94,1.86c1.48,1.24,2.22,2.84,2.22,4.8,0,2.08-.74,3.79-2.22,5.13-1.48,1.34-3.46,2.01-5.94,2.01ZM47.47,123.25v-32.82h13.56v32.82h-13.56Z" style="stroke: #000; stroke-miterlimit: 10; stroke-width: .5px;"/>
    <path d="M67.03,123.25v-32.82h12.9v9.6l-2.58-2.76c1.28-2.48,3.01-4.34,5.19-5.58,2.18-1.24,4.61-1.86,7.29-1.86,2.52,0,4.8.51,6.84,1.53,2.04,1.02,3.65,2.61,4.83,4.77,1.18,2.16,1.77,4.96,1.77,8.4v18.72h-13.56v-16.38c0-2.04-.36-3.49-1.08-4.35-.72-.86-1.7-1.29-2.94-1.29-.92,0-1.77.21-2.55.63-.78.42-1.4,1.11-1.86,2.07-.46.96-.69,2.26-.69,3.9v15.42h-13.56Z" style="stroke: #000; stroke-miterlimit: 10; stroke-width: .5px;"/>
    <path d="M127.87,123.85c-4,0-7.49-.74-10.47-2.22-2.98-1.48-5.29-3.51-6.93-6.09-1.64-2.58-2.46-5.49-2.46-8.73s.81-6.26,2.43-8.82c1.62-2.56,3.84-4.56,6.66-6,2.82-1.44,5.99-2.16,9.51-2.16,3.24,0,6.23.64,8.97,1.92,2.74,1.28,4.94,3.18,6.6,5.7,1.66,2.52,2.49,5.64,2.49,9.36,0,.48-.02,1.01-.06,1.59-.04.58-.08,1.11-.12,1.59h-25.26v-6.54h18.06l-5.1,1.74c0-1.28-.23-2.37-.69-3.27-.46-.9-1.09-1.6-1.89-2.1-.8-.5-1.76-.75-2.88-.75s-2.09.25-2.91.75c-.82.5-1.45,1.2-1.89,2.1-.44.9-.66,1.99-.66,3.27v2.04c0,1.4.28,2.6.84,3.6.56,1,1.36,1.75,2.4,2.25,1.04.5,2.3.75,3.78.75s2.77-.2,3.75-.6c.98-.4,2.01-1,3.09-1.8l7.08,7.14c-1.6,1.72-3.57,3.03-5.91,3.93-2.34.9-5.15,1.35-8.43,1.35Z" style="stroke: #000; stroke-miterlimit: 10; stroke-width: .5px;"/>
    <path d="M148.93,123.25v-32.82h12.9v9.42l-2.64-2.64c1.24-2.48,2.9-4.33,4.98-5.55,2.08-1.22,4.4-1.83,6.96-1.83,2.88,0,5.43.75,7.65,2.25,2.22,1.5,3.71,3.87,4.47,7.11l-4.14-.66c1.2-2.72,2.95-4.85,5.25-6.39,2.3-1.54,4.97-2.31,8.01-2.31,2.48,0,4.71.51,6.69,1.53,1.98,1.02,3.54,2.61,4.68,4.77s1.71,4.96,1.71,8.4v18.72h-13.56v-16.38c0-2.04-.34-3.49-1.02-4.35-.68-.86-1.56-1.29-2.64-1.29-.8,0-1.52.2-2.16.6-.64.4-1.15,1.03-1.53,1.89-.38.86-.57,2.03-.57,3.51v16.02h-13.56v-16.38c0-2.04-.32-3.49-.96-4.35-.64-.86-1.54-1.29-2.7-1.29-.8,0-1.52.2-2.16.6-.64.4-1.15,1.03-1.53,1.89-.38.86-.57,2.03-.57,3.51v16.02h-13.56Z" style="stroke: #000; stroke-miterlimit: 10; stroke-width: .5px;"/>
    <path d="M221.89,123.85c-2.68,0-4.92-.46-6.72-1.38-1.8-.92-3.16-2.15-4.08-3.69-.92-1.54-1.38-3.25-1.38-5.13,0-2.12.54-3.92,1.62-5.4,1.08-1.48,2.73-2.6,4.95-3.36,2.22-.76,5.03-1.14,8.43-1.14h6.84v6.54h-4.68c-1.44,0-2.49.23-3.15.69-.66.46-.99,1.15-.99,2.07,0,.76.29,1.39.87,1.89.58.5,1.37.75,2.37.75.92,0,1.77-.25,2.55-.75.78-.5,1.35-1.29,1.71-2.37l1.74,4.02c-.52,2.44-1.62,4.26-3.3,5.46-1.68,1.2-3.94,1.8-6.78,1.8ZM231.19,123.25v-5.82l-.96-1.56v-11.04c0-1.6-.49-2.82-1.47-3.66-.98-.84-2.57-1.26-4.77-1.26-1.48,0-2.98.23-4.5.69-1.52.46-2.82,1.09-3.9,1.89l-4.32-8.94c1.92-1.2,4.22-2.12,6.9-2.76,2.68-.64,5.3-.96,7.86-.96,5.64,0,10.01,1.26,13.11,3.78,3.1,2.52,4.65,6.52,4.65,12v17.64h-12.6Z" style="stroke: #000; stroke-miterlimit: 10; stroke-width: .5px;"/>
    <path d="M268.09,123.25v-42h34.14v10.68h-20.22v20.64h21v10.68h-34.92ZM281.05,107.05v-10.2h18.72v10.2h-18.72Z" style="stroke: #000; stroke-miterlimit: 10; stroke-width: .5px;"/>
    <path d="M304.51,123.25l15.48-20.28-.36,7.8-14.76-20.34h15.3l7.26,10.86-5.64.42,7.98-11.28h14.22l-14.82,19.68v-7.5l15.12,20.64h-15.54l-7.5-11.58,5.7.78-7.74,10.8h-14.7Z" style="stroke: #000; stroke-miterlimit: 10; stroke-width: .5px;"/>
    <path d="M346.75,134.89v-44.46h12.9v4.44l.06,12,.6,12v16.02h-13.56ZM368.65,123.85c-2.84,0-5.19-.61-7.05-1.83-1.86-1.22-3.23-3.08-4.11-5.58-.88-2.5-1.32-5.69-1.32-9.57s.41-7.19,1.23-9.69c.82-2.5,2.15-4.35,3.99-5.55,1.84-1.2,4.26-1.8,7.26-1.8s5.52.69,7.92,2.07c2.4,1.38,4.32,3.34,5.76,5.88s2.16,5.57,2.16,9.09-.72,6.55-2.16,9.09c-1.44,2.54-3.36,4.49-5.76,5.85-2.4,1.36-5.04,2.04-7.92,2.04ZM365.41,113.29c1,0,1.9-.24,2.7-.72.8-.48,1.44-1.2,1.92-2.16s.72-2.14.72-3.54-.24-2.64-.72-3.6c-.48-.96-1.12-1.68-1.92-2.16-.8-.48-1.7-.72-2.7-.72s-1.9.24-2.7.72c-.8.48-1.44,1.2-1.92,2.16-.48.96-.72,2.16-.72,3.6s.24,2.58.72,3.54,1.12,1.68,1.92,2.16c.8.48,1.7.72,2.7.72Z" style="stroke: #000; stroke-miterlimit: 10; stroke-width: .5px;"/>
    <path d="M406.87,123.85c-4,0-7.49-.74-10.47-2.22-2.98-1.48-5.29-3.51-6.93-6.09-1.64-2.58-2.46-5.49-2.46-8.73s.81-6.26,2.43-8.82c1.62-2.56,3.84-4.56,6.66-6,2.82-1.44,5.99-2.16,9.51-2.16,3.24,0,6.23.64,8.97,1.92,2.74,1.28,4.94,3.18,6.6,5.7,1.66,2.52,2.49,5.64,2.49,9.36,0,.48-.02,1.01-.06,1.59-.04.58-.08,1.11-.12,1.59h-25.26v-6.54h18.06l-5.1,1.74c0-1.28-.23-2.37-.69-3.27-.46-.9-1.09-1.6-1.89-2.1-.8-.5-1.76-.75-2.88-.75s-2.09.25-2.91.75c-.82.5-1.45,1.2-1.89,2.1-.44.9-.66,1.99-.66,3.27v2.04c0,1.4.28,2.6.84,3.6.56,1,1.36,1.75,2.4,2.25,1.04.5,2.3.75,3.78.75s2.77-.2,3.75-.6c.98-.4,2.01-1,3.09-1.8l7.08,7.14c-1.6,1.72-3.57,3.03-5.91,3.93-2.34.9-5.15,1.35-8.43,1.35Z" style="stroke: #000; stroke-miterlimit: 10; stroke-width: .5px;"/>
    <path d="M427.93,123.25v-32.82h12.9v9.9l-2.1-2.82c1-2.56,2.6-4.48,4.8-5.76,2.2-1.28,4.84-1.92,7.92-1.92v12c-.6-.08-1.13-.14-1.59-.18-.46-.04-.93-.06-1.41-.06-2.04,0-3.71.53-5.01,1.59-1.3,1.06-1.95,2.89-1.95,5.49v14.58h-13.56Z" style="stroke: #000; stroke-miterlimit: 10; stroke-width: .5px;"/>
    <path d="M462.06,87.79c-2.48,0-4.46-.66-5.94-1.98-1.48-1.32-2.22-2.96-2.22-4.92s.74-3.6,2.22-4.92c1.48-1.32,3.46-1.98,5.94-1.98s4.46.62,5.94,1.86c1.48,1.24,2.22,2.84,2.22,4.8,0,2.08-.74,3.79-2.22,5.13-1.48,1.34-3.46,2.01-5.94,2.01ZM455.29,123.25v-32.82h13.56v32.82h-13.56Z" style="stroke: #000; stroke-miterlimit: 10; stroke-width: .5px;"/>
    <path d="M492.96,123.85c-4,0-7.49-.74-10.47-2.22-2.98-1.48-5.29-3.51-6.93-6.09-1.64-2.58-2.46-5.49-2.46-8.73s.81-6.26,2.43-8.82c1.62-2.56,3.84-4.56,6.66-6,2.82-1.44,5.99-2.16,9.51-2.16,3.24,0,6.23.64,8.97,1.92,2.74,1.28,4.94,3.18,6.6,5.7,1.66,2.52,2.49,5.64,2.49,9.36,0,.48-.02,1.01-.06,1.59-.04.58-.08,1.11-.12,1.59h-25.26v-6.54h18.06l-5.1,1.74c0-1.28-.23-2.37-.69-3.27-.46-.9-1.09-1.6-1.89-2.1-.8-.5-1.76-.75-2.88-.75s-2.09.25-2.91.75c-.82.5-1.45,1.2-1.89,2.1-.44.9-.66,1.99-.66,3.27v2.04c0,1.4.28,2.6.84,3.6.56,1,1.36,1.75,2.4,2.25,1.04.5,2.3.75,3.78.75s2.77-.2,3.75-.6c.98-.4,2.01-1,3.09-1.8l7.08,7.14c-1.6,1.72-3.57,3.03-5.91,3.93s-5.15,1.35-8.43,1.35Z" style="stroke: #000; stroke-miterlimit: 10; stroke-width: .5px;"/>
    <path d="M514.02,123.25v-32.82h12.9v9.6l-2.58-2.76c1.28-2.48,3.01-4.34,5.19-5.58,2.18-1.24,4.61-1.86,7.29-1.86,2.52,0,4.8.51,6.84,1.53,2.04,1.02,3.65,2.61,4.83,4.77s1.77,4.96,1.77,8.4v18.72h-13.56v-16.38c0-2.04-.36-3.49-1.08-4.35-.72-.86-1.7-1.29-2.94-1.29-.92,0-1.77.21-2.55.63-.78.42-1.4,1.11-1.86,2.07-.46.96-.69,2.26-.69,3.9v15.42h-13.56Z" style="stroke: #000; stroke-miterlimit: 10; stroke-width: .5px;"/>
    <path d="M574.38,123.85c-3.76,0-7.1-.72-10.02-2.16-2.92-1.44-5.21-3.45-6.87-6.03-1.66-2.58-2.49-5.53-2.49-8.85s.83-6.26,2.49-8.82c1.66-2.56,3.95-4.56,6.87-6,2.92-1.44,6.26-2.16,10.02-2.16,4,0,7.42.86,10.26,2.58,2.84,1.72,4.8,4.1,5.88,7.14l-10.5,5.16c-.68-1.52-1.51-2.62-2.49-3.3-.98-.68-2.05-1.02-3.21-1.02-1,0-1.93.24-2.79.72-.86.48-1.54,1.19-2.04,2.13-.5.94-.75,2.13-.75,3.57s.25,2.64.75,3.6c.5.96,1.18,1.68,2.04,2.16.86.48,1.79.72,2.79.72,1.16,0,2.23-.34,3.21-1.02.98-.68,1.81-1.78,2.49-3.3l10.5,5.16c-1.08,3.04-3.04,5.42-5.88,7.14-2.84,1.72-6.26,2.58-10.26,2.58Z" style="stroke: #000; stroke-miterlimit: 10; stroke-width: .5px;"/>
    <path d="M611.46,123.85c-4,0-7.49-.74-10.47-2.22-2.98-1.48-5.29-3.51-6.93-6.09-1.64-2.58-2.46-5.49-2.46-8.73s.81-6.26,2.43-8.82c1.62-2.56,3.84-4.56,6.66-6,2.82-1.44,5.99-2.16,9.51-2.16,3.24,0,6.23.64,8.97,1.92,2.74,1.28,4.94,3.18,6.6,5.7,1.66,2.52,2.49,5.64,2.49,9.36,0,.48-.02,1.01-.06,1.59-.04.58-.08,1.11-.12,1.59h-25.26v-6.54h18.06l-5.1,1.74c0-1.28-.23-2.37-.69-3.27-.46-.9-1.09-1.6-1.89-2.1-.8-.5-1.76-.75-2.88-.75s-2.09.25-2.91.75c-.82.5-1.45,1.2-1.89,2.1s-.66,1.99-.66,3.27v2.04c0,1.4.28,2.6.84,3.6.56,1,1.36,1.75,2.4,2.25,1.04.5,2.3.75,3.78.75s2.77-.2,3.75-.6c.98-.4,2.01-1,3.09-1.8l7.08,7.14c-1.6,1.72-3.57,3.03-5.91,3.93s-5.15,1.35-8.43,1.35Z" style="stroke: #000; stroke-miterlimit: 10; stroke-width: .5px;"/>
  </g>
</svg>