<?xml version="1.0" encoding="UTF-8"?>
<svg id="Layer_1" data-name="Layer 1" xmlns="http://www.w3.org/2000/svg" viewBox="0 0 212.25 339.32">
  <path d="M92.02,26.58c3.9,4.59,7.8,9.14,11.67,13.69,2.39-2.42,5.61-5.34,9.61-8.27-2.54-5.58-5.18-11.06-8.09-16.29-5.41,3.72-9.82,7.57-13.19,10.87Z" style="fill: #f47723;"/>
  <path d="M84.3,35.23c-.11.14-.18.25-.23.31l-1.18,1.65-15.24,84.69h18.22l13.51-75.05.41-2.28c.84-1.02,2.16-2.52,3.9-4.28-3.88-4.55-7.77-9.11-11.67-13.69-4.32,4.24-6.92,7.58-7.71,8.65Z" style="fill: #f8a063;"/>
  <path d="M105.21,15.71c2.91,5.23,5.55,10.72,8.09,16.29,3.05-2.24,6.56-4.47,10.5-6.49-1.83-5.81-3.55-11.65-5.19-17.49-4.99,2.32-9.46,4.97-13.41,7.68Z" style="fill: #f8a063;"/>
  <path d="M166.01.7l-1.38-.15c-.7-.08-1.39-.14-2.08-.21-.92,5.89-2.1,11.82-3.22,17.75.66.04,1.31.08,1.98.14l43.67,19.35,7.26-16.39L166.01.7Z" style="fill: #f8a063;"/>
  <path d="M143.53.73c-.19,3.21-.38,6.35-.38,9.3.12,2.93.3,5.88.5,8.85,4.87-.82,10.1-1.14,15.68-.79,1.13-5.94,2.3-11.87,3.22-17.75-6.75-.59-13.09-.4-19.03.38Z" style="fill: #f47723;"/>
  <path d="M118.61,8.02c1.64,5.84,3.35,11.68,5.19,17.49,3.06-1.56,6.38-2.97,9.95-4.15-.99-6-1.99-11.97-2.98-17.93-4.34,1.27-8.39,2.84-12.15,4.6Z" style="fill: #f47723;"/>
  <path d="M143.53.73c-4.5.59-8.76,1.52-12.77,2.7.99,5.96,1.99,11.93,2.98,17.93,3.11-1.03,6.42-1.88,9.91-2.47-.2-2.97-.38-5.93-.5-8.85,0-2.95.19-6.1.38-9.3Z" style="fill: #f8a063;"/>
  <path d="M22.5,145.78h-10.55c-1.43,0-2.8-.27-4.07-.73l12.04,194.26,104.74-1.14.76-14.66-91.83,1-11.08-178.74Z" style="fill: #a91f23;"/>
  <path d="M22.5,145.78l11.08,178.74,91.83-1,1.66-32.23c-3.22,1.46-6.57,2.14-9.98,1.91-18.7-1.26-32.06-29.16-29.83-62.33,2.23-33.17,19.2-59.04,37.9-57.78,2.76.18,5.39.96,7.88,2.24l1.54-29.95c-.99.26-2.02.41-3.1.41H22.5Z" style="fill: #bc2326;"/>
  <path d="M17.08,138.95c-6.6,0-11.95-5.35-11.95-11.95,0-1.14.17-2.23.47-3.28-3.35,2.12-5.59,5.85-5.59,10.11,0,5.17,3.29,9.56,7.88,11.23,1.27.46,2.64.73,4.07.73h119.54c1.07,0,2.11-.15,3.1-.41,4.05-1.09,7.25-4.24,8.39-8.27-1.84,1.16-4.02,1.85-6.36,1.85H17.08Z" style="fill: #d8bfa0;"/>
  <path d="M11.95,121.88c-2.34,0-4.52.68-6.37,1.85-.3,1.04-.47,2.14-.47,3.28,0,6.6,5.35,11.95,11.95,11.95h119.54c2.34,0,4.52-.68,6.36-1.85.3-1.04.47-2.14.47-3.27,0-6.6-5.35-11.95-11.95-11.95H11.95Z" style="fill: #efd6b5;"/>
  <path d="M87.26,230.87c-2.23,33.17,11.12,61.08,29.83,62.33,3.41.23,6.77-.45,9.98-1.91l5.97-115.96c-2.49-1.27-5.13-2.05-7.88-2.24-18.7-1.26-35.67,24.61-37.9,57.78Z" style="fill: #e2d4c0;"/>
</svg>