<?xml version="1.0" encoding="UTF-8"?>
<svg id="Layer_1" data-name="Layer 1" xmlns="http://www.w3.org/2000/svg" viewBox="0 0 470.71 712.64">
  <path d="M355.09,177.78c-.84-1.3-1.46-2.74-1.81-4.28-.86,3.52-1.62,6.61-2.18,9.1,1.25-1.53,2.58-3.15,3.98-4.82Z" style="fill: #d8bfa0;"/>
  <path d="M279.84,65.75c3.22-1.76,6.91-2.75,10.83-2.75.87,0,1.73.06,2.58.16,1.8-5.75,5.34-10.71,10.01-14.3-10.18-3.05-21.58-.38-31.3,11.27,2.91,1.3,5.6,3.18,7.88,5.62Z" style="fill: #d8bfa0;"/>
  <path d="M402.44,176.19c-1.06-.13-2.08-.37-3.07-.67-2.55,2.51-5.77,4.31-9.32,5.11,5.59,1.25,10.4,4.56,13.59,9.1,3.03-7,8.99-12.42,16.33-14.73-.46-1.43-.98-2.84-1.56-4.21-4.08,4-9.87,6.17-15.98,5.39Z" style="fill: #d8bfa0;"/>
  <path d="M121.2,106.12c-7.34-2.14-13.19-7.81-15.54-15.07-1.19,3.79-3.66,7.01-6.89,9.19,7.6,3.32,13.14,10.47,14.18,19.01,4.21-2.9,9.28-4.45,14.5-4.28-2.97-2.26-5.13-5.38-6.25-8.85Z" style="fill: #d8bfa0;"/>
  <path d="M260.27,58.08c-1.58-1.34-3.25-2.68-4.99-3.98.58,1.48.9,3.03.96,4.59,1.33-.32,2.68-.52,4.04-.61Z" style="fill: #d8bfa0;"/>
  <path d="M125.8,176.09c-2.89,4.66-8.03,7.77-13.91,7.77-.38,0-.75-.03-1.13-.06.73,2.83,1.13,5.81,1.13,8.87,0,1.93-.16,3.82-.46,5.67,4.32-4.28,10.26-6.93,16.83-6.93,3.14,0,6.12.62,8.87,1.72.19-3.6.87-7.07,1.97-10.35-1.41-.26-2.82-.6-4.21-1.11-3.49-1.26-6.55-3.19-9.09-5.59Z" style="fill: #d8bfa0;"/>
  <path d="M35,250.55l38.44,39.06,20.99-26.89,10.26-13.14c-.21-1.32-.35-2.66-.35-4.03,0-5.77,1.96-11.07,5.23-15.32-3.26-4.09-5.23-9.26-5.23-14.9,0-.31.04-.62.05-.93-6.45,8.23-16.48,13.52-27.74,13.52-6.52,0-12.62-1.78-17.87-4.87-2.32.7-4.77,1.09-7.32,1.09-11.04,0-20.39-7.11-23.79-16.99-7.89,10.35-12.1,22.87-.13,30.84-14.89,6.62-15.53,17.1-10.38,28.16l14.16-19.35,3.68,3.74Z" style="fill: #d8bfa0;"/>
  <path d="M155.02,279.8c-4.31-4.01-7.66-9.04-9.63-14.71-4.33,3.52-9.85,5.64-15.87,5.64-.11,0-.21-.01-.31-.02l17.67,18.9,8.14-9.81Z" style="fill: #d8bfa0;"/>
  <path d="M364.52,183.7c-4.02-.51-7.38-2.77-9.43-5.92-1.4,1.67-2.73,3.29-3.98,4.82.55-2.49,1.32-5.58,2.18-9.1-.33-1.47-.44-3.02-.24-4.6.04-.31.1-.6.16-.9-2.35.3-4.77.31-7.23,0-15.63-1.98-26.69-16.26-24.71-31.89.1-.8.25-1.58.41-2.36-4.93-3.7-8.7-8.87-10.64-14.86-2.89,9.19-11.48,15.85-21.62,15.85-6.35,0-12.08-2.62-16.2-6.83-.74,2.73-2.35,5.24-4.79,7.07-5.84,4.4-14.14,3.23-18.54-2.61-.19-.25-.35-.5-.51-.76-1.47,1.85-3.2,3.56-5.19,5.05-12.58,9.48-30.47,6.96-39.94-5.62-3.17-4.22-5-9.02-5.55-13.91-1.58-1.16-3.03-2.55-4.26-4.2-3.12-4.14-4.4-9.07-4.02-13.86-4.43.64-9.11-.44-12.93-3.39-6.48-5-8.39-13.72-5.06-20.84-1.4-.28-2.76-.86-3.97-1.8-.54-.41-1.02-.88-1.44-1.37-1.68.06-3.38-.21-4.99-.79-1.99,5.73-6,10.52-11.18,13.51-.02.93-.11,1.83-.24,2.73,1.27,1.15,2.37,2.46,3.25,3.9,3.3-.78,6.86-.65,10.29.58,9.42,3.39,14.3,13.78,10.91,23.19-.24.66-.51,1.28-.82,1.9,7.85,5.96,11.3,16.53,7.78,26.3-2.19,6.07-6.65,10.66-12.08,13.17,0,.16,0,.32,0,.48,2.02-.32,4.08-.5,6.19-.5,21.55,0,39.03,17.47,39.03,39.03,0,3.61-.5,7.1-1.42,10.41,9.39,1.71,16.52,9.91,16.52,19.8,0,9.27-6.28,17.06-14.81,19.41.62,2.67.96,5.44.96,8.29,0,8.69-3.04,16.66-8.1,22.93l12.03,13.58,22.47-25.56,15.15-17.24,1.41,1.69,34.41,41.12,23.1-24.9,16.62-17.91.79,1.01,32.93,41.8,12.47-12.76c-4.4-5.44-7.34-12.12-8.17-19.44-9.03-3.83-15.36-12.77-15.36-23.19,0-8.01,3.76-15.14,9.59-19.75-2.08-3.42-3.3-7.43-3.3-11.72,0-11.1,7.98-20.32,18.52-22.27-1.55-.4-3.02-.98-4.39-1.72-2.78,3.52-7.28,5.55-12.05,4.94ZM311.73,245.15c-10.66,5.78-23.09,5.02-32.73-.89-14.57,7.5-32.53,2.01-40.38-12.46-6.4-11.81-4.12-25.99,4.67-35.22-9.46,1.84-19.41-2.54-24.24-11.45-5.96-11-1.88-24.76,9.13-30.72,4.69-2.54,9.87-3.24,14.74-2.38,2.02-3.73,5.1-6.94,9.1-9.11,11-5.96,24.76-1.88,30.72,9.12.42.77.77,1.55,1.09,2.34,12.1-2.37,24.83,3.22,31.02,14.63,3.84,7.09,4.42,15.08,2.24,22.23,3.1,2.58,5.78,5.78,7.82,9.55,8.61,15.89,2.71,35.76-13.18,44.38Z" style="fill: #d8bfa0;"/>
  <path d="M453.39,207.18c.6-2.22.96-4.54.96-6.95,0-14.6-11.84-26.44-26.44-26.44-2.77,0-5.43.43-7.93,1.22-7.34,2.31-13.31,7.74-16.33,14.73-3.19-4.54-8-7.85-13.59-9.1-2.14.49-4.4.61-6.7.32-.82-.1-1.61-.28-2.39-.48-10.54,1.95-18.52,11.17-18.52,22.27,0,4.3,1.22,8.3,3.3,11.72-5.83,4.61-9.59,11.74-9.59,19.75,0,10.42,6.33,19.36,15.36,23.19.83,7.32,3.76,14,8.17,19.44l11.21-11.47,18.14-18.57.24.32,25.1,33.98c7.63-6.91,12.43-16.9,12.43-28.01,0-.44-.02-.88-.03-1.32.43.02.86.07,1.29.07,12.52,0,22.66-10.15,22.66-22.66,0-10.67-7.39-19.6-17.32-22Z" style="fill: #e2d4c0;"/>
  <path d="M293.25,63.15c-.85-.1-1.7-.16-2.58-.16-3.92,0-7.61,1-10.83,2.75.59.63,1.17,1.29,1.7,2,.24.31.46.64.68.96,4.61.85,8.92,3.33,11.96,7.37,6.43,8.54,4.72,20.67-3.82,27.1-.85.64-1.75,1.18-2.67,1.66-.12,5.73-2.76,11.35-7.69,15.06-1.98,1.49-4.15,2.52-6.39,3.15.17,1.64.03,3.29-.4,4.87,4.11,4.21,9.85,6.83,16.2,6.83,10.14,0,18.73-6.66,21.62-15.85,1.94,5.99,5.71,11.16,10.64,14.86.91-4.3,2.76-8.19,5.31-11.49-.33-1.93-.39-3.94-.13-5.98,1.33-10.48,10.4-18.09,20.75-17.8,0-.03,0-.07,0-.1,1.27-10.05,10.45-17.16,20.5-15.88,7.45.94,13.26,6.24,15.26,13.01,1.91-4.15,2.99-8.77,2.99-13.63,0-18.08-14.66-32.73-32.73-32.73-4.28,0-8.37.83-12.12,2.33-5.25-5.32-12.54-8.62-20.61-8.62-6.64,0-12.75,2.25-17.63,6-4.66,3.59-8.21,8.55-10.01,14.3Z" style="fill: #e2d4c0;"/>
  <path d="M317.09,191.23c2.18-7.15,1.6-15.14-2.24-22.23-6.18-11.41-18.92-17-31.02-14.63-.32-.79-.67-1.57-1.09-2.34-5.96-11-19.72-15.09-30.72-9.12-4.01,2.17-7.08,5.38-9.1,9.11-4.87-.86-10.05-.16-14.74,2.38-11,5.96-15.09,19.72-9.13,30.72,4.83,8.92,14.78,13.29,24.24,11.45-8.78,9.23-11.07,23.41-4.67,35.22,7.85,14.48,25.81,19.96,40.38,12.46,9.64,5.91,22.08,6.67,32.73.89,15.89-8.62,21.8-28.48,13.18-44.38-2.04-3.77-4.72-6.96-7.82-9.55Z" style="fill: #f7e1c6;"/>
  <path d="M98.78,100.24c3.23-2.17,5.69-5.4,6.89-9.19,2.35,7.25,8.19,12.92,15.54,15.07-1.19-3.69-1.23-7.78.19-11.71,3.39-9.42,13.78-14.3,23.19-10.91,2.3.83,4.31,2.08,6.01,3.63.13-.9.22-1.8.24-2.73,5.18-2.99,9.19-7.78,11.18-13.51-1.27-.46-2.5-1.11-3.62-1.98-5.84-4.5-6.92-12.89-2.41-18.73.73-.94,1.57-1.73,2.47-2.41-4.57-6.16-11.88-10.17-20.14-10.17-3.28,0-6.41.64-9.29,1.78-4.02-4.08-9.61-6.61-15.79-6.61-9.94,0-18.36,6.54-21.18,15.56-.65-.07-1.31-.12-1.97-.12-9.59,0-17.36,7.77-17.36,17.36,0,3.49,1.04,6.74,2.82,9.46-2.36,2.97-3.78,6.71-3.78,10.8,0,6.06,3.11,11.39,7.81,14.49,2.96-1.32,6.23-2.08,9.68-2.08s6.62.72,9.55,1.99Z" style="fill: #f2d6b2;"/>
  <path d="M51.46,224.14c2.55,0,5-.39,7.32-1.09,5.24,3.09,11.34,4.87,17.87,4.87,11.27,0,21.29-5.29,27.74-13.52-.01.31-.05.62-.05.93,0,5.64,1.96,10.81,5.23,14.9-3.26,4.25-5.23,9.55-5.23,15.32,0,1.38.14,2.72.35,4.03l2.17-2.77,2.86,3.06,19.49,20.85c.1,0,.21.02.31.02,6.02,0,11.54-2.12,15.87-5.64,1.97,5.68,5.32,10.7,9.63,14.71l13.62-16.42,13.75-16.58,2.1,2.37,23.79,26.85c5.07-6.27,8.1-14.24,8.1-22.93,0-2.85-.34-5.63-.96-8.29,8.53-2.34,14.81-10.13,14.81-19.41,0-9.89-7.13-18.09-16.52-19.8.92-3.32,1.42-6.81,1.42-10.41,0-21.56-17.47-39.03-39.03-39.03-2.11,0-4.17.17-6.19.5.05,3.08-.42,6.21-1.53,9.27-4.4,12.21-16.93,19.11-29.29,16.86-1.1,3.28-1.78,6.75-1.97,10.35-2.74-1.1-5.73-1.72-8.87-1.72-6.56,0-12.5,2.65-16.83,6.93.3-1.85.46-3.74.46-5.67,0-3.06-.39-6.04-1.13-8.87.37.02.75.06,1.13.06,5.88,0,11.02-3.11,13.91-7.77-4.08-3.86-6.81-8.94-7.8-14.42-12.23-4.71-18.52-18.35-14.05-30.73,1.78-4.93,5-8.92,9.01-11.68-1.04-8.54-6.57-15.7-14.18-19.01-2.93-1.28-6.15-1.99-9.55-1.99s-6.72.76-9.68,2.08c-2.39,1.07-4.59,2.5-6.49,4.25-.48-.02-.97-.04-1.45-.04-12.43,0-23.11,7.51-27.75,18.24-2.85-1.97-6.3-3.14-10.02-3.14-9.73,0-17.63,7.89-17.63,17.63,0,4.27,1.52,8.19,4.05,11.24-.18.84-.27,1.71-.27,2.61,0,2.01.49,3.91,1.33,5.6-10.12,2.27-17.69,11.29-17.69,22.1,0,12.52,10.15,22.66,22.66,22.66.04,0,.08,0,.13,0,.2,1.97.64,3.86,1.27,5.68,3.4,9.88,12.75,16.99,23.79,16.99Z" style="fill: #e2d4c0;"/>
  <path d="M240.72,74.62c-3.02,3.91-6.91,6.75-11.18,8.46-.65,1.71-1.56,3.36-2.73,4.89-6.04,7.83-16.97,9.67-25.19,4.54-.02.02-.04.05-.05.08-2.84,3.68-6.88,5.88-11.15,6.5-.38,4.79.91,9.72,4.02,13.86,1.24,1.65,2.68,3.04,4.26,4.2.55,4.89,2.38,9.7,5.55,13.91,9.48,12.58,27.36,15.1,39.94,5.62,1.98-1.49,3.71-3.19,5.19-5.05.16.25.33.51.51.76,4.4,5.84,12.7,7.01,18.54,2.61,2.43-1.83,4.05-4.35,4.79-7.07.43-1.58.57-3.23.4-4.87,2.24-.63,4.42-1.67,6.39-3.15,4.93-3.71,7.57-9.33,7.69-15.06.92-.48,1.81-1.02,2.67-1.66,8.54-6.43,10.25-18.57,3.82-27.1-3.04-4.04-7.36-6.52-11.96-7.37-.22-.32-.45-.64-.68-.96-.53-.71-1.11-1.36-1.7-2-2.28-2.44-4.97-4.33-7.88-5.62-3.67-1.63-7.69-2.33-11.68-2.05-1.35.09-2.7.29-4.04.61-.06-1.55-.38-3.1-.96-4.59-.46-1.19-1.08-2.35-1.89-3.42-2.64-3.5-6.58-5.44-10.64-5.66,5.2,9.09,4.77,20.78-2.03,29.59Z" style="fill: #f7e1c6;"/>
  <path d="M368.11,82.5c-10.05-1.27-19.23,5.84-20.5,15.88,0,.03,0,.07,0,.1-10.35-.28-19.42,7.32-20.75,17.8-.26,2.04-.2,4.05.13,5.98-2.55,3.3-4.4,7.19-5.31,11.49-.17.77-.31,1.56-.41,2.36-1.98,15.63,9.08,29.9,24.71,31.89,2.46.31,4.88.3,7.23,0-.06.3-.12.59-.16.9-.2,1.58-.1,3.13.24,4.6.35,1.54.96,2.98,1.81,4.28,2.05,3.15,5.41,5.41,9.43,5.92,4.77.6,9.27-1.42,12.05-4.94,1.36.74,2.84,1.31,4.39,1.72.78.2,1.57.37,2.39.48,2.3.29,4.56.16,6.7-.32,3.55-.81,6.77-2.6,9.32-5.11.99.29,2.01.53,3.07.67,6.11.77,11.9-1.4,15.98-5.39,3-2.94,5.09-6.87,5.66-11.37.64-5.01-.72-9.81-3.44-13.63.07-.38.13-.77.18-1.16,1.27-9.98-3.68-19.31-11.82-24.13,1.87-2.09,3.16-4.74,3.54-7.73.99-7.81-4.54-14.95-12.36-15.94-3.43-.44-6.73.39-9.44,2.11-.66-.23-1.34-.39-2.06-.49-1.62-.2-3.19,0-4.63.5-.11-1.18-.35-2.33-.68-3.44-2-6.77-7.81-12.07-15.26-13.01Z" style="fill: #f7e1c6;"/>
  <path d="M155.97,50.18c-4.51,5.84-3.42,14.22,2.41,18.73,1.13.87,2.35,1.52,3.62,1.98,1.62.58,3.31.85,4.99.79.42.5.9.96,1.44,1.37,1.21.93,2.57,1.52,3.97,1.8-3.33,7.12-1.42,15.84,5.06,20.84,3.83,2.95,8.5,4.03,12.93,3.39,4.27-.61,8.31-2.81,11.15-6.5.02-.02.04-.05.05-.08,8.22,5.13,19.15,3.3,25.19-4.54,1.18-1.53,2.08-3.18,2.73-4.89,4.28-1.71,8.17-4.55,11.18-8.46,6.79-8.81,7.23-20.5,2.03-29.59-1.7-2.96-3.98-5.65-6.86-7.87-1.84-1.42-3.8-2.56-5.84-3.43.19-.21.38-.42.56-.65,4.18-5.42,3.18-13.21-2.24-17.39-3.57-2.75-8.16-3.25-12.07-1.72-1.13-1.87-2.6-3.57-4.43-4.99-4.58-3.53-10.31-4.52-15.51-3.21-.66-.71-1.37-1.38-2.16-1.99-7.92-6.11-19.3-4.65-25.42,3.28-2.89,3.75-4.06,8.26-3.69,12.63-.24.28-.47.56-.7.85-5.75,7.46-6.19,17.34-1.9,25.08-1.45.46-2.81,1.2-4.05,2.15-.9.69-1.74,1.47-2.47,2.41Z" style="fill: #e2d4c0;"/>
  <polygon points="87.7 688.72 23.92 265.69 35 250.55 31.32 246.81 17.16 266.16 0 289.61 63.78 712.64 116.46 712.64 114.03 688.72 87.7 688.72" style="fill: #e3ceb4;"/>
  <polygon points="73.44 289.61 35 250.55 23.92 265.69 87.7 688.72 114.03 688.72 73.44 289.61" style="fill: #eddeca;"/>
  <polygon points="140.39 688.72 114.03 688.72 116.46 712.64 169.15 712.64 167.89 688.72 140.39 688.72" style="fill: #a91f23;"/>
  <polygon points="146.88 289.61 129.21 270.71 109.72 249.86 106.86 246.81 104.69 249.58 94.43 262.72 73.44 289.61 114.03 688.72 140.39 688.72 167.89 688.72 146.88 289.61" style="fill: #bc2326;"/>
  <polygon points="193.07 688.72 167.89 688.72 169.15 712.64 221.83 712.64 221.75 688.72 193.07 688.72" style="fill: #e3ceb4;"/>
  <polygon points="220.32 289.61 208.29 276.03 184.5 249.18 182.4 246.81 168.64 263.38 155.02 279.8 146.88 289.61 167.89 688.72 193.07 688.72 221.75 688.72 220.32 289.61" style="fill: #eddeca;"/>
  <polygon points="245.75 688.72 221.75 688.72 221.83 712.64 274.51 712.64 275.6 688.72 245.75 688.72" style="fill: #a91f23;"/>
  <polygon points="293.76 289.61 259.35 248.5 257.94 246.81 242.79 264.05 220.32 289.61 221.75 688.72 245.75 688.72 275.6 688.72 293.76 289.61" style="fill: #bc2326;"/>
  <polygon points="298.44 688.72 275.6 688.72 274.51 712.64 327.2 712.64 329.46 688.72 298.44 688.72" style="fill: #e3ceb4;"/>
  <polygon points="333.48 246.81 316.86 264.71 293.76 289.61 275.6 688.72 298.44 688.72 329.46 688.72 367.2 289.61 334.27 247.81 333.48 246.81" style="fill: #eddeca;"/>
  <polygon points="329.46 688.72 327.2 712.64 379.88 712.64 383.32 688.72 351.12 688.72 329.46 688.72" style="fill: #a91f23;"/>
  <polygon points="409.26 247.13 409.02 246.81 390.88 265.38 379.67 276.85 367.2 289.61 329.46 688.72 351.12 688.72 383.32 688.72 440.64 289.61 434.36 281.11 409.26 247.13" style="fill: #bc2326;"/>
  <path d="M182,143c3.52-9.76.07-20.34-7.78-26.3.3-.61.58-1.24.82-1.9,3.39-9.42-1.49-19.8-10.91-23.19-3.43-1.24-6.98-1.36-10.29-.58-.89-1.44-1.99-2.75-3.25-3.9-1.7-1.55-3.71-2.8-6.01-3.63-9.42-3.39-19.8,1.49-23.19,10.91-1.42,3.93-1.38,8.02-.19,11.71,1.13,3.47,3.28,6.59,6.25,8.85-5.22-.17-10.29,1.38-14.5,4.28-4.01,2.76-7.23,6.75-9.01,11.68-4.46,12.39,1.82,26.03,14.05,30.73.99,5.49,3.72,10.57,7.8,14.42,2.54,2.4,5.59,4.33,9.09,5.59,1.39.5,2.8.85,4.21,1.11,12.36,2.25,24.89-4.65,29.29-16.86,1.1-3.06,1.58-6.2,1.53-9.27,0-.16.01-.32,0-.48,5.43-2.51,9.89-7.1,12.08-13.17Z" style="fill: #f7e1c6;"/>
</svg>