<svg enable-background="new 0 0 128 128" viewBox="0 0 128 128" xmlns="http://www.w3.org/2000/svg" xmlns:xlink="http://www.w3.org/1999/xlink"><radialGradient id="a" cx="-828.79" cy="2533" gradientTransform="matrix(0 1 -1 0 2616.5 881.5)" gradientUnits="userSpaceOnUse" r="58.471"><stop offset=".3671" stop-color="#f5f5f5"/><stop offset=".7963" stop-color="#e0e0e0"/></radialGradient><circle cx="64.2" cy="64" fill="url(#a)" r="60"/><path d="m64.2 7c31.4 0 57 25.6 57 57s-25.6 57-57 57-57-25.6-57-57 25.5-57 57-57m0-3c-33.2 0-60 26.9-60 60s26.9 60 60 60 60-26.9 60-60-26.9-60-60-60z" fill="#424242" opacity=".2"/><path d="m26.1 17.7c-.7.6-1.5 1.2-2.2 1.9 13.6 9.5 22.6 25.8 22.6 44.1 0 18.5-9.2 34.9-23 44.4.7.7 1.4 1.3 2.2 1.9 14.2-10 23.6-27 23.6-46.3 0-19.1-9.2-35.9-23.2-46z" fill="#424242" opacity=".36"/><path d="m83.6 63.7c0-17.9 8.6-33.8 21.6-43.4-.7-.7-1.4-1.3-2.1-1.9-13.5 10.1-22.3 26.6-22.3 45.3 0 18.9 9 35.5 22.7 45.7.7-.6 1.4-1.3 2.1-1.9-13.3-9.7-22-25.7-22-43.8z" fill="#424242" opacity=".36"/><g fill="#d50000"><path d="m98.6 103.4 7-1.9c1.3-.4 1.8-2 .9-3-.5-.5-1.2-.8-1.9-.6l-8.5 2.2-4 8.1c-.3.7-.2 1.5.3 2l.2.2c.9 1 2.6.8 3.1-.5z"/><path d="m91.2 94.1 7.1-1.3c1.3-.2 2-1.8 1.2-2.9-.4-.6-1.1-.9-1.8-.8l-8.7 1.5-4.7 7.7c-.4.6-.3 1.5.1 2.1l.1.2c.8 1.1 2.5 1 3.2-.2l3.5-6.3c-.1 0-.1 0 0 0z"/><path d="m85.6 82.4 7.2-.1c1.4 0 2.2-1.5 1.7-2.7-.3-.6-1-1.1-1.7-1.1h-8.8l-5.9 6.8c-.5.6-.6 1.4-.3 2l.1.2c.6 1.2 2.3 1.4 3.1.4z"/><path d="m82.7 70.5 7 1.8c1.3.3 2.6-.8 2.3-2.2-.1-.7-.7-1.3-1.4-1.5l-8.5-2.3-7.5 5.1c-.6.4-.9 1.2-.8 1.9l.1.2c.3 1.4 1.8 2 2.9 1.2z"/><path d="m83.2 58.6 5.8 4.2c1.1.8 2.7.2 2.9-1.2.1-.7-.2-1.4-.7-1.9l-7.1-5.2-8.8 2c-.7.2-1.3.7-1.4 1.5l-.1.2c-.3 1.4 1 2.5 2.3 2.2z"/><path d="m85.2 46.2 5.4 4.7c1 .9 2.6.4 3-.9.2-.7 0-1.4-.6-1.9l-6.6-5.8-8.9 1.2c-.7.1-1.4.6-1.6 1.4v.1c-.4 1.3.8 2.6 2.1 2.4z"/><path d="m90.5 34.5 4.5 5.6c.9 1.1 2.5.9 3.1-.4.3-.6.2-1.4-.2-2l-5.5-6.9-9-.4c-.8 0-1.4.4-1.8 1.1l-.1.2c-.6 1.2.3 2.7 1.7 2.7z"/><path d="m98 25.2 2.9 6.6c.6 1.2 2.2 1.5 3.1.4.5-.5.6-1.3.3-2l-3.5-8.1-8.6-2.7c-.7-.2-1.5 0-2 .6l-.2.2c-.9 1-.4 2.7.9 3z"/><path d="m31.4 103.4-7-1.9c-1.3-.4-1.8-2-.9-3 .5-.5 1.2-.8 1.9-.6l8.5 2.2 4 8.1c.3.7.2 1.5-.3 2l-.2.2c-.9 1-2.6.8-3.1-.5z"/><path d="m38.8 94.1-7.1-1.3c-1.3-.2-2-1.8-1.2-2.9.4-.6 1.1-.9 1.8-.8l8.7 1.5 4.7 7.7c.4.6.3 1.5-.1 2.1l-.1.2c-.8 1.1-2.5 1-3.2-.2z"/><path d="m44.4 82.4-7.2-.1c-1.4 0-2.2-1.5-1.7-2.7.3-.6 1-1.1 1.7-1.1h8.8l5.9 6.8c.5.6.6 1.4.3 2l-.1.2c-.6 1.2-2.3 1.4-3.1.4z"/><path d="m47.2 70.5-7 1.8c-1.3.3-2.6-.8-2.3-2.2.1-.7.7-1.3 1.4-1.5l8.5-2.3 7.5 5.1c.6.4.9 1.2.8 1.9l-.1.3c-.3 1.4-1.8 2-2.9 1.2z"/><path d="m46.8 58.6-5.8 4.2c-1.1.8-2.7.2-2.9-1.2-.1-.7.2-1.4.7-1.9l7.1-5.2 8.8 2c.7.2 1.3.7 1.4 1.5l.1.2c.3 1.4-1 2.5-2.3 2.2z"/><path d="m44.8 46.2-5.4 4.7c-1 .9-2.7.4-3-.9-.2-.7 0-1.4.6-1.9l6.6-5.8 8.9 1.2c.7.1 1.4.6 1.6 1.4l.1.2c.4 1.3-.8 2.6-2.1 2.4z"/><path d="m39.4 34.5-4.5 5.6c-.9 1.1-2.5.9-3.1-.4-.3-.6-.2-1.4.2-2l5.5-6.9 9-.4c.8 0 1.4.4 1.8 1.1l.1.2c.6 1.2-.3 2.7-1.7 2.7z"/><path d="m32 25.2-3 6.6c-.6 1.2-2.2 1.5-3.1.4-.5-.5-.6-1.3-.3-2l3.5-8.1 8.6-2.7c.7-.2 1.5 0 2 .6l.2.2c.9 1 .4 2.7-.9 3z"/></g></svg>