<svg enable-background="new 0 0 128 128" viewBox="0 0 128 128" xmlns="http://www.w3.org/2000/svg" xmlns:xlink="http://www.w3.org/1999/xlink"><radialGradient id="a" cx="60.375" cy="60.967" gradientTransform="matrix(.9563 .2924 .2924 -.9563 -14.8792 107.3014)" gradientUnits="userSpaceOnUse" r="47.649"><stop offset=".2311" stop-color="#616161"/><stop offset=".9281" stop-color="#212121"/></radialGradient><radialGradient id="b" cx="71.6114" cy="78.309" gradientUnits="userSpaceOnUse" r="44.2305"><stop offset=".7499" stop-color="#504f4f" stop-opacity="0"/><stop offset="1" stop-color="#504f4f"/></radialGradient><linearGradient id="c" gradientUnits="userSpaceOnUse" x1="75.978" x2="101.9314" y1="53.7646" y2="-7.0725"><stop offset="0" stop-color="#616161"/><stop offset=".4885" stop-color="#333"/><stop offset="1" stop-color="#616161"/></linearGradient><linearGradient id="d"><stop offset=".3616" stop-color="#ff9100"/><stop offset=".454" stop-color="#ff8a04"/><stop offset=".5892" stop-color="#ff760f"/><stop offset=".7507" stop-color="#ff5621"/><stop offset=".9311" stop-color="#ff2a39"/><stop offset="1" stop-color="#ff1744"/></linearGradient><linearGradient id="e" gradientTransform="matrix(1 0 0 -1 0 128)" gradientUnits="userSpaceOnUse" x1="28.6633" x2="28.8303" xlink:href="#d" y1="125.3112" y2="113.9792"/><linearGradient id="f" gradientTransform="matrix(1 0 0 -1 0 128)" gradientUnits="userSpaceOnUse" x1="13.25" x2="24.47" xlink:href="#d" y1="114.175" y2="114.175"/><linearGradient id="g" gradientTransform="matrix(1 0 0 -1 0 128)" gradientUnits="userSpaceOnUse" x1="13.5201" x2="23.0201" xlink:href="#d" y1="102.6786" y2="105.3456"/><linearGradient id="h" gradientTransform="matrix(1 0 0 -1 0 128)" gradientUnits="userSpaceOnUse" x1="19.6472" x2="26.1472" xlink:href="#d" y1="91.6535" y2="100.8195"/><linearGradient id="i" gradientTransform="matrix(.7057 -.7085 -.7085 -.7057 74.854 121.7186)" gradientUnits="userSpaceOnUse" x1="29.576" x2="34.901" xlink:href="#d" y1="89.4035" y2="96.9134"/><linearGradient id="j" gradientTransform="matrix(1 0 0 -1 0 128)" gradientUnits="userSpaceOnUse" x1="34.5271" x2="41.5271" y1="113.4138" y2="121.4138"><stop offset="0" stop-color="#ff1744"/><stop offset=".0689" stop-color="#ff2a39"/><stop offset=".2493" stop-color="#ff5621"/><stop offset=".4108" stop-color="#ff760f"/><stop offset=".546" stop-color="#ff8a04"/><stop offset=".6384" stop-color="#ff9100"/></linearGradient><path d="m31.24 18.76c-.33-.34-.68-.68-1.11-.98-2.51-1.75-5.65 1.54-4.27 4.07.41.76.96 1.42 1.58 2 2.5-.53 3.88-2.48 3.8-5.09z" fill="#f44336"/><path d="m80.4 4.7c-10.18-.51-17.33 6.91-25.27 12.02-5.23 3.36-10.89 5.32-17.18 4.74-1.49-.14-3.02-.35-4.41-.92-1.04-.42-1.64-1.1-2.29-1.77.07 2.62-1.31 4.56-3.79 5.09 3.03 2.81 8.17 3.58 11.92 3.67 9.89.25 17.43-4.52 25.12-10.12 4.93-3.6 16.74-11.53 21.83-3.91 2.7 4.04-.04 13.03-4.73 14.68-3.62 1.28-2.06 7.08 1.59 5.79 6.22-2.2 9.77-9.39 10.11-15.67.42-7.93-5.18-13.21-12.9-13.6z" fill="#212121"/><path d="m80.4 4.7c-10.18-.51-17.33 6.91-25.27 12.02-5.23 3.36-10.89 5.32-17.18 4.74-1.49-.14-3.02-.35-4.41-.92-1.04-.42-1.64-1.1-2.29-1.77.07 2.62-1.31 4.56-3.79 5.09 3.03 2.81 8.17 3.58 11.92 3.67 9.89.25 17.43-4.52 25.12-10.12 4.93-3.6 16.74-11.53 21.83-3.91 2.7 4.04-.04 13.03-4.73 14.68-3.62 1.28-2.06 7.08 1.59 5.79 6.22-2.2 9.77-9.39 10.11-15.67.42-7.93-5.18-13.21-12.9-13.6z" fill="#504f4f"/><path d="m99.96 44.22-3.23-11.43c-.56-2.13-2.31-3.39-4.42-4.03l-12.69-3.88c-2.11-.64-4.26-.58-5.92.87l-9.14 7.89c-17.25 2.13-32.46 13.99-37.87 31.69-7.33 23.99 6.18 49.32 30.17 56.66 23.99 7.33 49.39-6.19 56.72-30.18 5.43-17.7-.5-36.18-13.62-47.59z" fill="url(#a)"/><path d="m99.96 44.22-3.23-11.43c-.56-2.13-2.31-3.39-4.42-4.03l-12.69-3.88c-2.11-.64-4.26-.58-5.92.87l-9.14 7.89c-17.25 2.13-32.46 13.99-37.87 31.69-7.33 23.99 6.18 49.32 30.17 56.66 23.99 7.33 49.39-6.19 56.72-30.18 5.43-17.7-.5-36.18-13.62-47.59z" fill="url(#b)"/><path d="m100.01 44.22-3.23-11.43c-.56-2.13-2.31-3.39-4.42-4.03l-12.69-3.88c-2.11-.64-4.26-.58-5.92.87l-9.14 7.89z" fill="url(#c)"/><path d="m28.67 2.67 1.66 11.31-3 .04z" fill="url(#e)"/><path d="m13.25 9.88 11.22 5.35-1.61 2.54z" fill="url(#f)"/><path d="m11.5 25.17 11.3-4.01.65 2.93z" fill="url(#g)"/><path d="m27.34 28.09-7.66 8.47 5.19-10.17z" fill="url(#h)"/><path d="m32.04 28.43.48 9.34-2.9-8.89z" fill="url(#i)"/><path d="m33.04 14.01 8.63-7.51-6.38 9.49z" fill="url(#j)"/><g fill="#f44336"><circle cx="22.94" cy="10.19" r=".94"/><circle cx="17.75" cy="19.38" r="1"/><circle cx="38" cy="17.38" r="1"/><circle cx="26.33" cy="32.92" r=".57"/><circle cx="17.38" cy="29.5" r="1"/></g></svg>