<svg xmlns:xlink="http://www.w3.org/1999/xlink" xmlns="http://www.w3.org/2000/svg" id="Layer_1" data-name="Layer 1" viewBox="0 0 204.97 48" width="204.97"  height="48" ><defs><style>.cls-1{fill:#fff;}</style></defs><title>coco-white</title><path class="cls-1" d="M205,17.44h-6.28A23.37,23.37,0,0,0,176.39,0,23.08,23.08,0,0,0,156.1,12.4h0l-.06.12-.05.09a112.22,112.22,0,0,0-4.93,10.16c-5.21,11.71-10.13,22.78-24.64,22.78A20.13,20.13,0,0,1,114,41.21V6.79a20.13,20.13,0,0,1,12.44-4.33c10.67,0,14.31,6.46,14.49,6.8a4.38,4.38,0,0,1,.65,2.33,3.7,3.7,0,1,1-7.36,0,4.6,4.6,0,0,1,.25-1.48l-2.28-.82a6.87,6.87,0,0,0-.4,2.3,6.12,6.12,0,1,0,12.22,0A6.74,6.74,0,0,0,143,8c-.18-.33-4.4-8-16.59-8a23.36,23.36,0,0,0-22.3,17.44H95.48A22.91,22.91,0,0,0,52.58,13c-1.33,2.51-2.54,5.28-3.83,8.22-5,11.41-10.59,24.33-25.55,24.33A20.13,20.13,0,0,1,10.75,41.2V6.8A20.19,20.19,0,0,1,23.2,2.46c10.67,0,14.31,6.46,14.49,6.8a4.38,4.38,0,0,1,.65,2.33,3.91,3.91,0,0,1-3.67,4.09A3.92,3.92,0,0,1,31,11.59a4.6,4.6,0,0,1,.25-1.48l-2.29-.82a7.11,7.11,0,0,0-.38,2.3,6.35,6.35,0,0,0,6.11,6.55,6.35,6.35,0,0,0,6.1-6.55,6.74,6.74,0,0,0-1-3.56c-.18-.33-4.4-8-16.59-8C10.41,0,0,10.77,0,24S10.41,48,23.2,48C38.74,48,44.94,35.91,50,24.43,50.23,37.46,60.53,48,73.18,48A23.21,23.21,0,0,0,94.43,33.65l-2.23-1a20.78,20.78,0,0,1-19,12.86,20.18,20.18,0,0,1-12.45-4.33V6.79A20.18,20.18,0,0,1,73.18,2.46,20.9,20.9,0,0,1,93,17.44H90.27A6.36,6.36,0,0,0,84.17,24a6.12,6.12,0,1,0,12.21,0A24.14,24.14,0,0,0,96,19.9h7.56a25.2,25.2,0,0,0-.36,4.1c0,13.23,10.41,24,23.2,24,16,0,21.51-12.21,26.78-24.08V24c0,13.23,10.4,24,23.2,24a23.21,23.21,0,0,0,21.25-14.35l-2.23-1a20.8,20.8,0,0,1-19,12.86,20.18,20.18,0,0,1-12.45-4.33V6.8a20.13,20.13,0,0,1,12.45-4.34,20.9,20.9,0,0,1,19.78,15h-2.7a6.35,6.35,0,0,0-6.1,6.56,6.12,6.12,0,1,0,12.2,0h0a25.2,25.2,0,0,0-.36-4.1H205ZM2.43,24A21.87,21.87,0,0,1,8.32,9V39A21.87,21.87,0,0,1,2.43,24m50,0a22,22,0,0,1,2.31-9.84c.14-.26.27-.53.41-.78A21.68,21.68,0,0,1,58.31,9V39a21.85,21.85,0,0,1-5.9-15M94,24h0a3.7,3.7,0,1,1-7.36,0,3.91,3.91,0,0,1,3.67-4.1h3.29A22.18,22.18,0,0,1,94,24m11.68,0a21.84,21.84,0,0,1,5.9-15V39a21.84,21.84,0,0,1-5.9-15m50,0a22.07,22.07,0,0,1,2.48-10.21l.08-.14A21.52,21.52,0,0,1,161.52,9V39a21.85,21.85,0,0,1-5.9-15m41.54,0h0a3.7,3.7,0,1,1-7.36,0,3.92,3.92,0,0,1,3.68-4.1h3.3a22.18,22.18,0,0,1,.39,4.1"/></svg>