<?xml version="1.0" encoding="UTF-8"?>
<svg id="Layer_1" xmlns="http://www.w3.org/2000/svg" viewBox="0 0 500 500">
  <circle cx="250" cy="250" r="242.58" style="fill: #0f0f17; stroke: #000; stroke-miterlimit: 10; stroke-width: 5px;"/>
  <path d="M439.53,237.87h-11.61c-4.94-18.82-21.84-32.02-41.29-32.25-15.78.12-30.21,8.94-37.52,22.93h0l-.11.22-.09.17c-3.35,6.11-6.39,12.38-9.12,18.79-9.63,21.65-18.73,42.12-45.56,42.12-8.34-.03-16.43-2.85-22.97-8.02v-63.65c6.55-5.17,14.65-7.99,23-8.01,19.73,0,26.46,11.95,26.79,12.57.8,1.29,1.21,2.79,1.2,4.31.39,3.76-2.34,7.12-6.09,7.51-3.76.39-7.12-2.34-7.51-6.09-.05-.47-.05-.95,0-1.42,0-.93.16-1.86.46-2.74l-4.22-1.52c-.49,1.37-.74,2.8-.74,4.25-.36,6.24,4.41,11.59,10.65,11.94,6.24.36,11.59-4.41,11.94-10.65.02-.43.02-.86,0-1.29.01-2.34-.63-4.65-1.87-6.64-.33-.61-8.14-14.79-30.68-14.79-19.43.25-36.31,13.45-41.23,32.25h-15.96c-5.59-22.72-28.54-36.6-51.26-31.01-12.29,3.03-22.59,11.39-28.07,22.8-2.46,4.64-4.7,9.76-7.08,15.2-9.25,21.1-19.58,44.99-47.24,44.99-8.36-.02-16.47-2.85-23.02-8.04v-63.61c6.56-5.18,14.67-8,23.02-8.02,19.73,0,26.46,11.95,26.79,12.57.8,1.29,1.21,2.79,1.2,4.31.19,3.95-2.84,7.32-6.79,7.56-3.95-.25-6.97-3.61-6.79-7.56,0-.93.16-1.86.46-2.74l-4.23-1.52c-.47,1.37-.7,2.81-.7,4.25-.21,6.46,4.84,11.87,11.3,12.11,6.45-.25,11.49-5.66,11.28-12.11,0-2.32-.63-4.6-1.85-6.58-.33-.61-8.14-14.79-30.68-14.79-23.65-.06-42.9,19.86-42.9,44.32s19.25,44.38,42.9,44.38c28.73,0,40.2-22.36,49.56-43.58.43,24.09,19.47,43.58,42.86,43.58,17.24-.15,32.71-10.6,39.29-26.53l-4.12-1.85c-5.88,14.26-19.71,23.62-35.13,23.78-8.35-.02-16.46-2.84-23.02-8.01v-63.59c6.55-5.16,14.64-7.98,22.98-8.01,16.97.18,31.84,11.42,36.65,27.7h-5.05c-6.45.26-11.49,5.68-11.28,12.13-.44,6.23,4.26,11.64,10.5,12.08,6.23.44,11.64-4.26,12.08-10.5.04-.53.04-1.06,0-1.58-.02-2.54-.25-5.08-.7-7.58h13.98c-.43,2.5-.65,5.04-.67,7.58,0,24.46,19.25,44.38,42.9,44.38,29.59,0,39.77-22.58,49.52-44.53v.15c0,24.46,19.23,44.38,42.9,44.38,17.24-.15,32.71-10.6,39.29-26.53l-4.12-1.85c-5.89,14.25-19.71,23.61-35.13,23.78-8.35-.02-16.46-2.84-23.02-8.01v-63.57c6.56-5.18,14.66-8.01,23.02-8.02,16.96.22,31.79,11.47,36.57,27.74h-4.99c-6.46.25-11.5,5.67-11.28,12.13-.5,6.23,4.14,11.69,10.37,12.19,6.23.5,11.69-4.14,12.19-10.37.05-.61.05-1.22,0-1.83h0c-.01-2.54-.24-5.08-.67-7.58h10.69v-4.59ZM64.96,250c-.03-10.29,3.86-20.21,10.89-27.74v55.47c-7.03-7.52-10.92-17.44-10.89-27.74M157.42,250c0-6.31,1.45-12.54,4.27-18.19.26-.48.5-.98.76-1.44,1.6-2.93,3.57-5.65,5.84-8.1v55.47c-7.04-7.52-10.94-17.44-10.91-27.74M234.28,250h0c.39,3.76-2.34,7.12-6.09,7.51-3.76.39-7.12-2.34-7.51-6.09-.05-.47-.05-.95,0-1.42-.2-3.96,2.83-7.34,6.79-7.58h6.08c.48,2.5.73,5.04.74,7.58M255.88,250c-.03-10.3,3.87-20.22,10.91-27.74v55.47c-7.04-7.52-10.94-17.44-10.91-27.74M348.33,250c-.01-6.57,1.56-13.05,4.59-18.88l.15-.26c1.63-3.12,3.67-6.01,6.06-8.6v55.47c-7.04-7.52-10.94-17.44-10.91-27.74M425.03,250h0c.39,3.76-2.34,7.12-6.09,7.51-3.76.39-7.12-2.34-7.51-6.09-.05-.47-.05-.95,0-1.42-.19-3.96,2.84-7.34,6.8-7.58h6.1c.47,2.5.72,5.04.72,7.58" style="fill: #fff;"/>
</svg>