<?xml version="1.0" encoding="UTF-8"?>
<svg id="Layer_1" xmlns="http://www.w3.org/2000/svg" viewBox="0 0 500 500">
  <circle cx="250" cy="250" r="242.58" style="fill: #0f0f17; stroke: #000; stroke-miterlimit: 10; stroke-width: 5px;"/>
  <path d="M56.39,266.47v-33.54c.24-.86.61-1.35,1.47-1.71h-10.53c.73.61,1.1,1.22,1.1,1.84v33.54c0,1.1-.49,1.84-1.71,2.33h11.75c-1.35-.61-2.08-1.47-2.08-2.45ZM91.77,233.78l.12,14.45,7.96,9.92v-24.61c0-1.1.49-1.84,1.59-2.33h-11.51c1.22.61,1.84,1.47,1.84,2.57ZM119.93,266.47v-16.28l-7.96-9.92.12,26.32c0,1.1-.49,1.84-1.71,2.33h11.63c-1.35-.49-2.08-1.35-2.08-2.45ZM99.73,267.08v-5.02l-23.14-29.14c-.12-.49.12-1.1.86-1.71h-9.55c.73.61,1.1,1.22,1.1,1.84v3.43l22.77,28.16v2.45c0,.49-.12.73-.12.86-.12.24-.49.61-1.1.86h10.16c-.61-.49-.98-1.1-.98-1.71ZM77.08,266.47v-16.28l-7.96-9.92.12,26.2c0,1.1-.49,1.84-1.71,2.33h11.63c-1.47-.37-2.08-1.22-2.08-2.33ZM392.07,233.78v14.32l7.71,10.04v-24.61c0-1.1.49-1.84,1.59-2.33h-11.39c1.47.61,2.08,1.47,2.08,2.57ZM142.58,267.08v-5.02l-23.02-29.14c-.12-.49.12-1.1.86-1.71h-9.55c.73.61,1.1,1.22,1.1,1.84v3.43l22.77,28.16v2.45c0,.49-.12.73-.12.86-.12.24-.49.61-1.1.86h10.28c-.73-.49-1.22-1.1-1.22-1.71ZM134.74,233.78l.12,14.45,7.96,9.92v-24.61c0-1.1.49-1.84,1.59-2.33h-11.63c1.22.61,1.96,1.47,1.96,2.57ZM433.94,233.78l.12,14.32,7.71,10.16v-24.73c0-1.1.49-1.84,1.59-2.33h-11.39c1.22.61,1.96,1.47,1.96,2.57ZM190.07,238.55c1.1.12,2.33.49,3.43.98,1.71.73,2.57,1.71,2.33,2.57l8.32-4.9c-.73-.12-1.35-.24-1.71-.37-.12-.12-.37-.37-.73-.73-2.82-3.06-6.73-4.9-11.75-5.14v7.59h.12ZM307.11,238.31c1.35.12,2.57.49,3.67,1.22,1.47.86,2.2,1.71,2.08,2.69l8.2-4.9c-.73-.12-1.35-.24-1.59-.37-.12-.12-.37-.24-.73-.73-2.94-3.31-6.73-5.02-11.51-5.26v7.35h-.12ZM343.84,261.57c-1.96-.12-3.31-.61-4.16-1.47s-1.35-2.2-1.35-3.8v-22.65c0-1.1.61-1.96,1.96-2.45h-11.51c1.1.49,1.71,1.35,1.71,2.33v22.89c0,4.65,1.47,8.08,4.53,10.28,1.96,1.47,5.02,2.08,8.94,2.2v-7.35h-.12ZM162.77,266.47l.12-33.54c.12-.86.61-1.35,1.47-1.71l-10.53-.12c.73.61,1.1,1.22,1.1,1.84v33.54c0,1.1-.49,1.84-1.71,2.33h11.75c-1.47-.49-2.2-1.35-2.2-2.33ZM399.9,267.08v-4.9l-22.65-29.26c-.12-.49.12-1.1.86-1.71h-9.3c.73.61,1.1,1.22,1.1,1.84v3.43l22.4,28.16v2.45c0,.49-.12.73-.12.86-.12.24-.49.61-1.1.86h10.04c-.98-.49-1.22-1.1-1.22-1.71ZM377.62,266.47v-16.16l-7.83-9.92v26.2c0,1.1-.49,1.84-1.59,2.33h11.39c-1.35-.49-1.96-1.35-1.96-2.45ZM419.37,266.47v-16.16l-7.83-9.92.12,26.2c0,1.1-.49,1.84-1.71,2.33h11.39c-1.35-.49-1.96-1.35-1.96-2.45ZM441.65,267.08v-4.9l-22.65-29.26c-.12-.49.12-1.1.86-1.71h-9.43c.73.61,1.1,1.22,1.1,1.84v3.43l22.4,28.16v2.45c0,.49-.12.73-.12.86-.12.24-.49.61-1.1.86h10.04c-.73-.49-1.1-1.1-1.1-1.71ZM351.55,233.66l-.12,22.65c0,1.47-.49,2.82-1.35,3.8-.73.86-2.08,1.35-3.92,1.47v7.22c8.69-.37,13.22-4.53,13.22-12.49v-22.77c0-1.1.49-1.84,1.71-2.33h-11.51c1.22.61,1.96,1.35,1.96,2.45ZM321.8,248.59l-16.53-.12-1.96,7.35c.49-.49.86-.61,1.35-.61h7.71c.12,2.08-.37,3.67-1.35,4.77-.73.86-2.08,1.35-3.92,1.59v7.71c4.16-.12,7.71-1.47,9.92-3.31,2.33-1.84,4.65-4.77,4.65-4.77-.86-.37-1.35-.86-1.22-1.71l-.12-9.3c.24-.73.73-1.35,1.47-1.59ZM189.22,245.53c-4.04-.86-6.12-2.33-6.12-4.04,0-1.59,1.35-2.82,4.53-3.06v-7.59c-4.28.12-7.71,1.35-9.92,3.43-2.08,2.08-3.06,4.53-3.06,7.47.12,6.37,4.28,9.92,14.2,11.63,4.16.61,6.73,2.69,6.73,4.9,0,1.1-.73,2.08-2.08,2.57-.86.37-2.08.61-3.55.73v7.83c5.14-.24,8.69-1.35,11.14-3.43,2.08-1.84,3.18-4.16,3.18-6.86.12-3.92-.98-6.73-3.06-8.69-2.08-1.96-6.12-3.55-12-4.9ZM187.63,261.57c-1.71-.12-2.94-.24-5.39-1.35-2.45-.98-3.55-2.08-3.43-3.31l-7.59,6.12c.73.12,1.35.24,1.71.37.12.12.37.24.73.73,1.35,1.47,3.43,2.82,6.12,3.8,2.33.86,4.9,1.35,7.71,1.35v-7.71h.12ZM304.66,261.69c-2.57-.24-4.53-1.59-5.88-4.04-1.35-2.2-1.96-4.77-1.96-7.83.12-3.06.73-5.63,1.96-7.83,1.47-2.08,3.31-3.31,5.51-3.67h.24v-7.47c-5.14.37-9.18,2.45-12,6.12-2.82,3.67-4.28,8.08-4.28,12.98,0,5.51,1.22,10.04,3.67,13.47,2.57,3.67,6.86,5.63,12.61,6v-7.71h.12ZM445.94,234.27c0,1.96,1.59,3.67,3.67,3.67s3.67-1.59,3.67-3.67-1.71-3.67-3.67-3.67-3.67,1.59-3.67,3.67ZM446.67,234.27c0-1.59,1.35-2.94,2.94-2.94s2.94,1.35,2.94,2.94-1.35,2.94-2.94,2.94c-1.59-.12-2.94-1.35-2.94-2.94ZM448.38,235.86c0,.12.12.24.24.24h.37c.12,0,.24-.12.24-.24v-1.1h.61l.49,1.22c0,.12.12.12.12.12h.49c.12,0,.24-.12.12-.24-.12-.37-.37-.73-.49-1.1.24-.12.73-.37.73-1.1s-.61-1.22-1.22-1.22h-1.47c-.12,0-.24.12-.24.24v3.18ZM449,234.02v-.98h.86c.24,0,.49.24.49.49s-.24.49-.49.49h-.86Z" style="fill: #fff;"/>
  <path d="M244.52,265.36v11.26c-5.39-.49-9.43-2.45-12.36-5.63-2.08-2.2-3.55-5.02-4.28-7.96,0,0,0-.12-.12-.12-.73-2.33-1.1-5.63.12-9.3v-.12c1.1-4.53,4.04-8.08,8.45-10.28-2.33-1.47-5.75-5.39-4.53-11.14.73-3.67,4.9-8.32,10.77-7.83,2.08.12,3.8.61,5.14,1.22.24.12,1.47.73,2.45.37,1.22-.24,2.2-2.45,2.2-2.45h.12l1.22,14.08h-4.28c-.37-2.2-2.08-4.9-4.65-4.77-1.47.12-3.18,1.35-3.18,3.06-.12,2.33,2.08,3.8,6.73,3.92h2.82l-2.08,9.06s-.12,0-1.1-.12c-5.63-.24-9.3,3.31-9.55,7.71-.12,3.43,1.1,7.71,6.12,9.06ZM272.92,250.06h-.12s-1.59,1.71-3.67,1.71h-20.57l-2.57,10.65h.12s1.47-1.71,3.55-1.71h4.65c-1.1,3.06-4.04,4.53-6.98,4.65v11.26c9.79-.49,17.02-7.47,17.63-16.04h5.51l2.45-10.53Z" style="fill: #fff;"/>
</svg>