<?xml version="1.0" encoding="UTF-8"?>
<svg id="Layer_1" xmlns="http://www.w3.org/2000/svg" viewBox="0 0 500 500">
  <circle cx="250" cy="250" r="242.58" style="fill: #0f0f17; stroke: #000; stroke-miterlimit: 10; stroke-width: 5px;"/>
  <g>
    <g>
      <path d="M369.53,275.45l-.36-135.62h9.67l35.23,35.37v184.97H121.42l-35.48-35.91v-48.79l283.6-.03Z" style="fill: #f58040; fill-rule: evenodd;"/>
      <path d="M134.63,139.83l35.93,36.64h-41.68v-36.64h5.76Z" style="fill: #f58040; fill-rule: evenodd;"/>
      <path d="M86.14,139.91h48.49v22.68s11.05,11.05,11.05,11.05h173.77l10.43-10.43.02-23.31h48.96v184.61h-48.99v-22.53s-12.06-12.06-12.06-12.06h-172.1l-11.09,11.09-.13,23.51h-48.35v-184.61Z" style="fill: #08519b; fill-rule: evenodd;"/>
    </g>
    <g>
      <path d="M101.21,188.65l-.08,87.26h14.77s.08-87.25.08-87.25h-14.77Z" style="fill: #fff;"/>
      <path d="M125.72,188.67l-.08,87.27h13.66s.03-37.65.03-37.65h4.64c1.52,0,2.76,1.22,2.75,2.71l-.03,34.96h13.15s0-38.41,0-38.41l-5.18-5.13,5.18-5.18v-32.94l-5.62-5.62-28.52-.02ZM139.37,199.7h4.64c1.52,0,2.77,1.22,2.76,2.72l-.02,22.69c0,1.5-1.25,2.87-2.76,2.87h-4.64l.02-28.29Z" style="fill: #fff;"/>
      <path d="M194.02,188.72l-.04,45.4-9.61-45.41h-14.33s-.08,87.25-.08,87.25h13.62s.04-42.55.04-42.55l8.22,42.57h15.39s.08-87.25.08-87.25h-13.29Z" style="fill: #fff;"/>
      <path d="M241.93,188.65l-.09,87.37,28.38.03,5.4-5.19v-31.63s-6.1-6.07-6.1-6.07l6.01-6.06.03-31.57-6.86-6.85-26.77-.04ZM254.94,199.57h4.64c1.52,0,2.74,1.22,2.74,2.72l-.02,22.88c0,1.49-1.22,2.87-2.74,2.87h-4.64l.02-28.47ZM254.75,238.21h4.63c1.53,0,2.76,1.21,2.75,2.7l-.02,21.68c0,1.5-1.23,2.71-2.75,2.7h-4.64l.03-27.08Z" style="fill: #fff;"/>
      <path d="M284.68,188.68l-.08,87.38h13.66s.03-37.87.03-37.87h4.63c1.52,0,2.75,1.22,2.75,2.71l-.03,35.17h13.83s-.04-36.64-.04-36.64l-6.3-6.3,6.3-6.3v-31.67l-5.95-5.95-28.82-.55ZM298.34,199.59h4.64c1.52,0,2.76,1.22,2.75,2.72l-.02,22.8c0,1.5-1.24,2.87-2.76,2.87h-4.63l.02-28.4Z" style="fill: #fff;"/>
      <path d="M354.76,276.12l8.34-8.54.1-79.5h-13.37s-.07,74.68-.07,74.68c0,1.5-2.12,2.71-3.65,2.71-1.52,0-3.64-1.21-3.64-2.72l.07-74.03h-13.71s-.07,79.08-.07,79.08l8.35,8.31h17.65Z" style="fill: #fff;"/>
      <path d="M220.4,243.96c-1.95,0-3.54,1.59-3.55,3.54,0,1.95,1.59,3.55,3.54,3.55,1.95,0,3.55-1.59,3.55-3.54,0-1.95-1.59-3.55-3.54-3.55M220.4,250.63c-1.72,0-3.12-1.4-3.12-3.13,0-1.72,1.4-3.12,3.12-3.12,1.73,0,3.12,1.4,3.12,3.12,0,1.73-1.4,3.13-3.13,3.12M221.89,249.06l-.06-.35c-.08-.46-.09-.49-.17-.68-.12-.27-.3-.38-.67-.44.58-.11.89-.48.89-1.05,0-.73-.51-1.15-1.38-1.15h-1.46s0,4.15,0,4.15h.56s0-1.73,0-1.73h.72c.37,0,.57.06.72.23.12.13.17.27.22.66.06.42.1.62.16.84h.6s-.04-.08-.04-.1c-.03-.07-.06-.19-.09-.38M219.59,247.35v-1.5s.77,0,.77,0c.63,0,.94.24.94.73,0,.49-.33.77-.94.77h-.76Z" style="fill: #fff;"/>
    </g>
    <g>
      <path d="M208.24,246.1l38.47-10.7.08-.12-16.51-18.41-37.08,8.92,15.04,20.3Z" style="fill: #010101;"/>
      <path d="M194.19,223.01l14.46,19.62,38.7-10.64.08-1.25-16.15-17.83-37.08,8.93v1.18Z" style="fill: #ee3425;"/>
      <path d="M199.24,225.32c1.16.54,1.51,1.16,2.41,2.39l6.4,8.7c.69.96.76,1.1.99,2.01l2.42-.62c2.22-.62,4.28-2,2.25-5.18-1.16-1.8-2.94-2.65-4.34-2.67.42-1.05.28-2.13-.84-3.48-2.22-2.66-4.39-2.42-5.82-2.03l-3.47.88ZM232.56,225.01c6.36,4.25,7.18,4.96,7.71,4.82l2.42-.67c-2.82-1.58-6.12-3.47-8.26-5.25.44-.88.1-2.62-1.23-3.93-1.75-1.73-3.84-2.41-6.33-1.73l-2.63.67c.97.41,1.3.91,2.48,2.29l6.4,7.63c.83,1.09,1.24,1.95,1.38,2.56l3.07-.85c-.64-.39-1.14-1.05-2.15-2.18l-2.87-3.37ZM224.05,227.28c6.43,4.29,7.27,5.01,7.79,4.87l2.45-.67c-2.86-1.6-6.2-3.5-8.35-5.31.44-.88.1-2.65-1.26-3.98-1.77-1.74-3.88-2.43-6.39-1.74l-2.66.69c.98.41,1.33.92,2.52,2.3l6.47,7.71c.84,1.09,1.25,1.96,1.38,2.58l3.12-.85c-.65-.41-1.15-1.06-2.18-2.21l-2.9-3.4ZM216.76,232.14l2.77-.72,1.47,1.48c.91.94,1.26,1.29,1.47,1.82l2.97-.8c-.76-.39-1.29-1.01-2.36-2.01l-10.61-9.95-2.45.62,5.05,10.69c.37.94.87,2.17,1.01,3.2l2.73-.77c-.24-.22-.56-.47-1.2-1.8l-.83-1.76Z" style="fill: #010101;"/>
      <path d="M210.91,234.71l-3.32-4.38c1.02-.44,3.04-.16,4.28,1.49,1.5,1.99.59,2.75-.95,2.89M206.72,229.23l-3.17-4.02c.9-.45,2.35-.53,3.71,1.28.93,1.24.73,2.42-.54,2.75M199.73,224.16c1.15.54,1.5,1.15,2.41,2.38l6.38,8.71c.7.96.77,1.1.99,2.01l2.42-.62c2.22-.61,4.29-2,2.24-5.18-1.16-1.8-2.93-2.64-4.34-2.66.41-1.07.28-2.14-.84-3.49-2.21-2.66-4.38-2.41-5.82-2.04l-3.45.88ZM232.3,222.92l-3.73-4.23c.98-.29,2.08-.28,3.6,1.42.94,1.05,1.13,2.24.13,2.81M233.05,223.85c6.36,4.25,7.19,4.96,7.71,4.83l2.42-.67c-2.83-1.58-6.12-3.46-8.24-5.25.43-.88.09-2.63-1.24-3.94-1.75-1.73-3.84-2.42-6.32-1.73l-2.64.69c.95.41,1.3.91,2.49,2.27l6.39,7.65c.83,1.08,1.24,1.93,1.38,2.55l3.06-.84c-.63-.39-1.13-1.04-2.15-2.19l-2.87-3.37ZM223.79,225.17l-3.76-4.27c.98-.29,2.09-.28,3.63,1.43.95,1.07,1.15,2.26.13,2.84M224.54,226.12c6.42,4.3,7.27,5.01,7.79,4.88l2.45-.67c-2.86-1.6-6.2-3.5-8.34-5.31.43-.88.09-2.64-1.26-3.98-1.76-1.74-3.88-2.43-6.39-1.73l-2.65.68c.97.41,1.31.92,2.51,2.31l6.47,7.71c.84,1.09,1.25,1.96,1.39,2.58l3.1-.85c-.65-.4-1.16-1.06-2.18-2.2l-2.89-3.41ZM216.28,229.06l-2.46-5.02,4.43,4.44-1.97.58ZM217.25,230.98l2.77-.73,1.48,1.48c.9.93,1.25,1.29,1.46,1.83l2.95-.81c-.75-.39-1.28-1.01-2.36-2.01l-10.6-9.95-2.45.62,5.03,10.7c.38.94.87,2.16,1.02,3.2l2.74-.78c-.24-.23-.56-.47-1.21-1.8l-.83-1.76Z" style="fill: #fff;"/>
    </g>
  </g>
</svg>