<?xml version="1.0" encoding="UTF-8"?>
<svg id="Layer_1" xmlns="http://www.w3.org/2000/svg" viewBox="0 0 500 500">
  <circle cx="250" cy="250" r="242.58" style="fill: #0f0f17; stroke: #000; stroke-miterlimit: 10; stroke-width: 5px;"/>
  <g>
    <path d="M165.45,217.11c-.66,1.1-1.99,1.32-3.09.66s-1.32-2.21-.66-3.09c.66-1.1,1.99-1.32,3.09-.66s1.32,1.99.66,3.09M338.31,217.11c-.66,1.1-1.99,1.32-3.09.66s-1.32-2.21-.66-3.09c.66-1.1,2.21-1.32,3.09-.66,1.1.66,1.32,1.99.66,3.09M183.11,208.5c-.88-2.87-3.53-4.19-6.18-3.31s-3.97,3.53-3.09,6.4c.88,2.87,3.53,4.19,6.18,3.31,2.65-1.1,3.97-3.75,3.09-6.4M170.75,212.69c-1.55-4.19.88-8.61,5.08-10.16s8.83.66,10.38,4.86-.88,8.83-5.3,10.16c-4.19,1.55-8.83-.66-10.16-4.86M187.52,199.22l9.71-2.65.66,2.87-6.62,1.77.88,3.53,5.52-1.32.66,2.65-5.52,1.55,1.55,5.52-3.09.88-3.75-14.79ZM207.83,206.95l1.77-1.99c1.1,1.1,2.21,1.99,3.97,1.55,1.32-.22,1.99-.88,1.77-1.99s-.88-1.1-2.21-1.55l-1.77-.44c-2.21-.66-3.97-1.55-4.42-3.75-.44-2.65,1.55-4.64,4.42-5.08,2.43-.44,4.42.44,5.52,1.99l-1.77,1.99c-.88-.88-1.99-1.55-3.09-1.32-1.1.22-1.77.88-1.55,1.77.22.88.88,1.1,1.99,1.55l1.77.44c2.65.66,4.19,1.77,4.42,3.75.44,2.87-1.55,4.86-4.64,5.52-2.43.22-4.86-.66-6.18-2.43M220.64,200.11c-.44-4.42,2.87-8.17,7.51-8.61,2.87-.22,5.52.88,7.06,3.09l-2.21,1.99c-1.1-1.55-2.65-2.43-4.64-2.21-2.87.22-4.86,2.43-4.42,5.52.22,2.87,2.65,4.86,5.52,4.64,1.99-.22,3.31-1.32,4.19-3.09l2.43,1.32c-1.1,2.43-3.53,4.19-6.4,4.42-4.64.66-8.61-2.43-9.05-7.06M250.88,198.34c0-2.87-2.21-5.08-5.08-4.86-2.87,0-4.86,2.21-4.86,5.08,0,3.09,2.21,5.08,5.08,5.08,2.87-.22,5.08-2.21,4.86-5.3M237.86,198.56c0-4.42,3.53-7.95,7.95-8.17,4.42,0,8.17,3.31,8.39,7.73,0,4.42-3.53,7.95-8.17,8.17-4.42.22-8.17-3.09-8.17-7.73M260.82,193.93l-4.86-.22.22-2.87,13.03.66-.22,2.87-4.86-.22-.88,12.36h-3.09l.66-12.58ZM272.08,191.94l3.31.22-1.55,12.58,6.62.66-.22,2.87-9.93-1.1,1.77-15.23ZM290.18,200.11l-2.87,4.64,3.97.66s-1.1-5.3-1.1-5.3ZM291.95,208.28l-6.18-1.1-1.1,1.77-3.31-.66,9.49-14.13,1.1.22,3.97,16.56-3.31-.66-.66-1.99ZM314.24,200.11l-3.97,15.01-.88-.22-6.18-11.48-2.43,8.83-3.09-.66,3.97-15.23,1.1.44,6.18,11.26,2.21-8.83,3.09.88ZM319.32,214.9c2.87,1.1,5.52,0,6.4-2.87,1.1-2.87-.44-5.3-3.31-6.18l-1.77-.66-3.31,9.05,1.99.66ZM318.88,201.43l4.86,1.77c4.64,1.55,6.84,5.52,5.3,9.93-1.55,4.19-5.74,6.18-10.38,4.42l-4.86-1.77,5.08-14.35ZM206.95,135.42c-4.64,5.74-4.86,14.79-4.19,20.97.88,6.62,3.97,16.12,12.58,19.87l.44.66c-9.05-2.43-15.23-9.93-16.56-20.53-1.1-8.39,1.55-15.67,7.06-20.75M242.71,159.93c-3.31,7.95-11.26,15.67-16.56,16.34-7.29.88-13.25-5.96-15.01-21.41-1.77-15.45,1.77-23.62,9.27-24.5,5.52-.66,11.48,2.43,18.54,12.36l.44-.22-2.21-13.91c-2.21-1.1-8.39-2.21-17.22-1.1-15.67,1.99-25.61,13.03-23.84,28.92,1.99,15.89,14.35,24.28,30.02,22.52,12.58-1.55,16.78-5.08,16.78-5.08l-.22-13.91ZM261.26,137.85l-2.65,29.36c-.44,3.97,0,5.3,1.1,8.83l-6.62-.66c1.77-3.09,1.77-4.19,2.21-8.61l2.65-29.36c.44-3.97.44-5.08-.66-8.39l6.62.66c-1.55,3.09-2.21,3.97-2.65,8.17M266.34,168.1l2.65-29.36c.44-6.18,2.21-9.27,4.42-9.71v-.44l-20.75-1.99v.44c1.99.88,2.87,4.19,2.43,10.38l-2.65,29.36c-.44,6.18-2.21,9.27-4.19,9.93v.22l20.75,1.99v-.44c-2.43-.88-3.31-4.19-2.65-10.38" style="fill: #fff;"/>
    <path d="M282.56,173.4c1.77,3.09,3.31,4.42,5.08,5.52l-6.62-.66-11.7-20.97,2.43-1.99,10.82,18.1ZM284.11,130.79c3.97,1.32,4.86,6.84,0,10.6l-18.76,14.79v.22l13.69,24.28,19.43,2.21v-.44c-2.21-1.1-3.31-2.43-6.18-7.29l-14.35-24.5,11.26-8.83c5.3-4.19,12.36-7.95,14.79-8.83l-3.75-.66-16.34-1.99s.22.44.22.44ZM314.57,175.82c-.88,3.09-1.32,5.96-.66,8.61l-6.62-1.99c1.77-1.77,2.87-4.64,3.97-7.73l8.17-28.26c.88-2.87,1.32-5.96.66-8.39l6.4,1.77c-1.99,2.43-2.65,3.75-3.75,7.51,0,0-8.17,28.48-8.17,28.48ZM321.86,178.03l8.17-28.26c1.77-5.96,3.75-8.83,5.96-8.83v-.22l-19.87-5.74v.22c1.77,1.32,1.99,4.86.44,10.6l-8.17,28.26c-1.77,5.96-3.75,8.83-5.96,8.83v.22l20.09,5.74v-.22c-2.21-1.1-2.43-4.64-.66-10.6M337.53,192.6l-4.64-1.99c1.99-1.55,2.87-3.31,4.19-6.4l11.7-26.05c1.32-2.87,2.21-5.52,1.77-8.17l4.64,1.99-17.66,40.62h0ZM347.47,144.92l-.22.22c1.55,1.55,1.32,5.08-1.1,10.6l-11.92,26.93c-2.43,5.52-5.08,8.17-7.06,7.95l-.22.22,36.87,16.34,7.29-12.58-.22-.22c-6.18,3.97-14.57,5.74-18.76,3.75l-7.29-3.31,8.39-19.65,5.74,2.65c4.64,2.21,6.62,5.52,6.4,9.93l.22.22,5.96-13.47-.22-.22c-2.87,2.65-6.18,2.87-11.04.66l-5.74-2.65,7.51-17.66,5.08,2.21c5.96,2.65,9.05,7.95,9.27,16.34h.44l5.3-13.47-34.66-14.79h0ZM392.72,172.95c-1.77-.88-2.87-3.09-1.77-5.08,1.32-2.21,3.75-2.65,6.18-1.32-.88.22-2.43,1.32-3.31,2.87-.66,1.32-1.1,2.87-1.1,3.53M399.35,174.94c2.21-3.97,1.55-7.73-1.55-9.71-3.31-1.99-6.84-1.32-8.61,1.77-1.55,2.65-.44,5.74,2.21,7.29.44.22,1.1.44,1.77.88v.22c-.88,1.77-3.75,5.08-7.73,5.74v.44c5.08.44,11.04-1.77,13.91-6.62M404.42,189.95c-8.17,10.16,11.26,25.83,3.31,35.98-2.65,3.53-6.62,3.97-9.93,2.43,2.21.44,4.86-.88,6.18-2.65,8.61-11.04-11.92-24.5-2.21-37.09,3.31-4.19,9.27-5.52,14.35-4.19-3.31-.22-8.39,1.1-11.7,5.52M423.19,186.42c-8.61-6.84-19.43-6.18-24.73.66-10.82,13.69,10.16,27.15,2.21,37.31-2.43,3.31-6.18,2.21-10.16-1.1-4.64-3.53-6.62-8.39-1.99-21.41l-.22-.44-11.48,9.93c1.99,4.42,7.95,11.04,11.92,14.35,10.38,8.17,20.31,9.27,26.05,1.99,11.26-14.35-11.04-28.92-2.65-39.52,2.21-2.65,5.52-2.65,9.27,0,4.64,3.75,4.42,11.04,1.1,19.87l.22.22,10.38-8.83c-1.77-3.97-4.64-8.83-9.93-13.03M180.35,184.65c.88-3.09-1.1-6.62-3.53-9.71l-17.66-21.41.44-4.42,21.19,25.39c3.31,3.97,5.74,6.18,7.51,7.51l-7.95,2.65h0ZM157.83,174.06l1.32-16.56,9.71,12.14-11.04,4.42ZM152.09,183.11v1.1c-.44,6.18-2.43,12.14-4.42,13.47v.22l15.01-5.08v-.22c-1.55.22-2.87,0-4.42-.88-1.55-1.55-1.77-4.19-1.77-4.19l.66-9.27,13.91-5.74,3.75,4.42c4.42,5.3,4.19,9.05,1.77,11.04v.22l22.96-7.73v-.22c-1.99,0-3.97-.88-10.16-8.17l-27.37-32.01-7.29,2.43-2.65,40.62ZM131.56,204.08c-.44-3.31-1.1-4.19-3.09-7.73l-14.35-23.18-1.1-7.06,17.44,28.26c1.99,3.31,3.09,4.86,5.74,6.84,0,0-4.64,2.87-4.64,2.87ZM81.23,192.82l-2.87-5.08,35.32,23.62.22,3.75-32.67-22.3ZM134.87,193.48l-15.01-25.39c-3.31-5.74-3.75-8.83-2.43-10.38l-.22-.22-8.17,5.08,3.97,38.19-31.57-21.86-14.57,8.61.22.22c1.77-.22,3.75.22,5.96,1.32l21.41,37.53c-.22,1.32-.88,2.65-1.77,3.75l.22.22,11.04-6.62-.22-.22c-1.55.22-3.53.44-4.86-.66l-15.45-26.05,30.69,20.97,4.42-2.43-4.42-37.09,12.14,20.31c3.09,5.3,3.75,8.83,2.21,10.38l.22.22,14.35-8.83,2.43-1.55c-1.99.66-7.51-.22-10.6-5.52M302.87,332.79q0,.22,0,0c.22-.22.22-.44.22-.66h-.22v.66M264.68,272.74q.22,0,0,0c0-.44-.22-.44-.44-.66,0,.44,0,.88.44.66M269.76,264.57c-.66,0-1.1.44-1.55.66.22.66.66.88.88.66.44-.44.66-.66.66-1.32M184.54,247.35c0-.44-.22-.66-.66-.66s-.66.22-.66.66.22.66.66.66c.22,0,.66-.44.66-.66M233.55,356.63c-.44,0-.66-.22-1.1-.22-.22,0-.44,0-.66.22-.44.44-.88,1.1-1.32,1.55,1.32,0,2.21-.66,3.09-1.55M274.39,365.9c0,1.32.44,2.43,1.1,3.53.44-1.32,0-2.65-1.1-3.53M223.84,346.69c-.88,0-3.09.66-3.53,1.1h2.21c.66,0,1.1-.44,1.32-1.1M220.75,353.1c-1.77.44-2.87,1.32-2.87,2.87.88-.88,2.21-1.32,2.87-2.87M173.51,318.66c1.1-.44,1.32-2.65.44-4.19-.22,1.55-.66,2.87-.44,4.19M218.1,363.25l3.31-1.32c.44-.22.88-.44,1.32-1.1-1.77.66-3.53.66-4.64,2.43M235.1,357.51c-.88.88-2.21,1.32-3.53,2.21h1.1c1.99.22,2.21-.44,2.43-2.21q0,.22,0,0M154.96,355.75c-1.32-2.21-3.09-3.75-5.74-4.42,2.21,1.32,3.97,2.65,5.74,4.42M282.56,363.91c.66-2.21.66-3.97-.66-5.08.22,1.77-.44,3.31.66,5.08M221.41,343.16c-.88,1.32-2.43,2.21-3.31,3.75,2.43-.44,3.75-1.99,3.31-3.75M208.83,345.59c1.55-1.1,2.43-2.65,3.75-3.75-.88.22-1.77.44-2.43,1.1-.44.44-.88,1.1-1.32,1.55,0,.22-.22.66,0,1.1M210.37,350.67c.22-.44.44-.88.66-1.1.88-.88,1.32-2.21,1.55-3.53-1.55.66-2.87,3.09-2.21,4.64M182.34,333.23c.88-.44,3.09-3.75,3.31-4.64-1.77.44-2.65,1.77-3.31,4.64M298.02,348.9c-.22,2.87,1.32,5.3,3.53,5.3-.66-.88-1.32-1.55-1.99-2.43s-1.1-1.77-1.55-2.87M251.66,270.97c-1.1-1.55-2.65-1.99-3.75-3.09-.44.22-.66.44-1.1.66.88,1.1,2.43,1.99,4.86,2.43M230.24,364.36c1.99.88,3.97,0,4.64-2.65-1.1.22-1.99.44-2.65,1.1-.44.66-.88,1.32-1.99,1.55M237.09,340.07c.22,2.21.22,4.19.44,6.4,1.55-1.77,1.32-4.64-.44-6.4M180.35,333.45c.66-.44,1.32-1.1,1.77-1.99.22-.44.22-.88,0-1.32-.44-.88-.66-1.77-.88-2.65,0-.22-.22-.44-.22-.66-.22,1.1-.22,1.99-.22,2.87-.22,1.1,0,2.43-.44,3.75M211.48,359.28c-.88.66-1.77,1.1-2.43,1.77-.44.44-.66.88-1.1,1.32-.22.44-.44.88-.66,1.1,1.1-.22,2.21-.66,3.09-1.55.88-.66,1.32-1.55,1.1-2.65M301.33,340.29c-.22,1.1-.22,1.77-.44,2.65l3.97.66c-.66-1.55-1.99-2.21-3.53-3.31M221.41,356.63c-1.1.44-1.99.88-2.87,1.55-1.1.66-1.55,1.77-1.77,3.09.66-.44,1.32-1.1,2.21-1.32,1.1-.88,1.77-1.99,2.43-3.31M172.18,323.29s0,.22,0,0v1.1c0,2.21.22,4.42-.66,6.4,1.1-.66,1.77-1.55,1.99-2.65.22-1.77-.44-3.31-1.32-4.86M165.12,350.67q-.22,0,0,0c-.22.22-.22.44-.44.66-.66,2.43,0,4.64.44,7.29,1.32-2.65.88-5.3,0-7.95M309.27,345.59c-.66,0-1.32.22-1.99.44-.66.44-1.32.88-1.55,1.77-.22,1.32-.22,2.43-.22,3.97.22-.22.22-.44.22-.66.44-1.32,1.1-2.43,1.99-3.31.22-.22.44-.66.66-.88.66-.22.88-.88.88-1.32M165.56,344.93c-2.87,2.65-5.08,8.61-4.42,11.7v-.44c.44-2.87,1.55-5.52,3.31-7.73.22-.44.44-.66.88-1.1.22-.88.44-1.55.22-2.43M205.3,337.86c2.21-2.21,3.75-4.64,3.75-6.62-2.43,1.32-3.97,3.75-3.75,6.62M303.54,354.64c.22-.88,0-1.77,0-2.65-.44-1.99-1.32-3.75-3.09-4.86-.22,0-.22-.22-.44-.22.44,1.1.88,2.21,1.1,3.31.44,1.55,1.32,3.09,2.43,4.42M191.83,325.72v.66c.22.66.22,1.55.44,2.21.88,2.43,1.77,4.86,2.65,7.51,0-.22.22-.44.22-.66v-2.65c0-1.32-.44-2.43-1.1-3.53-.44-.66-.66-1.32-1.1-2.21-.66-.44-.88-.88-1.1-1.32M222.96,351.99q0-.22-.22-.44c-1.32-1.99-2.87-3.09-5.3-3.09-.66,0-.88.22-1.1.44-.22.44,0,.88.66,1.1.44.22.66.44,1.1.44,1.55.44,2.87.88,4.42,1.1,0,.44.22.44.44.44M159.38,335.21c.22,1.99.44,3.75,1.1,5.52.22.66.66,1.32,1.1,1.99s1.32,1.1,2.21,1.1v-.66c-.44-1.32-1.1-2.43-1.99-3.53-.88-.88-1.32-1.99-1.99-2.87,0-.44-.22-.88-.44-1.55M199.56,359.72q.22.22,0,0c1.99-.22,3.97-.44,5.96-.88,1.77-.44,3.09-1.32,3.97-3.09q0-.22.22-.66c-1.77,1.32-3.53,1.77-5.52,2.21-1.55.44-3.09,1.32-4.64,2.43M187.86,336.98c-1.77.44-3.53,1.1-4.64,2.65-1.1,1.1-2.21,2.21-3.53,2.87-.22,0-.44.22-.66.44h.44c1.32-.44,2.87-.88,4.19-1.55,1.99-.66,3.31-2.21,4.19-4.42M345.48,346.92c-.22,1.77-.44,3.31,0,4.86.22,1.55.88,2.87,1.77,3.97,0,.22.22.22.66.44-.22-2.21-.44-4.19-.66-6.4-.22-.88-.88-1.77-1.77-2.87M265.78,296.8q.22.44.66.66c2.21,1.1,4.64,1.77,7.06,1.99,1.99.22,3.97.22,6.18-.22.66,0,1.1-.22,1.77-.88-2.87.22-5.52.22-7.95,0-2.43-.44-5.08-.88-7.73-1.55M205.3,270.75c-.44-.44-1.1-.44-1.55-.22-.88.44-1.77.88-2.65.88-1.55.22-3.31.66-4.64-.88-.22-.22-.44-.22-.66,0s-.22.44,0,.66c1.32,1.1,2.65,1.99,4.19,1.99,1.1,0,2.21-.22,3.09-.44,1.32,0,1.99-.66,2.21-1.99M150.1,345.15c1.99,3.75,4.19,7.06,7.51,9.71.22-.88,0-1.32-.44-2.21-.88-1.55-1.99-3.09-3.31-4.19s-2.43-2.21-3.75-3.31M295.15,352.43c-4.42,1.1-8.61.66-13.03.22.22.44.66.88,1.1.88,0,.22.22.66.22,1.1.22-.44.22-.66.44-.88.44.44,0,.88.44,1.32,0-.44,0-.88.22-1.32h.22v1.55c.22,0,.22-.22.22-.44v-.88l.22-.22.22.22v.44c0,.22-.22.44.22.66.44-.44-.22-1.1.44-1.32.22.44,0,1.1.22,1.55.44-.44,0-1.1.44-1.55.22.88,0,1.55.22,2.43.44-.88,0-1.55.22-2.43.44.66,0,1.32.44,1.99.44-.66,0-1.32.44-1.99v1.77h.22v-1.1c0-.22,0-.66.44-.66s.22.22.22.66v.66c.44-.44,0-.88.44-1.32h.66c0,.44,0,.88.22,1.1h.22v-.88c0-.44,0-.66.44-.44,0,.44.22.66.22,1.1.66-.22.22-.88.66-1.32.22.22.22.44.44.66,0-.44.22-.66.22-1.1h.22l.22.66h.22c0-.22.22-.44.22-.88q.22,0,.44.22c.88.22,1.1,0,1.32-.44M156.07,339.63q-.22.22,0,0c.88,1.77,1.99,3.53,2.87,5.3.88,1.32,1.55,2.65,1.77,4.42q0,.22.22.44c.44-1.99.66-3.75-.22-5.52-.88-2.21-2.65-3.31-4.64-4.64M237.09,351.99c-.44-.88-.88-1.1-1.77-1.32-2.21-.44-4.19-.22-6.4.44v1.77c1.99.22,6.84-.22,8.17-.88M203.31,328.59c-1.32,2.43-2.21,9.27-1.32,11.04,2.21-3.09,2.65-7.06,1.32-11.04M200.44,332.34c.44-.88.44-1.55.44-2.21-.22-1.32-.44-2.65-1.32-3.75l-2.65-3.31-.44-.44v.22c.66,1.99,1.1,3.75,1.77,5.52.22,1.55.88,2.87,2.21,3.97M152.53,341.62c.88,1.77,1.77,3.53,3.31,5.08,1.77,1.77,3.09,3.75,3.97,6.18,0,0,0,.22.22.22,0-3.53-1.55-6.62-4.19-9.05-1.1-.88-2.21-1.77-3.31-2.43M173.28,345.59c-.44.22-.88.22-1.32.44-1.55.66-2.87,1.32-3.97,2.43-1.1.88-1.77,1.99-1.77,3.31,0,1.1.22,2.65.66,3.31.44-1.99,1.1-3.53,2.43-5.3,1.32-1.32,2.65-2.65,3.97-4.19M234.22,307.84v-.22c-.22-.22-.44-.44-.66-.44-.44-.22-1.1-.44-1.55-.44l-3.31-.66c-2.21-.44-4.19-1.1-6.18-2.21-.88-.44-1.77-.66-2.65-1.1h-.66c.22.44.44.66.66.88,1.77,1.32,3.53,2.21,5.52,2.87,2.65.88,5.52,1.1,8.39,1.55q.22-.22.44-.22M307.95,357.73c.22-2.21,1.1-3.97,2.21-5.74s1.99-3.97,2.43-5.96v-.22c-.22.22-.22.44-.44.66-.88,1.32-1.77,2.65-3.09,3.75-1.77,1.55-2.21,3.53-1.77,5.74.22.44.44,1.1.66,1.77M335.1,334.11c-.22.22-.22.66-.22.88,0,2.21-.44,4.19-1.1,6.18-.88,2.65-1.55,5.3-1.99,8.17v1.55c.22,0,.22-.22.22-.44.88-2.21,1.77-4.42,2.65-6.84.44-.88.66-1.77.88-2.87.44-1.77.22-3.53,0-5.3-.22-.44-.22-.88-.44-1.32M176.82,336.1c-1.77,1.32-3.97,2.21-5.96,3.09-.66.22-1.32.66-1.77,1.1-.88.66-1.55,1.32-1.99,2.21-.22.22-.22.66-.22,1.1.44,0,.66,0,.88-.22,1.1-.22,2.21-.66,3.09-1.32,2.21-1.77,3.97-3.75,5.96-5.96M211.26,334.77c-.22,0-.44.22-.44.22-1.32.88-2.43,1.99-3.53,3.09-.44.44-.66,1.1-1.1,1.77-.66,1.32-1.1,2.87-1.77,4.19,0,.22,0,.44-.22.44,1.32-1.1,2.65-2.21,3.97-3.53s2.21-2.87,2.65-4.64c.22-.22.44-.88.44-1.55M187.86,326.83q-.22,0,0,0v.44c.88,2.21,1.77,4.64,2.65,6.84.66,1.77,1.55,3.31,2.65,4.64,0,.22.22.22.44.44-.44-1.77-.66-3.31-.88-5.08-.22-1.77-1.1-3.09-2.21-4.42-.44-.66-1.1-1.32-1.77-1.99l-.88-.88M348.13,338.31q-.22-.22,0,0c-.44.22-.66.44-1.1.66-.88.88-1.77,1.55-2.65,2.43-1.1,1.1-1.77,2.43-1.99,3.97v3.09c0,.66.44,1.32.88,1.99l.22-.22c.22-2.87,1.32-5.52,2.87-7.73.44-.88.88-1.55,1.32-2.43,0-.66.22-1.32.44-1.77M207.72,241.83c.44.44,1.1.66,1.77.66,2.21.22,3.97-.88,5.3-2.65.66-.88,1.1-1.77,1.77-2.65.22-.22.44-.44.66-.88.22-.22.22-.66,0-.88-.44-.22-.66-.66-1.1-.66-1.77-.44-3.31-.66-5.08-1.1-.88-.22-1.99,0-2.87.44-1.32.66-2.43,1.55-3.75,2.21-.22.22-.44.22-.44.66.44-.22.66-.22,1.1-.44.44-.22,1.1-.66,1.55-.88,2.21-1.55,4.42-1.55,6.62-.88l1.99.66c.22,0,.44.22.66.22-.88.44-1.55.88-2.21,1.32h1.32c-.22.66-1.1,1.77-1.77,2.43-1.32,1.99-3.31,2.65-5.52,2.43M178.14,264.79c.44,1.32.88,2.43,1.55,3.53.66.66.88,1.55,1.1,2.43.22.44.22,1.1.44,1.77.22.88.44,1.99.88,2.87,1.55-1.1,2.21-2.65,3.75-3.97-.22-.22-.44-.22-.44-.22l-2.87-2.87c-.44-.66-1.1-1.1-1.99-.44-.88-1.32-1.55-2.21-2.43-3.09M199.56,341.84c1.1-3.09,1.55-5.96-.22-8.83-1.55-2.21-3.31-4.19-5.08-6.18,0,0-.22,0-.22-.22,0,.22,0,.44.22.66l2.65,5.96c.44.88.88,1.99,1.1,2.87.66,1.99,1.1,3.75,1.55,5.74M172.4,344.49q.22,0,0,0c2.65-1.32,5.3-2.65,7.73-4.19,1.77-1.1,2.87-2.65,3.97-4.42,0-.22.22-.44.22-.66-2.21.88-4.42,1.77-6.18,3.09-.44.44-.88.66-1.32,1.1-1.55,1.55-2.87,3.31-4.42,5.08M187.19,343.16c-.22,0-.22-.22,0,0-.66,0-1.1,0-1.55.22-3.31.66-6.62,1.99-9.93,3.31-1.1.44-1.99,1.1-3.09,1.77-1.77,1.32-3.09,2.87-3.75,5.08,0,.22-.22.44-.22.88h.22l.22-.22c1.99-2.65,4.42-4.42,7.29-5.74,3.31-1.55,6.4-3.09,9.71-4.64.44-.44.88-.44,1.1-.66M203.31,302.98c.88.22,1.77.44,2.43.66,0,.66,0,1.32-.22,1.99h.22l.66-.66c1.77-1.77,3.97-3.09,6.62-3.31,1.55-.22,3.31-.22,4.86-.22h.66c-.22-.22-.44-.22-.66-.22-2.21-.66-4.19-.88-6.4-1.1-.88,0-1.77-.22-2.65,0-2.21,0-3.75,1.32-5.52,2.87M218.98,299.23c.22-1.77.66-3.31,1.55-4.86.44-.66.88-1.32,1.1-2.21.66-1.1.88-2.21.66-3.53-.22-1.1-1.1-1.99-2.21-2.21-1.77-.22-3.31.44-3.97,2.21-.44,1.1-.66,2.21-.44,3.53.22,1.77.66,3.31,1.32,4.86,0,.22.22.44.22.66,0-.88-.22-1.77-.44-2.65-.44-1.55-.44-3.09.22-4.64.22-.44.44-1.1.66-1.55.44-.66,1.55-.88,1.99-.66s.88.88.66,1.77c0,.22-.22.44-.22.88-.22.44-.22.88-.44,1.1-.88,1.77-1.1,3.75-.88,5.74,0,.44,0,1.1.22,1.55M194.92,236.97s0,.22,0,0c.44-.22.66-.66.88-1.1.22-.44.44-.88.88-1.1s.88-.44,1.1-.66c.22,0,.44-.22.44-.44s0-.22.22-.44h-.44c-.44,0-.88.22-1.55.22.44-.22.66-.66,1.32-1.1-1.1-.22-1.99-.44-2.87,0,0,0-.22,0-.44.22-.66,0-1.32.44-1.1,1.32-.44,0-.66-.66-1.1-.44,0,.22.22.66.44,1.1l-.66-.66c-.66-.88-1.55-1.1-2.65-1.32-1.55-.44-3.31-.22-4.86-.22q.22.22.44.22c.22,0,.22.22.44.44-1.1,0-1.99,0-2.65.88h.66c.44,0,.88-.22,1.32,0,1.1.22,2.43.44,3.75.44.44,0,1.1,0,1.55.44-.66,0-1.32.22-1.99.22,1.32.44,2.43,1.1,3.53,1.55.22.22.66,0,1.1,0,.22,0,.44,0,.66-.22v1.1c.66-.44,1.1-.66,1.55-1.1-.22,0-.22.44,0,.66M238.41,356.41v1.1c.22,1.99.22,3.75.44,5.52,0,1.1.22,2.43.22,3.53,0,.44.22.88.66.88.88.22,1.55.44,2.43,0,.88-.22,1.32-.66,1.1-1.55-.22-1.77-.44-3.75-.66-5.52,0-.22-.22-.44-.22-.66-.66-.66-1.32-1.32-1.77-2.21-.88-.22-1.32-.66-2.21-1.1M344.38,336.32l-.22-.22v-.66c.22-1.77,0-3.53-.66-5.3-.22-.22-.22-.66-.66-.88v.22c0,1.77-.22,3.31-.22,4.86,0,1.99-.44,3.97-1.1,5.96-.44,1.1-.44,2.21-.22,3.31,0,.22.22.22.22.66.44-1.99,1.55-3.31,2.65-4.42,1.55-1.55,2.65-3.53,3.31-5.74.22-1.55.44-3.09.22-4.64v-1.1c-.44,1.32-1.1,2.65-1.55,3.97-.66,1.32-1.1,2.65-1.77,3.97M253.86,298.57c-.22.66.22.88.44,1.32s.66.66.88.88c.44.22.66.66.44,1.32-.22.66,0,.66.44.88.22,0,.44.22.88.22,1.1,0,2.21,0,3.53-.22,1.55-.22,3.09-.88,4.19-1.99.44-.44.44-.66.22-1.32-.22-.44-.22-.66-.22-1.1,0-.22-.22-.44-.22-.88-.22,0-.44.22-.66.22-1.32.22-2.43.66-3.75.88-1.77.22-3.31,0-5.08,0-.22-.22-.66-.22-1.1-.22M266.23,270.97c.44-.22.88,0,1.1.22s.66.44.88.44c.44,0,.88-.22.88-.66v-.44c-.22-1.1-.44-2.43-.22-3.75-.44,0-1.1-.22-1.55-.22,0,.44.22.88-.22,1.1-.44-.22-.66-.88-1.32-.88,0,.22-.22.44-.44.66-.66,1.32-1.55,2.21-2.87,2.87l-2.65,1.32c-.66.22-.88.44-.66,1.1.44,1.32,1.32,2.21,2.43,3.09.66.66,1.32.22,1.77-.66,0-.22.22-.66.44-.88.44-.22.44-.66.22-1.1s-.44-.88-.44-1.32c0-.22,0-.66.22-.88,0,0,.44,0,.66.22.44.22.66.44,1.1.44.22,0,.66.44.88,0,.44-.22-.22-.22-.22-.66M244.59,348.46c-.44,5.08-1.1,10.16.22,15.45h1.55v-.66c.22-2.21.66-4.42,1.55-6.4.44-.88.44-1.99,0-2.87s-.66-1.77-1.1-2.65c-.44-1.1-1.1-1.77-1.99-2.43q0-.22-.22-.44M214.57,330.36c.44.22.66.44,1.1.66.44.22.88.22,1.1.44,4.64,1.1,9.27,1.55,13.91,1.55q.22,0,.44-.22c-2.21-1.32-4.42-2.21-6.84-2.43-.66,0-1.32-.22-1.99-.22-2.87-.44-5.52-1.32-7.73-3.31,0,0-.22-.22-.44-.22-1.1,0-1.77.66-1.99,1.55v1.77c0,1.1.44,1.99,1.55,2.65.88.44,1.77,1.1,2.87,1.32,2.43.88,4.86,1.1,7.51,1.32,3.97.44,7.73.44,11.7.44h.66q-1.1-.66-1.99-.88c-4.19-.22-8.39-.22-12.58-.88-1.55-.22-3.09-.66-4.64-1.1-.66-.22-1.32-.66-1.99-1.1-.44-.44-.66-.66-.66-1.32M296.91,346.92q-.44,0-.66-.22v-.44c0-1.99,0-3.97.22-5.96v-.22c0-.22.22-.22.44-.44,0,2.43-.44,4.64.22,6.62,0-.22.22-.44.22-.88.22-1.77.22-3.53.44-5.3,0-.44.22-.88.66-.88.22,0,.44,0,.66-.22,0,1.1-.22,2.21-.44,3.53.22.22.44.22.88.44.22-1.55.44-3.31.66-4.86-2.65,1.32-5.3,1.32-7.95,1.55h-5.3c-2.87,0-5.74-.22-8.83-.66h-.44c.22.22.44.22.66.44q.22,1.1.66,1.32v-1.32c.44,0,.88.22,1.32.22v1.55c0,.44,0,.88.22,1.55.22-1.1,0-2.21.22-3.09.22,0,.44,0,.88.22v2.21c0,.66,0,1.32.44,1.99v-3.97h.66v4.42c0,.22,0,.66.44.88v-5.3q.66.22.66.44v4.64c0,.88,0,1.77.44,2.43.22.22.22.44.66.44,2.43.22,5.08.22,7.51,0,1.1-.22,2.21-.44,3.53-.66.22,0,.66-.22.88-.44-.22.44,0,.22,0,0M215.45,336.54c-.88,7.06-1.77,14.35-2.87,21.41,1.32-.88,1.99-1.1,2.43-1.1-.22.88-.66,1.32-1.32,1.99l-1.32,1.32s-.22.22-.22.44c1.1-.22,1.99-.22,3.09-.44q0,.22-.22.22c-.44.88-1.1,1.32-2.21,1.77-.88.22-1.32.66-1.32,1.55,0,.44-.22.88-.22,1.32,0,.66,0,.88.66,1.1.88.22,1.77.22,2.65,0,.44,0,.66-.22.66-.88v-1.32c.22-3.75.66-7.51.88-11.04,0-.88.22-1.99-.44-2.87v-.22c-.22-.44,0-1.1.44-1.32.22-.22.22-.44.44-.66l.66-7.95c0-.22,0-.66-.22-.88-.44-.66-1.1-1.55-1.55-2.21.22-.22,0-.22,0-.22M194.48,269.21c-.22-.22-.44-.22-.66-.22-2.21,0-4.42.66-5.96,2.43l-.66.66c-1.1,1.1-2.21,2.21-3.31,3.53s-2.43,1.99-4.19,2.21c-1.77.44-3.75.22-5.52,0s-3.09-1.1-4.19-2.21l-2.65-2.65c-.66-.44-1.32-.88-2.21-1.32.88,1.1,1.55,2.21,2.21,3.31v.22c-1.32-.44-2.87-.66-4.42-.44.44.22.66.44.88.44,1.1.66,1.99,1.1,2.65,2.21,1.32,1.77,3.09,2.87,5.3,3.31,1.99.44,3.97.44,5.96.22,1.55-.22,2.87-.44,4.19-1.32,1.99-1.1,3.75-2.65,5.08-4.64.66-1.1,1.55-1.99,2.21-2.87.88-1.1,1.77-1.77,3.09-2.21.66,0,1.32-.22,2.21-.66M218.1,300.33v-.22c-.22-.22-.22-.44-.44-.66-1.32-1.55-2.21-3.09-2.65-5.08-.22-1.1-.44-2.21-.66-3.53-.22-1.99-.22-3.97-.66-5.74-.66-3.09-1.32-6.18-3.09-8.61-.44-.66-.88-1.1-1.32-1.77-.88-1.1-1.77-1.99-2.65-2.87-.44.22-.44.66-.22.88.22.44.44.88.88,1.32,1.77,2.87,2.65,6.18,2.87,9.49,0,2.87.22,5.74.88,8.39.44,1.77.88,3.53,1.77,4.86,1.32,1.99,3.09,3.09,5.3,3.53M286.09,305.41c.88,1.32,2.43,1.99,3.75,2.87s2.43.66,3.75.44c1.99-.44,3.75-1.1,4.86-2.65.88-1.1,1.77-2.43,2.65-3.53,0-.22.22-.44.22-.44-.44-1.32-1.55-2.87-3.31-2.43-1.1.22-2.21.66-3.31.88-3.09,1.1-5.74,3.09-8.61,4.86.22,0,0,0,0,0M160.26,330.14c.22.22.22.44.44.88.88,1.77,1.55,3.53,1.99,5.52.22,1.99,1.1,3.75,2.43,5.52,0,0,0,.22.22.44,0,0,.22,0,.22-.22s0-.44.22-.88c.22-1.32.88-2.65,1.99-3.31.88-.66,1.99-1.1,2.87-1.55,2.43-1.1,4.42-2.87,6.18-5.08.22-.22.22-.44.44-.66h-.88l-2.65.66c-1.1.22-1.77.88-2.43,1.77-.44.66-1.1,1.1-1.77,1.77-.44.22-.66.44-1.1.88,0-.44.22-.66.22-.88.88-1.77,1.32-3.53,1.1-5.52-.22-.88-.44-1.99-.66-2.87-.22-.66-.44-1.32-.44-1.99h-.22c0,3.97-.44,7.95-2.43,11.92.22-1.32.22-2.65.44-3.97.22-2.87.44-5.52,0-8.39-.22-1.55-.44-3.09-.88-4.42,0,.22,0,.44-.22.88-.22,1.99-.44,3.97-.66,5.74-.22,1.77-.44,3.31-.22,5.08.22,1.1.22,2.21.22,3.31v1.99c-.44-1.1-1.1-2.65-1.55-3.75-.66-1.1-1.77-1.99-2.87-2.87M225.38,338.97c0,2.21-.22,4.19-.22,6.4,0,3.31,0,6.62-.22,9.93-.22,5.08-.44,9.93-.66,15.01,0,.44.22.66.44.66.88,0,1.77.22,2.65.22.44,0,.66-.22.88-.88v-.66c0-2.87,0-5.96-.22-8.83,0-5.96,0-11.92-.22-17.66,0-.44,0-.88-.22-1.32-.44-1.32-1.1-2.21-2.21-2.87M267.77,254.86l-.66,1.32c-.44.66-1.1,1.32-1.55,1.99-1.55,1.99-3.31,3.97-5.3,5.74-1.1,1.1-2.43,1.99-3.75,2.87-1.99,1.32-2.65,3.09-2.43,5.3,0,.66.22,1.32.66,1.77.44.66.88.44,1.1-.22.22-.66.66-1.1,1.1-1.55.88-.66,1.77-1.32,2.87-1.77,2.21-.66,3.75-2.21,5.08-3.97.66-.88,1.55-1.32,2.43-1.99l3.97-1.99c.88-.44,1.77-1.32,2.21-2.21.44-.66.44-.88-.22-1.32-.66-.44-1.32-.88-1.99-1.1-1.1-.66-2.21-1.32-3.09-2.43-.22,0-.22-.22-.44-.44M262.03,308.28c.66.44,1.1.44,1.77.44,1.1,0,2.21.22,3.31.44,2.87.88,5.74,1.32,8.61,1.77,1.77.22,3.75.22,5.52,0h.66c.22,1.1-.66,1.55-1.32,1.99.66,1.55,1.99,2.43,3.53,2.65.44,0,.66,0,.88-.66,0-.22.22-.44.22-.44.66-.66.88-.66.44-1.55v-.22c.44-.22.88-.44,1.32-.44q0-.88.44-1.1c.44-.22.88-.66,1.55-.88,0,.22,0,.44.22.66.22.44,1.1.66,1.55.44.22-.22.22-.44,0-.66-.22-.22-.44-.44-.66-.44-.66-.22-1.32-.66-1.99-.88-.88-.22-1.77-.66-2.65-1.55-.66-.66-1.32-.88-2.21-.88-.44,0-.88.22-1.32.22-1.1.22-2.21.44-3.31.44-3.75-.44-7.29-1.32-10.82-2.43-1.32-.44-2.43-1.1-3.31-2.43h-.22l-.22.22c-.66.88-1.55,1.55-2.65,1.99-.22,0-.44.22-.44.44-.44.44-.44.88,0,1.32.22.22.66.66,1.1.88.22.22.44.22.66.44,0-.44-.22,0-.66.22M259.16,255.08q.22,0,0,0c.22-.22.44-.22.66,0,1.32.44,2.65,1.1,3.53,2.21.44.44.66.44,1.1.22.22-.22.44-.22.44-.44.44-.66.88-1.1,1.1-1.77.66-1.32.66-3.75-.88-5.08-1.1-.88-2.21-1.55-3.53-2.21-.44-.22-.88-.22-1.1,0-1.99.66-4.19,1.55-5.96,2.87-1.32.88-2.43,1.77-3.75,2.65-.88.44-1.32,1.32-1.55,2.21-.22,1.55-.44,3.09,0,4.64v.66c-.22.22-.44.22-.66.22-1.1.44-1.55,1.32-1.55,2.43v.66c.22,1.32.88,2.43,2.21,3.09l1.99.66c.66.22,1.32.22,1.99-.22-.22-.44-.66-.44-1.1-.44-.88,0-1.55,0-2.21-.44.88-.66,1.55-1.1,2.65-.88.88.22,1.77-.22,2.65-.44l.22-.22s-.22-.22-.44-.22h-.44c-1.1.22-2.21,0-3.31-.22-.44-.22-.88-.22-1.32-.22-.66,0-1.1.22-1.32.88,0,.22,0,.44-.22.66-.44-.44-.66-.88-.66-1.32,0-1.1.22-1.55,1.32-1.32.44,0,.88,0,1.32-.22.88-.22,1.77-.22,2.87,0l1.99.66c.22,0,.44,0,.66.22v-.22l-.66-.66c-1.1-.88-2.21-1.1-3.75-1.1-1.1,0-1.32-.22-1.55-1.1-.44-1.1-.44-2.43-.22-3.53s.44-1.99,1.32-2.65c.22-.22.44-.44,1.1-.66-.44,1.1-.66,2.43-.66,3.53,0,.88.44,1.32,1.32,1.32.66.22,1.1.44,1.55.88.66.88,1.55,1.32,2.43,1.77.44.22.66.22,1.1.44.22.22.44.66.66.88q.66-.22.66-.88c-.22-.66-.44-1.1-.88-1.32-.66-.44-1.1-.88-1.77-1.32-1.1-.66-1.99-1.77-2.43-2.87-.22-.44-.22-1.1-.22-1.55.22-1.55,1.1-2.43,2.65-3.09v.44c0,.88-.22,1.77-.22,2.43,0,.88.22,1.77.88,2.43,1.1,1.1,2.43,2.43,3.75,3.53.44-.22.44-.44.66-.88.22-.66,0-1.32-.44-1.99-.44-.66-1.1-1.32-1.55-2.21,0-.22-.22-.44-.44-.88M204.19,289.96v-.22h.88c.44,0,1.1.22,1.77.22,1.1,0,1.99-.88,1.77-1.99-.22-1.99-.22-3.97-.44-5.74,0-.66,0-1.32-.44-1.99-.88,1.32-1.77,1.55-3.09,1.32h-1.1c-1.32-.22-2.87-.22-4.19-.88-.22,0-.44-.22-.66-.22v.22c.66.44,1.32,1.1,1.77,1.55-.66.44-1.1.22-1.77,0-1.1-.44-2.21-.88-3.09-1.77-.66-.44-1.1-1.1-1.77-1.55-.44-.44-.88-.88-1.32-1.1-.66-.44-1.32-.22-1.77.44-.22.22-.44.66-.66,1.1s-.44,1.1-.66,1.77c-.66,1.32-1.55,2.43-2.87,3.09-.22,0-.22.22-.44.22.22.22.22.44.44.66.22.22.22.44.44.66,2.21,4.64,3.97,9.27,3.75,14.57,0,1.1.22,2.43.44,3.53.44,1.55,1.32,2.65,2.87,3.09.44,0,.66.22.88-.22.22-.22.44-.22.66,0,.22,0,.44.22.44.44,1.1,1.32,2.87,1.32,4.42,1.32.88,0,1.1-.44.88-1.32-.44-1.55-.66-2.87-.88-4.42,0-.44-.22-1.1-.66-1.55-1.1-1.1-1.99-2.43-3.09-3.53-.44-.66-1.32-1.1-1.77-1.77-2.21-2.21-2.87-4.64-2.65-7.73q0-.22.22-.44c.22.22.44.22.66.44,1.32,1.1,2.43,2.21,3.31,3.53,1.1,1.77,1.99,3.53,3.31,5.3.88,1.1,1.77,2.65,2.43,3.97,0,.22.22.44.22.44.66-.44,1.55-.88,2.21-1.32.66-.22,1.32-.44,1.77-.66,1.55-.66,3.31-.66,4.86-.44h.66c-.44-.44-.88-.88-1.1-1.32s-.66-.44-.88-.66l-2.65-1.32c-.66-.22-1.1-.88-1.1-1.55,0-.44-.44-.88-.66-1.32-.44-.44-.88-1.1-1.32-1.55.44-.66.22-.88,0-1.32M166.66,239.18c-.44-.22-1.1-.22-1.55-.22-1.1-.22-1.99-.66-2.65-1.55-.44-.66-.44-1.1.22-1.55q.22-.22.44-.22c1.55-.88,3.09-1.1,4.86-1.32,3.97-.22,7.06,1.55,9.93,4.19.44.44.66.88.44,1.55v.66c1.1,0,1.1-.88,1.32-1.77.22.22.44.44.44.66.22.88-.22,1.55-.66,2.21.88.44.88-.66,1.55-.66.44.66.44,1.32-.44,1.77.44.44.66.22,1.1,0,.88-.44,1.77-.44,2.87-.22.88.22,1.77.66,2.43,1.32l.44.44v.22c-.22,0-.44-.22-.66-.22-.66-.22-1.32-.44-2.21-.66-1.55-.22-2.87,1.32-3.09,2.87,0,0,0,.22.22.22h.44l.22-.22c.22-.44.66-.66,1.1-.88.88-.22,1.55-.22,2.43.22,1.55.66,2.21,1.99,3.09,3.09.22.66.22.88-.44,1.1-1.32.44-2.65.66-3.97.22-.66-.22-1.1-.66-1.32-1.55,0-.22,0-.44-.22-.66-1.77,0-3.09-.66-4.64-1.32.22.88.88,1.1,1.55,1.55s.66.66.44,1.32c-.22.44-.44.66-.44,1.1-.44,1.55-.88,3.31-1.1,5.08-.22,3.09.88,5.52,2.87,7.73.44.44.88.66,1.1.88,1.77,1.1,3.53,1.55,5.52,1.99.44,0,1.1.22,1.77.22-.66-.88-1.32-1.55-2.43-1.77-.44-.22-1.1-.22-1.55-.44l-2.65-1.32c-.66-.44-.88-.88-.66-1.77v-.22c-.44-.44-.88,0-1.55,0-1.99-2.43-1.32-8.17,0-9.49,0,.66-.22,1.1-.22,1.77-.22,1.32,0,2.65,1.1,3.75.22.22.44.44.44.66.22.22.22.66,0,1.1-.44.44-.44.66,0,1.1,1.1,1.1,2.43,1.99,4.19,1.77h.88c0,.22-.22.22-.22.44-.44.88-.22,1.32.66,1.32.66.22,1.1,0,1.77.22h.66v.44c0,.66.22,1.32.88,1.77.88.88,1.99,1.32,3.31,1.55,1.1.22,1.99.44,3.09.88.66.22,1.1.44,1.32,1.1.22.44.66.66,1.1.66,1.32,0,2.43,0,3.53-.66s1.99-.88,3.31-.22,2.43,0,2.65-1.55h-.88c-.22,0-.44.22-.66.44-.66-.66-1.1-1.32-.66-1.99.44-.44.66-.88,1.1-1.1.44-.44,1.1-.22,1.32.44,0,.22.22.44.44.66.22-.88.22-1.1.22-1.77q0-.22-.22-.44c-.66-.88-1.99-1.1-2.87-.22-.44.22-.88.66-1.32,1.1-.88.66-1.55.66-2.43.22-.44-.22-.88-.44-1.55-.66s-1.1-.44-1.77-.44c-.88-.22-1.77,0-2.43.66-.44.44-.44.88,0,1.32.44.44.66.44,1.1,0,.66-.44,1.55-.44,2.21.22l.88.88c.44.44.22.88-.22,1.1-.88.44-1.99.66-2.87,0-.66-.44-1.32-.66-2.21-.88l-2.65-.66c-.22,0-.66-.22-.66-.66s.44-.22.66-.44c.44,0,.88-.22,1.32-.22.44-1.77,1.1-2.43,2.65-2.65,1.99-.22,3.75-.22,5.52,1.1.88.66,1.1.44,1.77-.22.88-.88,1.77-1.32,3.09-1.32h.66c-.22-.44-.44-.66-.44-.88-1.32-1.99-2.43-4.19-3.31-6.4-.66-1.77-.66-3.53-.44-5.52,0-.66.22-1.32.66-1.77.44-.66.66-1.32.44-2.21-.66,0-.88.88-1.32,1.1-.44-1.32.22-1.99,1.1-2.65-.22-.66-.44-1.32-.88-1.99-.88-1.1-1.55-2.43-1.77-3.97-.22-.88-.66-1.55-1.55-1.55-.66,0-1.32-.44-1.99-.66-1.1-.44-1.99,0-2.43,1.1-.22.44-.44.66-.66,1.1-.44.66-.88.66-1.55.44h-.66c-1.1,0-2.21-.44-3.09-1.1-.66-.44-1.32-.88-2.21-.88h-2.21c-.22,0-.66,0-.66-.22-.22-.22.22-.44.22-.66v-.22c-1.1-.88-2.43-.88-3.53,0s-2.43,1.1-3.97,1.1c-1.1,0-2.21-.22-3.09-1.1-.66-.44-1.55-1.1-2.43-1.55-1.99-1.1-3.97-1.32-6.18-.88-1.99.44-3.97,1.32-5.96,2.43-.44.22-.66.66-.22,1.1.44.66.88,1.32,1.55,1.77.88.88,1.99,1.55,3.09,2.43,1.1.88,2.43,1.1,3.97,1.1,1.77-.22,3.53-.44,5.52-.66-.88-.44-1.55-.66-2.43-.66h-3.09c-1.1,0-2.21-.22-3.09-.66-.22,0-.44-.22-.66-.44,0,0,.22,0,.66-.22M254.53,276.49c-.22-.44-.44-.66-.66-.88-.44-.66-.88-1.1-1.32-1.77s-.88-1.1-1.55-1.32c-.66-.22-1.55-.66-2.21-1.1-1.1-.44-2.21-1.1-2.87-1.99-.22-.22-.44-.22-.66-.22-1.55.22-3.09.22-4.64.44-1.55,0-2.87.66-3.97,1.55-1.1.88-1.77,1.99-2.65,3.09-1.1,1.55-2.21,3.09-3.09,4.64-.66.88-1.32,1.77-1.77,2.43-1.1,1.99-2.21,3.75-3.75,5.52-.44.44-.66,1.1-.66,1.77,0,1.32-.44,2.65-1.1,3.75-.44.66-.66,1.32-1.1,1.99-.66,1.1-.88,2.21-.88,3.53s.44,2.21,1.32,3.31c.22.22.66.44,1.1.22-.22-.88-.66-1.55-.88-2.21s0-1.99.22-2.65c.44.66.66,1.32.66,2.21,0,.66.22,1.1.66,1.77.66.88,1.55,1.77,2.43,2.43.22.22.66.44.88.44.44,0,.66.22,1.1-.22-.22-.66-.66-.88-1.1-1.32-.66-.66-1.32-1.55-1.55-2.65v-.88c.44.22.66.44.88.66.44.44,1.1.88,1.77,1.32s1.55.88,2.21,1.1,1.32.44,2.21.22c.22-1.1.88-1.55,1.77-1.77.66-.22,1.32-.22,1.99-.44.44,0,1.1-.22,1.77-.22,1.1-.22,1.32-.66,1.1-1.77q0-.44.44-.44h.88c1.1,0,2.21,0,3.31-.22-.22-.44-.44-.44-.88-.66-.88-.44-1.99-.66-2.87-1.1-.66-.22-1.32-.66-1.55-1.55h1.1c1.32.22,2.87.44,4.19.44.44,0,1.1,0,1.55-.22,1.1-.22,1.32-1.55.44-2.21l-1.32-1.32-1.99-1.99c-.66-.66-.88-1.77-.88-2.65,0-.22,0-.44.22-.66,1.1.66,1.99,1.32,2.87,2.21.44.44,1.1.88,1.77,1.1,1.55.66,2.43.22,3.09-1.32.22-.22.22-.66.44-.88.22-.44.44-.44,1.1-.22.22,0,.44.22.44.44.66.44,1.1.44,1.55-.22.44-.44.66-.88,1.1-1.32,1.1-1.77,2.65-2.21,4.64-2.21.44,0,.44.22.44.44.22,1.1-.88,2.43-1.99,2.43-.44,0-.66,0-1.1.22-1.1.22-1.55,1.1-1.99,1.99-.22.44,0,.88.44,1.1s.66.44,1.1.66c1.1.66,2.21,1.32,3.09,1.99.22.22.44.22.66.88-.88-.22-1.77-.22-2.65-.44-1.32-.22-2.65-.88-3.97-1.55-.22-.22-.44-.44-.66,0-.22.22-.22.44-.22.88s0,.66.22,1.1l1.32,1.99c.22.44.66.88.88,1.32s.66.88,1.32.88h1.55c1.1,0,2.43-.22,3.53,0,.66,0,1.32,0,1.99-.22.88-.22,1.1-.66.88-1.55,0-.44-.22-.88-.44-1.32-.22-.66-.44-1.55-.66-2.21-.66-1.55-.44-3.09,0-4.64.22-.88.44-1.99.44-2.87,0-1.32-.66-2.21-1.99-2.43-1.99-.66-3.97-.66-5.96.44-.88.44-1.77,1.1-2.65,1.77-.22.22-.44.44-.88.44.22-.88.66-1.77,1.32-2.43s1.55-1.32,2.21-1.77c.88-.44,1.77-.44,2.65-.88,0-.44-.44-.66-.88-.66-.66-.22-1.32-.44-1.99-.44-.44,0-.66-.22-1.1-.22-.44-.22-.44-.44-.22-.88-.66.66-.44.44,0,0M267.33,326.83v.22c-1.32,1.1-2.87,1.99-4.64,1.99h-4.64c-.44,0-.44.44-.22.66.22.22.66.44.88.66.88.22,1.77.66,2.65.88.22,0,.22.22.44.22q-.22,0-.44.22h-.22c-1.99.44-3.97.44-5.96-.44l-1.32-.66c-2.65-1.1-5.52-1.55-8.39-1.32-.22,0-.44.22-.88.22.44.44.66.66,1.32.88,1.1.44,2.21.66,3.31,1.1,1.55.44,3.09,1.1,4.42,1.99,1.1.66,2.43,1.32,3.75,1.99.44.22,1.1.44,1.77.66-1.1.22-2.21.44-3.31.44-1.55-.22-2.87-.66-4.42-1.1-1.99-.88-4.19-1.55-6.18-2.43-1.55-.44-2.87-.88-4.42-1.32-1.1-.22-2.21,0-3.31.44q.22.22.22.44c.88,1.1,1.77,1.77,2.87,2.43,2.21,1.1,4.64,2.43,6.84,3.53,1.77.88,3.31,1.99,4.86,3.09,1.1.88,1.77,1.99,2.43,3.09.44.88.66,1.99.44,3.31-.44-.44-.66-.88-1.1-1.1-.66-.88-1.55-1.77-2.21-2.65-.88-.88-1.99-1.55-3.53-1.77-.44,0-.88-.22-1.32-.22s-.88-.22-1.55,0c.22.22.22.66.44.88.66,1.1,1.55,2.21,1.99,3.53,1.1,2.43,1.99,4.86,1.99,7.73,0,1.99-.22,3.75-.66,5.74-.44,2.21-1.32,4.42-3.09,5.96v.22c.66.66.88.66,1.55.22,1.55-.88,2.43-2.21,2.87-3.97.22-.88.44-1.55.44-2.43.44-2.87,1.32-5.52,2.87-7.73.44-.44.66-1.1,1.1-1.77,0-.22.22-.22.44-.44,0,.22.22.44.22.66.22,2.87,0,5.74-1.32,8.61s-2.87,5.74-5.3,7.95c-.22.22-.44.66-.66.88.22,0,.44.22.44.22,1.99.66,3.97.66,6.18,0,1.32-.22,2.65-.66,3.97-.88,1.32-.22,2.87-.22,4.19-.22,1.55,0,2.87-.22,4.42-.88.66-.44,1.1-.88,1.1-1.77q0-.66.66-.88c.66,0,1.1,0,1.77-.22.66,0,1.32-.22,1.99-.44s.88-.66.88-1.32c0-.44-.22-.88-.44-1.32s-.44-1.1-.44-1.55c-.22-.66,0-1.1.66-1.1h1.1c1.32-.22,1.55-.66,1.1-1.99-.22-.88-.44-1.99-.66-2.87-.22-1.32-.44-2.65-.44-4.19-.66-4.64-1.55-9.27-2.65-13.91-.66-2.65-1.32-5.3-1.77-7.95-.22-1.55-.44-3.09-.44-4.42,0-.88.22-1.55.22-2.43.22-1.55-.22-2.65-1.32-3.53-.44-.44-1.1-.88-1.77-1.32-1.32-.88-2.87-1.32-4.42-1.77-4.42-1.32-8.83-1.99-13.25-2.65-1.55-.22-2.87-.44-4.42-1.1-1.32-.66-2.21-.44-3.31.88-.44.66-.88,1.32-1.55,1.99-.66.88-1.32,1.77-2.21,2.21-1.99,1.32-3.97,2.21-6.18,3.09-.88.22-1.77.44-2.65.22.66-.66,1.32-.88,1.99-1.32,1.1-.66,2.21-1.32,3.53-1.99.44-.22.88-.44,1.1-1.1q-.44,0-.66.22c-.44.22-1.1.44-1.55.66-2.21,1.1-4.42,1.99-6.84,2.43-1.1.22-1.99.22-3.09,0l.66-.66c1.1-.66,2.43-1.1,3.53-1.55,1.55-.66,3.09-1.1,4.42-1.77,1.55-.66,3.09-1.55,4.64-2.65.22-.22.66-.44.66-.88-.66-.22-1.1,0-1.55.22-.88.22-1.99.66-2.87.88-2.87.88-5.74,1.32-8.83.88q-.22,0-.66-.22c.44-.22.66-.44.88-.44.66-.22,1.55-.44,2.21-.66,1.32-.44,2.65-.88,3.97-1.1.22,0,.44-.22.44-.22-1.99,0-3.97-.44-5.74-1.1-1.77-.44-3.53-.88-5.3-.66-.22,0-.66,0-1.1-.22.22-.44.22-.66.44-.88.44-.66.22-.88-.44-1.1-.44-.22-.66-.22-1.1-.44q-.66-.22-1.1.44c-1.32,2.21-2.21,4.64-2.87,7.06-.88,3.09-.88,6.18-.44,9.49.22,1.77,1.32,3.09,2.87,3.97.44.22.88.44,1.55.66,2.21.88,4.42,1.32,6.84,1.55,3.53.22,7.06.22,10.82-.44,2.65-.44,4.86-1.1,7.29-2.21,3.31-1.32,6.62-2.87,9.71-5.08,1.1-.66,2.21-1.32,3.31-1.77,1.32-.66,2.65-.44,3.97-.22q.22,0,.44.22c-2.65,1.1-5.08,2.21-7.51,3.31s-4.86,2.43-7.06,3.53c.88,0,1.99-.22,2.87-.44,1.99-.44,3.97-.88,5.96-1.1.44,0,1.1-.22,1.77-.22,3.09-.44,5.96-1.55,8.83-2.65.66-.22,1.55-.44,2.21-.66.22,0,.66,0,.88.44-.22.22-.44.66-.66.88-.88,1.1-1.99,1.99-3.53,2.65-1.32.44-2.65.88-4.19.88h-3.31c-.44,0-.66,0-1.1.22q.44.44.88.66c2.21.44,4.19.66,6.4.22,2.65,1.1,3.53,1.1,4.64.88M286.98,330.8v-.44c.44.44.88.66,1.1,1.1,3.75,3.31,8.17,4.42,13.03,3.97.88,0,1.77-.44,2.43-.88.66-.44.66-.88.22-1.32-.88.88-1.1.88-2.21,1.1-1.99.44-3.97.22-5.96,0,0,0-.22,0-.44-.22,1.77,0,3.31-.66,5.08-1.1.22,0,.44-.22.66-.66.44-1.77.66-3.53,1.1-5.3-.44-.22-.88-.66-1.32-.88-1.1-.44-2.43-.88-3.53-1.1-2.43-.66-4.86-.88-7.06-.88-4.42-.22-8.83,0-13.25.66-1.32.22-2.65.44-3.75,1.1-.44.22-.44.44-.44.88.22,1.77.66,3.31.88,5.08,0,.44.22.88.88,1.1,4.86,1.32,9.71,1.99,14.79,1.99h.66c-.22-.44-.66-.66-1.1-.66h-1.1v-1.77c0-1.1-.22-1.55-.66-1.77M164.23,315.57c1.32,1.55,2.43,3.09,3.31,4.64.66,1.55,1.77,2.65,2.87,3.97,0,0,.22.22.44.22-.22-1.1-.44-2.21-1.32-2.87-.88-1.1-1.32-2.21-1.77-3.31,1.55,1.55,3.31,2.65,5.3,3.75,0-.88-.22-1.55-1.1-1.99-.44-.22-1.1-.66-1.55-.88-1.77-1.1-2.87-2.65-3.97-4.64.44.22,1.1.66,1.55.88s1.1.44,1.77.88,1.1.44,1.77.88c-.22-.88-.44-1.77-.66-2.43,0-.22-.44-.44-.66-.44-1.99-1.1-3.75-2.65-4.86-4.64,0-.22-.22-.44-.22-.66.66.66,1.55.88,2.43,1.1.66.22,1.1.66,1.55,1.32h-1.1c.66.88,1.55,1.32,2.43,1.99.66-1.55,1.1-2.87.66-4.64-.22,1.1-.44,2.21-.88,3.31-.44-.44-.66-.88-.88-1.32s-.44-.88-.44-1.55c-.22-.66-.44-1.1-1.1-1.32-.44-.22-.66-.44-1.1-.66-.88-.44-1.32-1.32-1.77-2.21-.44-1.32-1.1-2.43-1.55-3.53,0-.22-.22-.44-.22-.88l.66.66,1.99,1.32c1.32.66,1.99,1.99,2.43,3.31-1.1-.22-1.77-1.1-2.65-1.77,0,.88.88,2.21,1.99,2.43,1.32.44,1.99,1.32,1.99,2.65,0,.22.22.44.22.88.44-.44.22-1.1.44-1.55.22-.44.22-1.1.44-1.55s.44-.88.88-1.32c0,.44.22,1.1.22,1.55.22.88.22,1.77.44,2.43.22,1.1,0,1.99-.44,2.87-.22.44-.22.88,0,1.32.22.88.66,1.77.88,2.65.22-1.55.44-3.09,1.1-4.42.22.22.44.22.44.44.66,1.77,1.1,3.75.66,5.74,0,.44-.22.88-.44,1.1-.22.66-.22,1.32,0,1.99.22.88.22,1.77.22,2.65s.22,1.55.66,2.21c.66.88,1.32,1.55,2.43,2.21,0-.22-.22-.22-.22-.44-.66-1.1-1.32-2.43-1.55-3.97v-2.21c0-.44.22-.66.22-1.1.88-2.43.66-4.86-.22-7.29q0-.22-.22-.44v-.22c.22,0,.22.22.44.22,1.32,1.32,2.21,2.87,2.65,4.86.22,1.32.66,2.43,1.32,3.31.88,1.32,1.99,2.65,3.09,3.97,0,0,.22.22.44.22-.44-1.77-.88-3.31-1.77-4.64-1.1-1.55-1.77-3.31-2.21-5.3.22,0,.22.22.44.22,1.1,1.32,2.43,2.65,3.97,3.53,2.21,1.32,3.97,3.09,5.3,5.08,0,0,0,.22.22.22,0-.88-.44-2.43-1.1-3.31-.44-.66-1.1-1.32-1.77-1.99l-3.97-3.31c-1.99-1.55-3.53-3.31-4.86-5.52-.22-.22-.22-.44-.22-.88,1.55,1.77,3.31,2.65,5.3,3.75,1.55.66,2.87,1.77,3.97,3.09l.44.44h.22c-.22-1.77-1.32-3.31-1.99-4.86,1.77,1.1,3.09,2.65,3.75,4.64.44,1.99,1.55,3.75,2.65,5.3,0,0,.22.22.44.22,0-.22-.22-.44-.22-.66-.66-1.55-1.32-3.31-1.32-5.08,0-1.32-.44-2.65-1.32-3.75-.66-1.1-1.77-2.21-2.65-3.09-.44-.44-.88-.88-1.32-1.1.88.22,1.55.44,2.43,1.1,1.77,1.1,3.31,2.65,4.19,4.42.22.44.44,1.1.66,1.77.22,1.55,1.1,2.65,2.21,3.75.22.22.66.22.88.44v-4.42c.88,1.1,1.55,2.21,1.55,3.75v1.1c0,.66.44,1.32.88,1.99.66.66,1.1,1.32,1.77,2.21-.66-1.77-1.1-3.31-1.77-5.08h.22c.66.44,1.32,1.1,1.77,1.77s1.1,1.32,1.77,2.21c.44-1.32,0-2.65.88-3.75.44.88.66,1.77.66,2.65-.22,1.1-.44,2.21-.44,3.09.88-.66,1.1-1.77,1.32-2.87h.22c0,.44.22.88.44,1.32v2.87c0,.88.22,1.55.44,2.65l.44-.44c.66-1.1,1.1-2.21,1.1-3.53,0-.88.44-1.77.88-2.65.44-.88,1.1-1.77,1.99-2.65v.66c0,1.55-.44,2.87-1.1,4.19-.44.88-.66,1.99-.44,3.09,1.55-1.32,1.99-3.09,3.53-4.42.22.66.22,1.32,0,1.99-.44,1.55-1.1,2.87-2.43,3.75-.66.44-1.32.88-1.77,1.55q.22,0,.44-.22l2.65-1.32c.44-.22.66-.44.66-.88v-.22c.22-1.55.88-2.65,2.43-3.09v-.22c-.88-1.32-1.1-2.87-1.1-4.42-.22-2.87.22-5.74,1.1-8.61.44-1.1.44-2.21.44-3.31,0-1.77,0-3.31-.44-4.86,0-.22-.22-.44-.22-.66h-.66c-.88.22-1.77.66-2.43.88-.88.44-1.77.88-2.43,1.77-.88.88-1.55,1.77-2.43,2.43-.44.22-.44.66-.44,1.1l.66,5.3c.22,1.32.44,2.65.66,3.75.22.88.44,1.99,1.1,2.65.22.44.44.88,0,1.32-.22.22-.22.44-.44.88-.22-.22-.44-.22-.66-.44-.44-.44-.66-1.1-1.1-1.55-.22-.44-.44-1.1-.88-1.77-.44-.66-.66-1.32-1.32-1.99-.66-.44-1.1-1.1-1.32-1.77-.44-.88-1.1-1.55-1.77-2.21.22,1.32.44,2.65.66,3.75s.44,2.43.66,3.97l-.88-.88c-.66-.66-1.32-1.32-1.99-2.21-.22-.22-.22-.44-.44-.44-.44-1.77-.88-3.31-1.32-5.08l-.66-3.31c-.44-.22-.66-.22-1.1-.44-1.1-.66-2.43-1.1-3.53-1.77-.66-.44-1.1-1.1-1.55-1.99-.44-1.55-.88-3.09-.88-4.64,0-1.99,0-3.97-.44-5.96-.22-1.77-.88-3.31-1.55-4.86l-1.99-3.97c-.66-1.32-1.55-2.65-2.21-3.97-.22-.22-.22-.44-.44-.66-1.55.44-2.87.88-4.19,1.1-2.65.66-5.52.44-7.95-.44-1.77-.66-3.31-1.55-4.42-3.09-.88-.88-1.77-1.77-2.87-2.43-1.1-.66-1.99-1.1-2.87-1.77-.22,0-.44-.22-.66-.44,1.77-.66,3.53-.88,5.52-.88-.22-.66-.66-.88-.88-1.32-.44-.44-.66-.88-1.1-1.1-.44-.44-.66-.88-1.1-1.1.44-.22.66-.22,1.1-.22,2.43,0,4.42,1.1,6.18,2.65l1.55,1.55c1.32,1.77,3.09,2.43,5.08,2.65,1.55.22,3.09,0,4.64-.44-.44-1.55-.66-3.09-1.1-4.64-.22-1.1-.66-2.21-1.32-3.09-1.55-2.43-2.21-5.08-2.21-7.95s.22-5.96.66-8.83c.22-.88.22-1.77.22-2.65s-.22-1.55-.44-2.43c-.44-.88-.66-1.77-.66-2.65,0-.44-.22-.88-.66-.88-.44-.22-1.1-.22-1.77,0-1.1.88-1.55.88-1.99,1.1-1.32.66-2.65.66-4.19.22-.88-.44-1.77-.66-2.43-1.32-1.1-.88-2.43-1.55-3.53-2.65-.66-.44-1.32-1.32-1.77-1.99-.88-1.55-.66-2.87.88-3.97.44-.22.66-.44,1.1-.44,1.55-.66,3.31-1.32,4.86-1.77,1.55-.66,3.31-.66,4.86,0,1.77.44,3.09,1.32,4.64,2.21.22.22.66.44.88.66,1.1.66,2.87.66,3.97-.22l.66-.66c-.44,0-.88,0-1.1-.22,0-.66.22-.66,1.77-1.1-.22-.44-.44-.66-.88-1.1h.88c.66.22,1.32.22,1.99,0,1.77-.66,3.31-.44,4.86.22.44.22.88.22,1.32.44,1.77.66,3.53.22,5.08-.88.66-.44,1.32-.66,1.99-.66h1.1c-.44.44-.44.66-.88.88.44.22.88,0,1.32-.22.44,0,.88-.22,1.32-.22.22.66-.66.66-.66,1.1.44,0,.66,0,1.1-.22v.66c-.22.44-.44.66-.66,1.1-.44.44-.44.88,0,1.32,1.1.88,2.65,1.1,3.75.44.44-.22.88-.44,1.32-.88,2.43-1.77,5.3-2.21,8.17-1.32l5.3,1.32c1.32.44,1.77,1.32.88,2.43-1.32,1.77-2.65,3.75-4.19,5.52-1.32,1.55-2.87,2.43-4.86,2.21-.88,0-1.77-.22-2.65-.44-.44,0-.66-.22-1.1-.44v.66c.22.66.44,1.1.44,1.77s.44,1.1.88,1.32l1.99.66q.22,0,.66.22l-.66.66c-.22,0-.44.22-.66.22-.88,0-1.55.44-1.77,1.32-.22.44-.44.66-.88.88-.22.22-.44.44-.44.88-.44,1.1-.22,1.99.22,3.09.66,1.77,1.55,3.53,2.65,5.08.44.44.66,1.1,1.1,1.55.22.22.44.66.88.88.88.66,1.32,1.77,1.1,2.87-.22.88-.44,1.77-.88,2.43-.22.44-.44,1.1-.66,1.55-.44.88-1.1,1.55-1.99,1.55-.22,0-.44,0-.66.22l.22.22c1.1.44,1.99,1.32,2.65,2.21.88,1.32,1.99,2.65,2.87,3.97,1.32,2.21,1.99,4.42,2.21,6.84.22.88.22,1.77.44,2.87.88-.88,1.32-1.99,2.65-2.21,1.1-.22,2.21,0,3.31.44.22-.44.44-.66.44-1.1,0-.66.22-1.32.22-1.99,0-.88-.22-1.32-.66-1.99s-.88-1.1-1.32-1.99-.66-1.77,0-2.87c.44-.88.44-1.99.44-3.09-.44-3.09-1.32-6.18-2.65-9.05-.22-.22-.22-.44-.44-.88-.22-.66-.22-1.32.22-2.21,1.1,1.1,1.99,2.43,2.65,3.97.44,1.55.88,3.09,1.32,4.42-.22-2.87-.66-5.74-1.99-8.61-.44-1.1-1.1-1.99-1.55-3.09-.22-.44-.22-.66-.22-1.1,0-2.43-.88-4.64-2.43-6.62-.44-.66-1.1-1.55-1.55-2.21.44,0,.66.22.88.44,2.21,1.77,3.97,3.97,5.74,6.18,1.55,2.21,2.65,4.42,3.31,7.06.44,1.32.44,2.65.66,3.97,0,.22,0,.44.22.88.22-2.21,0-4.19-.22-6.18h.22c.22.22.44.66.44.88.88,1.77,1.32,3.75,1.55,5.74,0,1.55.22,3.31.44,4.86,0-.88.22-1.77.22-2.87.22-2.65,0-5.3-.66-7.95-.22-1.55-.22-3.09-.22-4.42v-.44s0-.22.22-.22c.22.22.44.22.44.44.44.44.66.88,1.1,1.32.44.66,1.1,1.32,1.77,1.77,1.1.88,1.77,1.77,2.43,2.87,1.1,2.21,1.99,4.42,1.99,7.06,0,.88.22,1.1,1.1.88.44,0,.66,0,1.1-.22,1.1-.44,1.99-.66,3.09-.88,1.55,0,3.09-.22,4.42-.44h.22c.22-.22.66-.44.88-.66.22-.22.66-.22,1.1-.22-.22-.22-.22-.66-.44-.88-.44-1.1-.66-2.21-.66-3.31.22-1.1.66-1.99,1.55-2.65.22-.22.44-.22.66-.44v-.88c0-1.32,0-2.65.22-3.97.22-1.1.88-2.21,1.99-2.87,1.32-.88,2.43-1.77,3.53-2.43,1.77-1.32,3.75-1.99,5.74-2.87.22,0,.44-.22.88-.22.66-.44,1.55-.22,2.21,0,1.55.66,2.87,1.55,3.97,2.65.88.88,1.55,1.99,1.55,3.31,0,.44.22.66.44,1.1,1.1,1.1,2.43,1.99,3.75,2.87,1.1.66,1.99,1.32,2.87,1.99.44.22.44.66.44,1.1-.66,1.55-1.55,2.65-2.87,3.53-.22.22-.44.22-.66.44-.44.22-.66.66-.88,1.1s-.44,1.1-.88,1.32c-.66.66-.88,1.55-.66,2.43,0,.88.22,1.55.44,2.21.22,1.1-.66,1.77-1.55,1.77-.44,0-.66-.22-1.1-.22,0,.22-.22.22-.22.44q-.44.66-1.32.44-.44,0-.66.22s.22.22.22.44c.22.44.22.66-.22,1.1-.44.22-.66.66-.88,1.1-.44,1.32-1.55,1.77-2.65,1.1-.66-.44-1.32-.88-1.77-1.32-.44-.22-.88-.66-1.77-.44.22,1.1.44,1.99,1.1,2.87s1.55,1.55,2.21,2.43c.22.22.44.22.66.22,1.77.44,2.21,1.77,2.43,3.31,0,1.55-.22,2.87-.66,4.42-.22.66-.22,1.32-.22,1.99,0,1.1.44,1.77.88,2.65,0,.22.44.44.66.44,1.99.44,3.75.88,5.74,1.1,2.65.44,5.52.44,8.17.22,1.1-.22,2.21-.22,3.53-.22-.22,0-.44.22-.66.22-2.21.88-4.42,1.1-6.84,1.32h-3.75c1.99.44,3.97.44,6.18.44,3.53-.22,6.84-1.1,10.16-2.65,1.1-.44,1.99-1.1,2.87-1.77s1.77-1.1,2.65-1.1c.66,0,1.55,0,2.21.22.44,0,.88.22.66.88-.44.22-.88.22-1.32.44-.88.22-1.77.66-2.65,1.1-.22.22-.44.22-.66.44-1.32,1.55-2.87,2.21-4.86,2.65-.44,0-.66.22-1.1.22,1.99.44,5.08-.44,6.62-1.55s3.09-1.77,4.86-1.99c.88-.22,1.55,0,2.21.66,2.43,2.21,4.86,4.19,6.84,6.84,1.55,1.99,2.87,3.75,4.42,5.74.66.88,1.1,1.77,1.77,2.65.44.44.66,1.1,1.1,1.32,1.55,1.1,2.87,2.21,4.42,3.09.66.44,1.32.22,1.99.22h2.21c-.66,1.1-1.99.88-2.65,1.55.22.44.66.22,1.1.22,1.32-.22,1.32,0,1.1,1.32,0,.44-.22.66-.22,1.1-.22.44-.22,1.1,0,1.77.44,1.1.22,2.43-.88,3.31-.66.44-1.1,1.1-1.77,1.77v-.88c0-1.1-.22-1.99-.66-2.87-.44-1.1-.66-2.43-.88-3.53-.22-.88-.66-1.77-1.32-2.21-1.32-1.1-2.43-1.99-3.75-3.09-.66-.66-1.1-1.32-1.77-1.99-1.32-1.99-2.65-3.97-3.53-6.18-.44-.88-1.1-1.77-1.55-2.43l-.66-.66c0,.22-.22.22-.22.44-.88,2.43-1.77,4.86-2.65,7.06-.66,1.55-.66,3.31-.44,5.08v.44c0,.66,0,1.32-.44,1.77-1.55,1.77-2.87,3.97-3.75,6.4-.44,0-.88,0-1.55-.22.66-.88,1.1-1.77,1.1-2.87-.44.22-.66.44-.88.66,0-1.32-1.1-2.21-1.99-3.09-.22-.22-.22-.44-.44-.66,0,.22-.22.44-.22.66-.44,1.1-.88,2.43-1.55,3.53l-.66,1.32h-1.1c.44-1.1,1.1-1.99,1.55-3.09s.88-1.99,1.1-3.09c.44-1.1.44-2.43,0-3.53-.22,0-.44,0-.66-.22-.44.44-.88.88-1.32,1.55.22.66-.22,1.1-.88,1.55,0,.88-.22,1.1-.88,1.32-.44.22-.66.22-1.1.22-2.87,0-5.08-.88-6.84-3.31-.44-.66-.88-.88-1.55-.88-2.87,0-5.52,0-8.39-.44-3.53-.44-7.06-.88-10.16-2.65-.66-.22-.88-.66-1.32-1.32l-1.32-1.99c-.44-.66-1.1-1.32-1.55-2.21-.22-.22-.22-.44-.44-.44-.88-.44-1.32-1.1-1.1-1.99,0-.44-.22-.66-.66-.88-.88-.22-1.55-.66-1.77-1.32-.88.22-1.55.66-2.21.88-1.77.66-2.21.66-2.65.66-1.1.22-1.77.66-2.21,1.55-.22.44-.44,1.1-.66,1.55-.22.66-.66,1.1-1.32,1.55-.22,0-.44.22-.66.44.66.88,1.32,1.55,1.99,2.21.22.22.66.44,1.1.44,1.77.44,3.53.88,5.3,1.1,4.19,1.1,8.39,1.99,12.58,3.09,1.55.44,2.87.88,4.42,1.55,1.77.88,3.09,2.21,3.75,3.97.22.66.22,1.32.22,1.99,0,1.32,0,2.43-.22,3.75h.22c2.43-.88,5.08-1.1,7.51-1.32,3.31-.22,6.62-.22,9.93-.22,3.09,0,6.18.22,9.27,1.1.88.22,1.77.66,2.65,1.1.44.22.66.44,1.1.88s.66.88.44,1.32c-.22.88-.22,1.77-.44,2.43,0,.44,0,.66.22,1.1.66.44,1.1,1.1,1.1,1.99.22,1.1,0,1.77-.88,2.43l-1.32.66c-.22,0-.44.22-.44.44-.22,1.32-.44,2.43-.66,3.75,1.55.44,3.09.66,4.42,1.1,1.55.44,2.65,1.32,3.97,2.43-.22-.22-.22-.66-.44-.88-.66-.88-1.55-1.77-2.21-2.65-1.32-1.32-2.21-2.65-2.65-4.42v-.44c2.21,1.1,3.75,2.87,5.3,4.86v-.66c-.44-1.55-.88-3.09-1.77-4.42-1.1-1.77-1.99-3.75-2.87-5.74.88.22,2.87,2.21,3.97,3.97,1.1,1.55,1.77,3.31,2.43,5.3.22-2.21.88-4.42,1.77-6.4,1.1-1.99,2.21-3.97,3.75-5.74,0,.22,0,.44-.22.88-.66,1.99-1.1,3.75-1.77,5.74-.44,1.55-.66,3.09-.66,4.64v.44c.22-.44.22-.66.44-.88.66-1.32,1.55-2.65,2.65-3.75.88-.88,1.77-1.77,2.43-2.65l.44-.44c-.22,1.77-.66,3.31-1.77,4.86-1.77,2.65-2.21,5.52-1.99,8.39v.44c.44-1.99,1.32-3.75,2.87-4.86-.22.66-.44,1.1-.44,1.77-.88,2.65-.88,5.52-.44,8.17.22,1.32.88,2.43,1.77,3.31.44.44,1.1,1.1,1.77,1.55-.66-1.32-1.55-2.43-1.55-3.97-.22-1.55-.22-2.87,0-4.42.22.44.22.88.44,1.32.66,2.43,1.77,4.42,3.75,5.96,1.1.88,1.99,2.21,2.87,3.31.66.88,1.1,1.99,1.77,3.09,0,.22.22.44.44.66,0-1.1-.22-2.21-.66-3.09-1.32-2.43-2.65-4.86-4.64-6.84-.88-.88-1.55-1.77-2.21-2.65-1.1-1.55-1.55-3.53-1.55-5.52.66.66.88,1.55,1.55,2.21,0-.22,0-.66-.22-.88-.44-1.1-.66-2.21-1.1-3.09-1.1-2.43-.88-4.86-.22-7.29.22-.88.88-1.77,1.55-2.43.66-.44,1.32-1.1,1.99-1.55,0,.88-.44,1.55-.66,2.21-.66,1.32-1.32,2.87-1.55,4.42-.22,1.1-.22,2.21.22,3.31.22.88.44,1.55.66,2.43,0-.88.22-1.99,0-2.87-.22-2.21,0-4.19,1.1-5.96.66-1.1,1.55-2.21,2.21-3.31,0-.22.22-.22.44-.44l.22.22c-.22,2.21-.44,4.42-1.99,6.18-1.1,1.32-1.1,2.65-.88,4.19,1.1-2.65,2.65-4.86,5.08-6.62-.22,1.1-.66,2.21-1.1,3.09-1.1,1.99-1.99,4.19-2.21,6.4s.44,4.42,1.32,6.4v-.44c-.44-3.09,0-5.96,1.1-8.83,0-.22.22-.66.44-.88,1.32-1.99,1.77-4.19,1.99-6.62v-.22c.22,1.1.22,2.21.44,3.53v3.09c0,.66-.22,1.32-.44,1.77-.88,2.43-1.55,4.86-1.55,7.29,0,1.55.22,1.99,1.1,3.53l1.99-6.62c.66-2.21,1.32-4.19,1.55-6.4,0-.88.22-1.99,0-2.87-.22-2.21.22-4.42,1.1-6.4.44-1.1.88-2.43,1.32-3.53,0-.22.22-.22.22-.44.22.22.22.66.44.88.22.88,0,1.99-.22,2.87-.44,1.77-.44,3.53,0,5.3.44,1.32.66,2.87.66,4.19,0,.22,0,.44.22.44.44-1.32.88-2.87.44-4.42-.22-1.32-.22-2.87-.22-4.64.22.22.22.44.44.66.44,1.32,1.1,2.65,1.1,3.97.22,1.1.22,2.43-.22,3.53s-.66,2.21-1.1,3.31c-.22,1.1-.66,2.21-.22,3.31,0,.44.22,1.1.44,1.32,1.1,1.77,1.32,3.53,1.32,5.52,0,.66,0,1.1.44,1.99.66-2.43,1.1-4.86.22-7.06-.66-1.99-.44-3.97.44-5.96.44-.88.44-1.99.66-2.87,0-1.77-.22-3.75-.66-5.52l-.66-1.99c-.44-1.1-.66-2.21-1.1-3.31v-.44c.22.44.44.66.44.88.22.44.66,1.1.88,1.55.66.88,1.55,1.77,1.77,2.87.44-1.32.22-2.65-.44-3.97,0-.22-.22-.44-.44-.66-1.77-2.21-1.99-4.64-1.99-7.29,0,.22.22.44.22.44.44,1.32,1.1,2.65,1.99,3.75,1.1,1.1,1.77,2.43,2.43,4.19,0-.44.22-.44.22-.66,0-1.32-.22-2.65-.66-3.97-.22-.66-.44-1.1-.66-1.77.88.66,1.99,2.43,2.43,3.97.44,1.55.66,3.09,1.1,4.42.44-1.55.44-3.09.44-4.64,0-1.77,0-3.53.22-5.3v-.44c0,.22.22.44.22.66.22,1.77.66,3.31,1.1,4.86.22,1.1.44,2.21.44,3.31,0,.44,0,.66.22,1.1.44-.88.66-1.99,1.1-2.87.44-1.1,1.1-1.99,1.99-2.43,0,0,.22,0,.44-.22-.22.44-.22.66-.44.88-.22.88-.66,1.77-.66,2.65-.22,1.77-.66,3.31-1.1,4.86,0,.22-.22.44,0,.66.22-.22.44-.44.44-.66.88-.88,1.55-1.77,2.43-2.43,1.77-1.32,3.75-1.55,5.74-1.1.88.22,1.99.66,2.65,1.32h-.66c-1.1-.22-2.43-.22-3.53,0-.66.22-1.32.44-1.99,1.1-.88.88-1.77,1.99-2.65,2.87.44,0,.88-.22,1.1-.44.44-.22.88-.22,1.32-.44,2.43-1.1,4.86-.66,7.51-.22q-.44.22-.66.44c-1.77.44-3.31.88-5.08,1.32-.88.22-1.55.44-2.21,1.32,3.53-.88,6.62-.66,9.71,1.55-.66,0-1.55.22-2.21.22-1.77,0-3.31,0-5.08.22-1.32,0-2.43.88-3.31,1.77.44.44,1.1.22,1.55,0,1.1-.22,2.21-.44,3.31-.44.44,0,.88,0,1.32.22.88.22,1.55.44,2.43.88-1.99.22-3.97.88-5.74,1.77-.66.22-1.55.44-2.43.66-.66.22-1.32.44-1.77.66-.22.22-.44.22-.88.44,0-.44.22-.66.22-.88.22-.88.22-1.77,0-2.65-.66-1.55-.66-3.09-.66-4.64v-.66c-.22.22-.44.22-.44.44-.88,1.1-1.32,2.21-1.1,3.75.44,1.55-.22,2.87-1.1,4.19-.88,1.1-.88,2.43-.88,3.75v.22c.66-.66,1.32-1.32,1.77-2.21.22.44,0,.88,0,1.32-.22,1.32-.44,2.87-.44,4.19s.44,2.65,1.1,4.19c0-.22,0-.44.22-.44l.66-3.97c.44-1.77,1.1-3.53,2.43-4.86l.88-.88c.22,1.1,0,1.99-.44,2.65-.44,1.1-.66,2.21-.44,3.31v.44c.88-1.1,1.55-2.21,1.77-3.31.22-.88.66-1.99.66-2.87,0-.44.22-.66.66-.88,1.32-.66,2.65-1.32,4.19-1.55,1.32-.22,2.43-.44,3.53-1.1-.22.22-.22.44-.44.88-.66,1.1-1.55,1.77-2.43,2.43-1.1.66-2.21,1.55-3.31,2.21q-.22.22-.44.66.44,0,.66-.22c3.31-.88,5.96-2.87,7.95-5.52.88-1.1,1.77-1.99,2.65-3.09.22-.22.66-.66,1.1-.88,0,.22-.22.44-.22.66-.66,1.32-1.1,2.65-1.32,4.19-.22.88-.44,1.55-1.1,2.21-1.1,1.32-2.43,2.21-3.75,3.09-.22.22-.44.22-.66.44,3.31-.44,6.4-1.1,9.05-3.53-.66,3.09-2.87,4.86-5.96,5.74,1.55.22,2.87.22,4.42.44,1.32.22,2.65.88,3.75,1.77-2.65-.44-5.3,0-8.17,0,3.31.88,5.52,2.87,7.29,5.74-2.65-.88-5.08-1.99-7.51-3.53,0,.88.22,1.32.88,1.77,1.77.66,3.09,1.99,4.19,3.53-.88-.22-1.55-.22-2.21-.44s-1.55-.44-2.21-.66l-1.99-.66c1.1,1.32,2.43,2.43,2.43,4.42-.22,0-.22-.22-.44-.22-1.32-.88-2.43-1.77-3.97-2.21-.44-.22-.66-.44-.66-.88,0-2.43.22-4.64,1.1-7.06,0-.22.22-.66.44-1.1-.22.22-.44.22-.44.44-.44.44-.88,1.1-1.32,1.77-1.32,1.77-1.99,3.53-1.77,5.74,0,1.32.22,2.87.44,4.19v.44c-.66-.22-1.55-.88-1.77-1.55-.22-.88-.22-1.55-.44-2.43-.44,1.1-.44,2.21-.66,3.31-.22-2.65-.44-5.3.22-7.95-.66,1.1-1.32,2.21-1.77,3.31s-.44,2.43-.44,3.75c0-.22-.22-.44-.22-.66-.22-.44-.22-1.1-.44-1.32-.88-1.77-1.55-3.53-2.21-5.3q0-.22-.22-.44c-.22.66-.44,4.42-.44,5.3.22,1.77.88,3.31,1.55,5.08-.22-.22-.44-.44-.66-.44-.66-.88-1.32-1.55-1.77-2.43-1.1-1.55-2.43-3.09-3.75-4.42-.44-.44-1.1-.88-1.77-1.1,1.32,2.21,2.65,4.42,3.09,6.84-.22-.22-.44-.22-.44-.44-.88-.66-1.55-1.32-2.43-1.99-1.55-1.1-2.65-2.43-3.75-3.97-.22-.22-.22-.44-.44-.66l-.22-.22c.66,2.87,1.77,5.52,3.97,7.73-1.55-.66-2.87-1.55-3.97-2.87-1.55-1.55-2.21-3.53-2.87-5.52-.44-1.77-.66-3.53-1.1-5.3,0-.22,0-.44-.22-1.1-1.55,2.87-1.32,5.74-1.1,8.61-.66-1.1-1.1-2.43-1.32-3.75s-.22-2.65-.44-3.97c-1.32,4.64-1.77,9.27-.22,14.13-.88-.66-1.32-1.1-1.55-1.99-.44-.66-.66-1.32-1.1-2.21-.22,1.32-.44,2.87-.88,4.19-.66-.22-1.1-.66-1.1-1.32-.22-1.32-1.1-2.43-1.77-3.75v2.65c0,1.1-.44,2.21-1.55,3.09v-.88c.22-1.99,0-3.53-1.1-5.3,0-.22-.22-.22-.44-.44v4.19c-.22,1.32-1.1,2.65-2.43,3.31.22-1.1.44-2.21.44-3.31s0-1.99-.44-3.31c-.88,2.21-2.43,3.53-4.19,5.08,0-.44.22-.66.22-.88.44-1.1,1.1-2.43,1.55-3.53s.88-1.99,1.1-3.09v-.88h-.22c-1.1,1.32-2.21,2.43-3.31,3.53-1.32,1.1-1.99,2.65-2.43,4.42,0,.22-.22.44-.22.66-.22-1.1,0-1.99.22-3.09l.66-1.99c.44-1.1.88-2.43,1.1-3.75v-.88c-.22.22-.22.44-.44.66-.66.88-1.32,1.77-2.21,2.65-.88.88-1.32,1.77-1.77,2.87,0,.22-.22.44-.22.88-.22-1.1,0-1.77,0-2.65.22-1.1.44-2.21,1.1-3.09.88-1.77,1.1-3.75,1.1-5.96v-.22c-.22.22-.22.44-.22.44-.88,1.99-1.77,3.97-3.31,5.74-.66.88-1.1,2.21-1.1,3.31v1.32c0,1.55.66,2.87,1.55,4.19.22.22.44.44.44.66v.22c-.44,0-.66,0-.88-.22-.88-.22-1.77-.44-2.65-.88-.66-.44-1.1-1.1-1.1-1.99,0-.66-.44-1.32-.88-1.99,0,.66,0,1.32-.22,1.77-.22.44-.44,1.1-.66,1.55-.22.44-.66,1.1-1.1,1.55v-3.75c-.22.22-.44.22-.44.44-.66.66-1.1,1.32-1.77,1.99-.88,1.1-2.21,1.77-3.31,2.21.88-1.32,1.99-2.43,2.21-4.42-1.77,1.55-3.75,2.65-6.18,2.87.22-.22.22-.44.44-.44,1.32-1.55,2.87-2.65,4.64-3.53,1.55-.66,2.87-1.55,4.42-2.21.22-.22.44-.22.66-.44v-.22c-1.1,0-2.43.22-3.75.22-2.43.22-4.19,1.32-5.74,3.09,0,0-.22.22-.44.22.88-2.21,1.55-4.42,2.43-6.62-.22.22-.44.22-.44.44-.66.44-1.32,1.1-1.99,1.77-1.77,1.55-2.87,3.31-3.53,5.52-.44,1.32-1.1,2.43-1.99,3.53,0,.22-.22.22-.44.22,1.55-2.65,1.77-5.74,1.99-8.83-.88,1.32-1.55,2.43-2.43,3.75-.66,1.32-1.55,2.65-2.21,3.75.22-2.43.66-5.08,0-7.73-.22.22-.44.44-.44.66-.44,1.32-1.1,2.65-1.55,3.97-.44,1.32-.44,2.87-.22,4.42.22,1.1,0,2.21-.66,3.31,0-.22,0-.66-.22-.88-.22-.88-.22-1.55-.44-2.43-.22-.44-.44-.88-.66-1.1-.66-.88-1.55-1.77-2.65-2.43.22,1.32.66,2.65,1.32,3.53.66,1.1,1.1,2.21.66,3.53-.22.44-.44,1.1-.88,1.55,0-1.55.22-2.87-.88-4.19-.44,1.32-.22,2.87-1.55,4.19,0-1.1.22-2.21.22-3.31s-.44-1.99-.88-3.09c-.22,1.1-.44,2.43-.88,3.53s-.44,2.43-1.55,3.53c-1.1-1.99-1.99-3.53-3.09-5.52-.22,2.21.22,4.19,1.1,5.96-1.32.22-2.65.44-3.75,1.1-.66.22-1.32.44-1.99.22.22-.66.88-.88,1.32-1.32s.88-.88,1.32-1.55h-.44c-1.1.22-1.99.66-2.87.88-1.32.22-2.43.88-3.31,1.77,0,0-.22.22-.44.22.22-.66.66-1.1,1.1-1.55.88-.88,1.55-1.99,2.21-3.09-.44,0-.88,0-1.1.22-1.55.88-2.87,1.99-3.97,3.53-.44.66-.66.88-1.55,1.1,0-.22,0-.66.22-.88,0-.44.22-.88.22-1.32,0-.88.22-1.55.88-1.99-1.55.22-2.43,1.32-3.09,3.53-.66-1.1-.88-2.21-1.55-3.31-.88.88-.66,1.77-.44,2.87-.44-.22-.66-.22-1.1-.44-.88-.44-1.77-.66-2.65-.66-1.32,0-2.43,0-3.75-.44-.44,0-.88-.22-1.1-.44-.66-.44-1.55-.66-2.43-.44-.88,0-1.99.22-2.87.44-1.1.22-2.43.44-3.75.44,1.1-.44,2.43-.88,3.53-1.77-.44-.22-1.77-.22-2.43,0-1.1.44-1.99.88-3.09,1.32-.88.44-1.77.66-2.87.66.44-.22.66-.44,1.1-.88,1.32-1.1,2.43-2.21,3.09-3.97v-.44c-.22,0-.44.22-.66.22-.88.88-1.99,1.55-2.87,2.43-.44.44-.88.88-1.32,1.1.22-.88.66-1.32,1.1-1.99s.66-1.32.88-2.21c-1.1.44-1.99.66-2.43,1.55-.66.66-1.1,1.55-1.55,2.43-.44,1.32-1.55,1.99-2.87,2.21-1.32.22-2.65,0-3.97-.22-.44,0-.88-.44-.88-.88s0-.66-.22-1.1c-1.77.44-3.31,1.32-5.08,1.1.44-.44.88-.66,1.32-.88s.66-.66,1.1-1.1.88-.66,1.32-1.1c-.88,0-1.77.22-2.65.66-.88.44-1.55.88-2.43,1.32.44-.88.88-1.55,1.55-2.21s1.1-1.32,1.32-2.43c-1.1.66-1.99,1.1-2.65,1.99l-1.99,2.65c-.22-.88.22-1.55.22-2.21-1.77.22-3.31,1.1-4.86,2.21.44-.88.88-1.77,1.32-2.43-.66.22-1.32.66-2.21.88-.66.22-1.55.22-2.43.22.88-.66,1.55-1.1,2.21-1.77s1.55-1.1,2.21-1.77c-3.09,0-5.74,1.1-7.95,2.87-.88.66-1.99,1.1-3.09,1.1h-.88c2.21-1.32,4.42-2.87,6.18-4.86-2.21.44-3.97,1.1-5.96,1.99-1.77.88-3.53,1.77-5.52,2.65,0-.22.22-.44.22-.44,1.32-1.77,3.09-3.09,5.3-3.75,1.32-.44,2.65-1.1,3.97-1.77.44-.22.66-.44.88-.66v-.22c-1.99,0-3.75,0-5.74.44-1.55.44-3.09,1.1-4.19,2.43-.66.88-1.77,1.77-2.65,2.43-.22.22-.44.22-.66.44,0-.44.22-.66.22-.88.44-1.55,1.32-2.87,2.43-3.97,2.43-2.65,5.3-5.08,8.83-6.18,1.99-.66,3.97-1.77,5.74-3.09.22,0,.22-.22.44-.44h-1.55c-1.77.22-3.53.88-5.08,1.32-1.32.44-2.43,1.1-3.53,1.99l-3.97,2.65c-.22,0-.44.22-.66.44.22-.22.22-.44.22-.66,1.1-1.55,2.65-2.65,4.19-3.53,1.1-.44,1.99-1.1,2.87-1.77.44-.44,1.1-.88,1.32-1.55-.88-.22-1.77,0-2.43,0-3.97.66-6.4,3.09-7.95,6.62-.44.88-.66,1.77-.88,2.65-.44,1.77-1.32,3.09-2.65,4.42-.44.44-1.1.88-1.55,1.32h-.22c0-.66.22-1.55.44-2.21.44-1.99,1.1-3.75,1.99-5.52.44-1.1,1.32-2.21,2.21-3.09,1.77-1.99,3.75-3.53,5.96-4.86,1.1-.66,2.21-1.1,3.53-1.1.88,0,1.77-.44,2.65-.66,1.32-.44,2.43-.88,3.75-1.55.22,0,.44-.22.66-.44-2.87-1.1-5.74-.44-8.39.66,1.1-1.1,2.21-2.21,2.87-3.53s1.1-2.87,1.1-4.42c-.22.22-.22.44-.44.66-1.1,1.55-2.21,3.09-3.53,4.19-.66.66-1.32,1.32-1.99,2.21,0-1.55.22-2.87-.22-4.42-.44-1.32-1.1-2.65-1.77-3.97-.44,1.32-.22,2.65,0,3.97.22,1.1.22,1.99.44,3.09.22,1.55-.22,2.87-.88,4.19-.22.44-.66,1.1-1.1,1.55.22-.88.44-1.55.44-2.43.22-1.32.22-2.87-.44-4.19-.44-1.32-1.1-2.65-1.99-3.97v.88c0,1.99,0,4.19.22,6.18.22,2.21-.22,4.19-1.1,6.18,0,.22-.22.22-.44.44,0-1.1,0-1.77.22-2.65,0-1.32-.22-2.87-.66-4.19-.44-1.1-.66-2.21-1.1-3.31,0-.22-.22-.44-.22-.44v.66c-.22,1.77,0,3.75.22,5.52.22,1.99,0,4.19,0,6.4-.44-1.32-.66-2.43-1.1-3.75s-1.1-2.21-1.99-3.09c1.32,4.42,1.55,8.83.22,13.47v-.66c0-1.55,0-2.87-.22-4.42s-1.55-3.97-2.65-5.08c.44,1.32.66,2.65,1.1,3.75.22,1.32.22,2.65.22,3.97s-.44,2.65-.88,3.75c0-2.21,0-4.42-.88-6.84-.22,1.1-.22,1.99-.44,3.09-.22,2.21-1.55,3.75-3.31,4.86.22-.66.66-1.55.88-2.21s.44-1.55.88-2.43c-.22.22-.44.22-.66.44-.88.66-1.55,1.55-2.43,2.21-.66.88-1.55,1.32-2.43,1.77,1.55-2.21,3.31-4.42,4.19-7.29-.22.22-.44.22-.66.22-1.55,1.1-3.09,2.21-3.97,4.19l-1.32,1.99c0,.22-.22.22-.44.44,0-.44,0-.88.22-1.1.22-1.1.44-1.99.66-3.09.44-1.1.88-2.21,1.77-3.09l3.31-4.64s.22-.22.22-.44h-.44c-1.55.88-2.87,1.77-3.97,2.87-1.32,1.1-2.21,2.65-2.65,4.42-.44,1.55-.66,3.31-1.1,4.86-.44-.66-.88-3.31-.22-7.06-.44.44-.66.66-.66,1.1-.44.66-.66,1.1-.88,1.77-.44.88-.88,1.55-1.99,1.99.22-1.1.44-1.77.44-2.65v-2.65c-.22.22-.44.22-.44.44-.66.88-1.1,1.77-1.77,2.87s-1.55,1.99-2.87,2.87c.44-1.32.66-2.43.66-3.75,0-1.1-.22-2.43-.44-3.75-.44,1.32-.66,2.43-1.1,3.53s-1.1,1.99-2.21,3.09c0-.88.22-1.32.22-1.99,0-.88,0-1.99-.22-2.87s-.44-1.99-.44-2.87c0,.22-.22.22-.22.44-.44,1.1-.88,2.43-.88,3.75s-.44,2.43-1.32,3.75c-.88-5.08-3.97-8.17-8.39-9.93,1.99,1.55,3.31,3.53,4.42,5.74-1.99-2.65-4.86-3.75-7.95-4.42.22,0,.22.22.44.22.66.44,1.55.88,2.21,1.32,1.55,1.1,2.65,2.43,3.31,4.19v.22c-.88-.66-1.55-1.32-2.43-1.99l-2.65-1.32v.22c.44.44.88.66,1.55,1.1s.88.88,1.32,1.32c.44.44.66,1.1,1.1,1.55l-.22.22c-.66-.22-1.1-.66-1.77-1.1-.22-.22-.66-.44-.88-.66-1.77-1.32-3.53-1.55-5.52-.88-1.55.44-2.87.88-4.42.88h-.66c2.21-3.31,5.08-4.42,9.05-4.42-.44-.66-.88-.88-1.32-.88s-1.1,0-1.55.22c-1.99.44-3.97.66-5.96.88.22-.22.22-.44.44-.66,1.55-1.77,3.75-2.43,5.96-2.65h1.77c-.22-.44-.44-.66-.88-.66-1.32-.44-2.65-.66-3.75-1.1-.44,0-.88-.22-1.32-.44,1.32-.44,2.43-.66,3.75-.44,1.32.22,2.87.22,4.19,0q.22,0,.44-.22c-3.31-.22-5.96-1.77-8.39-3.97,1.1,0,1.99.22,2.87.44s1.77.44,2.43.88c1.32.44,2.65.88,3.97,1.1h.44c-3.31-1.32-5.52-3.31-7.51-5.96h.44c2.21.88,4.42,1.77,6.18,3.31.88.66,1.99,1.32,3.09,1.77v-.66c-.66-1.55-1.77-2.87-3.31-3.53-2.21-1.1-3.97-2.87-5.3-4.86v-.22c1.55,1.1,3.09,1.77,4.64,2.43.44.22.88.44,1.55.88-.22-.66-.44-1.32-.66-1.77,1.55,1.55,2.65,3.31,4.86,3.97-.44-1.1-.66-1.99-1.55-2.65-1.1-.66-1.99-1.55-2.87-2.21-1.32-1.1-2.43-2.43-3.09-3.97,0,0,0-.22-.22-.44h.22c1.99,1.55,3.97,2.65,6.18,3.97,1.55,1.1,3.31,1.99,4.64,3.31,0,0,.22,0,.22.22-.66-1.77-1.55-3.09-2.65-4.19-.66-.66-1.1-1.32-1.55-2.21-.44-.44-.66-1.1-.44-1.99.22.22.44.22.66.22,1.1.88,1.99,1.55,2.87,2.43,1.32,1.1,2.87,1.77,4.64,2.21-.44-1.77-1.32-3.09-2.87-3.97-.88-.44-1.55-.88-2.21-1.55-.22-.22-.44-.44-.44-.88,1.77.44,3.53,1.1,5.52.44-.66-.44-1.55-.44-2.21-.88s-1.32-.44-1.99-.66c-.66-.22-1.55-.22-2.21-.44h-2.21c2.87-2.21,5.96-1.77,9.27-.44-.66-.88-1.32-1.32-2.21-1.77-.66-.22-1.55-.44-2.21-.66-1.32-.44-2.65-.88-3.97-1.55-.22,0-.22-.22-.66-.44,1.77-.22,3.31-.22,5.08,0,1.55.22,3.09.88,4.64,1.32-.88-.88-1.77-1.99-2.65-2.87s-1.99-1.55-3.09-2.43c1.55.22,2.87.66,4.19,1.1,1.32.66,2.43,1.32,3.53,2.21,0-.22,0-.44-.22-.44-.44-1.32-.88-2.65-.88-4.19,0-.88-.44-1.77-.44-2.65,1.77,1.55,2.43,3.75,3.09,5.96.22-1.32.22-2.65.44-3.97.22-1.1.44-2.43.66-3.75-.44,1.99-.44,1.55-.44.88" style="fill: #fff;"/>
    <path d="M299.06,316.89c.44-1.32.44-2.43-.44-3.53-.66-.88-1.1-1.77-1.77-2.65,0-.22-.22-.22-.44-.44,0,1.1.22,1.99.66,3.09.22.44.44.88.66,1.1.66.44.88.88.88,1.55.22.22.22.66.44.88M297.74,247.79v.22c.22,1.32.44,2.87.66,4.19.44,2.21.66,4.19.88,6.4.22,1.55.66,2.87.88,4.42.44,3.53.22,7.06,0,10.6,0,1.77-.44,3.53-.44,5.3,0,1.99.22,3.97.44,5.96.22,2.43.66,4.86,1.55,7.06.66,2.21,1.77,4.42,2.87,6.4.44.88.44,1.55.22,2.43-.22,1.1-.44,2.21-.66,3.09-.88,3.09-.88,6.18-.66,9.27,0,1.1.44,2.43.66,3.53,0,.22.22.66.22,1.1.44-4.42,0-8.61.66-12.8.66,2.43.44,4.86.66,7.29.22,2.43.22,4.86,0,7.29.66-1.99,1.32-3.97,1.32-6.18,0-2.87,0-5.74-.44-8.61-.22-.88-.22-1.55-.22-2.43,1.55,3.09,2.21,5.96,1.99,12.8q.22-.44.22-.66c.44-1.32.66-2.65,1.1-4.19.22-.88.22-1.77.22-2.65,0-1.1-.22-1.99-.44-3.09-.22-2.43-1.1-4.42-2.87-6.18-.44-.44-.88-.88-1.32-1.55-.66-.88-1.32-1.77-1.77-2.87-1.77-3.97-2.65-8.17-2.87-12.58-.22-3.75.44-7.29.66-11.04.44-3.09.44-6.18,0-9.27,0-.66-.22-1.1-.44-1.77-.44-2.87-1.1-5.74-1.77-8.39-.22-.66-.66-1.99-1.32-3.09M196.85,244.7c1.1-.22,2.21,0,3.09-.66-3.97.22-7.73,0-11.48-1.55,0-.66.44-.88.88-.88h1.32c1.32.22,2.65.44,3.97.44,1.55.22,3.31,0,4.86-.44,3.97-.66,8.17-1.55,12.14-2.21,3.31-.44,6.84-.66,10.16-.66,5.52,0,11.04,0,16.56.66,3.75.44,7.29.88,11.04,1.55,4.19.66,8.39.66,12.8,0,3.09-.44,6.18-1.1,9.05-1.77,1.77-.44,3.31-.88,5.08-1.1.88-.22,1.99-.22,2.87,0,3.31.88,6.84,1.1,10.38.88h1.77c2.65,0,4.42,1.1,5.52,3.31.66,1.32,1.32,2.87,1.99,4.42,1.1,2.65,1.99,5.52,2.87,8.17,1.32,4.42,1.77,9.05,1.55,13.69-.22,2.65-.44,5.3-.66,7.73-.44,3.31-.22,6.62.44,10.16.44,2.21.88,4.64,1.99,6.62.66,1.55,1.55,2.87,2.65,3.97,1.99,1.99,3.09,4.19,3.53,7.06.44,2.65.44,5.08,0,7.73,0,.44-.22,1.1-.44,1.55-.88,2.21-1.55,4.42-1.77,6.84-.22,1.32-.44,2.43-1.1,3.53,0,0-.22.22-.22.44h-.22v-2.87h-.22c0,.22-.22.44-.22.66-.66,1.32-1.1,2.65-1.77,3.75-.66,1.32-1.77,1.99-3.09,2.21,1.1-.88,1.1-1.99,1.1-3.31,0-.44.22-1.1.22-1.55.44-1.32.44-2.65,0-3.75-.66-1.99-.88-3.97-1.1-5.96-.22-1.99-.44-3.75-.22-5.74.22-2.21.44-4.19,1.1-6.18.44-1.1.22-1.99-.44-2.87-2.21-4.19-3.75-8.61-4.42-13.47-.22-1.99-.22-4.19-.44-6.18q0-.22-.22-.44,0,.22-.22.44c-.66,2.21-1.32,4.19-1.99,6.4-.66,2.65-1.32,5.52-1.77,8.17-.22,1.99-.22,3.75.44,5.74.44,1.55.66,3.31,1.1,4.86.22.66.44,1.32.88,1.99.88,1.32,1.77,2.87,2.65,4.42l1.32,1.99c.44.44.66,1.1.66,1.77v1.99c0,.44,0,.88-.22,1.32-.66,1.77-1.1,3.53-1.32,5.3,0,.44-.22.66-.66.66s-1.1.22-1.77.22v-.88c0-1.77,0-3.53-.22-5.3,0-.66-.22-1.32-.44-2.21-.88-2.43-1.32-5.08-1.77-7.73-.22-.88-.44-1.77-.88-2.43,0-.22-.22-.22-.22-.44-.22-.22-.44-.22-.66-.22s-.22.22-.44.44c0,.22-.22.66-.22,1.1-.66-.66-.66-1.32-.88-2.21-.88-4.19-.22-8.17.66-12.14.66-2.65,1.1-5.08,1.32-7.73.22-1.55.22-3.31.44-4.86.44-2.65.88-5.52,1.32-8.17,0-.22.22-.44.22-.66h.22c0,.22.22.44.22.44,0,1.77,0,3.75-.22,5.52-.22,1.32-.44,2.65-.44,4.19v-.22c1.32-3.97,1.99-8.17,2.21-12.36,0-1.99.22-3.75.22-5.74,0-4.19,0-8.17-.66-12.14-.44-2.43-1.32-4.86-2.43-7.06-.44-.88-1.1-1.55-2.21-1.77-1.32-.44-2.65-.44-3.97-.44-2.21,0-4.19,0-6.18-.44-.88,0-1.99-.22-2.87-.44-1.77-.44-3.53-.22-5.52.22-3.31.88-6.4,1.55-9.71,2.21-2.87.66-5.52.66-8.39.44-1.99,0-3.97-.22-5.96-.44-1.32-.22-2.65-.44-3.97-.44-2.87-.44-5.96-.88-8.83-1.1-2.21-.22-4.64-.44-6.84-.66-4.64-.44-9.27,0-13.69.44-3.31.44-6.84,1.1-10.16,1.99-1.99.44-4.19,1.1-6.18,1.55-.66.22-1.32.22-1.99.22-.44,1.1-.44.88-.88.44" style="fill: #fff;"/>
    <path d="M262.41,255.52c0,1.1.22,1.77.88,2.65,1.1,1.32,1.77,2.87,2.21,4.42,0,.22.22.66.44,1.1.22-3.09-1.1-6.4-3.53-8.17M257.99,247.57c.22-.22.44-.44.88-.44h1.32c1.1,0,2.43.22,3.53.44,1.1,0,1.99.44,2.87,1.1.44.44,1.1.88,1.55,1.55-.22-1.55-1.77-3.31-3.53-3.97.22-.44.44-.66.88-.66h2.21c1.1.22,2.21.66,3.09,1.1.22,0,.66.44.66.66.44,1.1.88,2.21,1.1,3.31.88,4.42.88,8.83.44,13.25v.44q0,.22-.22.44c0-.44-.22-.88-.22-1.32,0-1.1-.22-1.99-.22-3.09,0-1.77-.44-3.31-1.1-4.86,0,0,0-.22-.22-.44v4.42c0,.88,0,1.99.44,2.87.88,3.31.88,6.4.22,9.49-.44,1.55-.66,3.09-.88,4.64-.22.88,0,1.77,0,2.65,0,.44.22,1.1-.22,1.77l-.66-.66c-1.77-1.99-3.09-3.97-4.19-6.4-.22-.66-.44-1.32-.44-1.99l-.66-3.31c-.44-1.55-.66-3.31-.66-4.86,0-1.1-.44-2.21-.88-3.09-1.32-1.99-3.09-3.53-5.52-4.42-1.55-.44-2.87-.44-4.42,0l-2.65.66h-1.32c-2.21-.44-3.97-1.32-5.96-2.43-.44-.22-.88-.66-1.32-.88-1.32-.88-2.87-1.32-4.64-1.32-.44,0-.88,0-1.32-.22-.66-.44-1.32-.66-1.99-1.1s-1.32-1.1-1.99-1.55c-.66-.66-1.32-1.1-1.99-1.77h3.09c.22,0,.44.22.66.44.88.66,1.55,1.32,2.43,1.99.22.22.66.44,1.1.44-.88-.88-1.77-1.55-2.21-2.87h1.1c1.77.22,3.53.66,5.3.88.66.22,1.55.44,2.21.88,1.55.66,3.09,1.1,4.86,1.77-.88-1.32-2.21-1.77-3.53-2.43.44,0,.66-.22.88-.22,1.55-.22,2.87-.66,4.19-1.55.22-.22.44-.22.66-.44,1.1-.66,2.43-.66,3.53.22,1.32.88,2.65,1.55,3.97,2.43.44.22.88.66,1.32.88.22.22.44.44.44.88-1.77-.88-3.75-1.32-5.74-1.55v.22c1.32.44,2.43,1.1,3.53,1.99.88.66,1.99,1.1,3.09,1.55.44.22,1.1.44,1.77.88s1.32.88,1.99,1.55l1.32,1.32c.22.22.44.22.66.22.44-.44.44-1.1.44-1.55,0-2.43-1.1-4.19-3.09-5.74-1.1-.88-2.43-1.55-3.97-1.99-.44-.22-.88-.22-1.32-.44-.66.44-.66.22-.66.22M245.63,288.85c1.1-.66,2.21-1.1,3.53-1.32,2.21-.22,4.19-.22,6.18.22.88.22,1.55.44,2.21,1.1.22.22.44.44.44,1.1,0,.88.44,1.55.88,2.21,1.1,1.32,1.55,3.09,1.99,4.64v1.32c0,.44-.44.66-.66.22-.22-.22-.44-.44-.66-.88-.88-1.32-1.99-2.43-3.31-3.31-.66-.44-1.1-1.1-1.32-1.77-.66-1.1-1.55-1.77-2.43-2.21-1.77-.88-3.75-1.55-5.74-1.32-.44.22-.66.22-1.1,0q0,.22,0,0M270.14,332.79c.22-1.32.44-2.43.66-3.53,1.1-3.31,3.09-5.52,6.4-6.62,0,.22,0,.44-.22.66,0,.22-.22.44-.22.66-1.32,1.77-2.43,3.53-3.75,5.3-.66,1.1-1.55,2.21-2.43,3.09-.22,0-.22.22-.44.44M233.93,251.99c-.66,0-1.1-.22-1.77-.44-1.32-.44-2.87-.88-4.19-1.32-.88-.22-1.55-.88-2.21-1.55-.44-.44-1.32-.88-1.77-1.32-.22-.22-.66-.22-.88-.44-.22-.22-.44-.22-.22-.66h.44c1.1.22,1.99.44,2.87.66.66,0,1.32.44,1.99.88l.44.44c1.1,1.55,2.87,2.65,4.64,3.31.44,0,.66.22.66.44Z" style="fill: #fff;"/>
    <path d="M278.07,287.97c.44-.22.66-.66,1.1-.88,3.31-1.99,6.62-2.21,9.93-.66,0,0,.22,0,.22.22l.22.22c-.22.22-.44.22-.88.22-.66,0-1.55,0-2.21-.22-2.87-.22-5.74,0-8.17,1.55q0-.22-.22-.44c0,.22,0,0,0,0M322.22,357.51c.66,1.32,1.77,2.43,2.65,3.75,1.1,1.32,1.55,2.87,1.77,4.64-2.65-2.21-3.97-5.08-4.42-8.39M315.16,324.62c-.66,1.32-1.55,2.21-2.87,2.87-.22.22-.66.22-.88.22l-3.31,1.32c.88-1.99,3.97-3.97,7.06-4.42M296.17,325.94c2.21,1.77,3.09,4.19,2.87,7.95,0-.22-.22-.22-.22-.22-.22-1.1-.88-2.21-1.55-3.31-.66-1.55-.88-2.87-1.1-4.42M302.36,322.85c.44,1.1.44,2.21.44,3.31-.22,1.1-.66,2.43-1.1,3.53-.66-2.21-.44-4.86.66-6.84M325.09,356.41c1.1,2.87,2.87,5.52,4.86,7.95-2.87-1.99-4.86-4.42-4.86-7.95M258.86,330.36l.66,2.65c.22,2.65.88,5.08,1.32,7.73.22,1.32.44,2.87.44,4.19.22,2.21.66,4.64.88,6.84l.66,3.31c.22,1.1-.22,2.21-.88,3.09q0-.22-.22-.44c-.66-3.31-1.32-6.62-1.77-9.93-.22-1.32-.66-2.87-.88-4.19,0-.22-.22-.44-.22-.88h-.22c0,1.32-.22,2.65-.22,3.97v3.75c.22,2.87-.22,5.74-.66,8.61q0,.22-.22.44c-.22-2.21-.22-4.42-.66-6.4h-.22c-.22.22-.44.66-.44.88-.88,2.43-2.65,4.19-4.64,5.74-1.55,1.32-3.09,2.65-4.64,4.19-.22.22-.44.44-.44.66,0,0-.22,0-.22-.22s0-.44.22-.66c.88-2.43,1.99-4.64,3.53-6.62s2.65-3.97,3.75-6.18c2.43-4.19,3.53-8.83,4.19-13.47l.66-6.62q0-.22.22-.44M241.65,340.51c1.77.44,3.53,1.1,5.08,2.21.22,0,.22.22.44.22,1.77,1.32,3.31,1.32,5.3.44.44-.22.66-.22,1.1-.66,0,.22-.22.44-.22.44-.44.66-1.1,1.32-1.77,2.21-.88,1.1-2.43,1.32-3.75.22-.88-.66-1.77-1.32-2.43-2.21-1.1-.88-2.43-1.99-3.53-2.87,0,.22-.22,0-.22,0M250.48,341.84c.22-1.55,1.1-2.43,1.99-3.53-.66-.44-1.55-.44-1.99-1.1,1.1-.44,2.43-.66,3.53-1.1s1.99-1.32,2.87-2.21c0,.88-.88,2.87-2.21,4.64-.88.88-2.65,2.43-4.19,3.31M249.15,322.85c.44-.22.66-.44.66-.66.66-.66,1.55-1.32,1.99-2.21.66-1.1,1.77-1.32,2.87-1.32.88,0,1.77.44,2.65.88-.22,0-.22.22-.44.22-1.55.22-3.09.88-4.42,1.77-.88.44-1.99.88-3.09,1.32q.22-.22-.22,0M233.48,312.03c.22.66.22,1.55.22,2.21,0,.88-.22,1.55-.44,2.21-.44,1.32-1.77,1.77-3.09,1.1-.44-.22-.44-.44-.22-.88l.88-.88c1.99-1.55,2.21-1.77,2.65-3.75M232.59,292.17c-3.53,0-5.96-1.32-6.62-4.42.22,0,.44.22.44.22,1.1.66,2.21,1.55,3.31,2.21.66.44,1.55,1.1,2.21,1.55.22.22.44.22.66.44M233.04,280.02c1.99,1.1,2.87,3.53,1.99,6.18-1.1-1.99-1.99-3.97-1.99-6.18M233.92,287.09c-1.1-.88-1.99-1.55-2.87-2.43-.88-.66-1.55-1.55-1.77-2.87.88.22,1.77.66,2.21,1.1,1.32,1.32,1.99,2.65,2.43,4.19M176.52,251.99c.66.44,1.1,1.1,1.77,1.55.22-.22.44-.22.44-.22.44.22.88.88.88,1.32.22.88.66,1.77,1.1,2.43l1.32,1.99c-.22,0-.44-.22-.44-.22-1.1-.88-2.21-1.99-3.09-2.87-.44-.22-.66-.66-1.1-.88-.88-.44-1.32-1.32-1.1-2.43-.22-.22,0-.44.22-.66M186.45,250c1.32,1.1,2.43,2.65,2.87,4.42.22,1.55.66,3.09,1.1,4.42,0,.22,0,.44.22.66h-.22c-.22,0-.44-.22-.44-.44-.66-1.1-1.55-2.43-1.77-3.75-.44-1.55-.88-3.09-1.55-4.64,0,0,0-.22-.22-.66M176.52,251.32c-1.1.66-2.21,1.55-3.53,1.77-1.55.22-3.31-1.55-2.87-3.09,0,0,0-.22.22-.22,0,.22.22.22.22.44.44.88,1.1,1.1,1.77,1.1h3.31c.22,0,.66-.22.88,0ZM180.71,283.56c3.97,2.43,5.96,5.96,7.06,10.38,0-.22-.22-.22-.22-.44-1.1-2.21-2.65-4.19-4.19-6.18-.66-.88-1.55-1.99-2.21-2.87-.22-.44-.22-.66-.44-.88M262.62,326.83c.66-.88,1.55-.88,2.21-1.1,0,.22,0,.44.22.88h.22c0-.22,0-.66.22-.88.22,0,.44,0,.88-.22,0,.44,0,.66.22,1.1h.22c0-.22,0-.66.22-1.1.22,0,.44,0,.66-.22.22.44.44.88.44,1.32h.22v-1.32c.44,0,.88,0,1.55-.22.22.44.22,1.1.44,1.55h.22v-1.55h.88v2.21c.44-.66,0-1.55.22-2.21.66,0,.44.44.66.88.22.22.22.66.44,1.1,0-.66,0-1.1.22-1.99h.88v2.87h.22c.22-.88,0-1.99.22-2.87.66.66.44,1.77.88,2.43v-2.21c.44,0,.66-.22.66.44v1.32c.66-.66.22-1.32.44-1.77.22,0,.44,0,.44.22v1.99h.22v-2.21h.66c.22.88,0,1.99.22,2.87h.22v-2.87c.44.66.22,1.32.66,2.21,0-.66,0-1.32.22-2.21h1.1c.22.88,0,1.99.22,2.87.22-.44.22-.88.22-1.32v-1.32c.66-.22.66.44.66.88.22.44.22.66.44,1.1,0-.66,0-1.32.22-1.99.44.44.22.88.44,1.32,0,.44,0,.88.22,1.1.22-.66-.22-1.55.22-2.21.44,0,.44.22.44.44v1.55c0,.22,0,.44.22.44.22-.88,0-1.55.22-2.65.44.66.44,1.55.66,2.21v-1.77h.66v2.43h.22c0-.22.22-.22.22-.44v-1.55c0-.22,0-.44.44-.22,0,.22,0,.44.22.66h.22c0-.22.22-.44.44-.88.44.44,0,1.1.22,1.55.22,0,.44,0,.44-.22s0-.66.22-1.1c.88.44,1.77.66,2.65,1.32-.22.22-.44.44-.88.44-1.32.66-2.65.88-4.19.88-4.19.22-8.39.44-12.8.22-2.87-.22-5.52-.66-8.17-1.55-.66-.22-1.1-.44-1.55-.66M275.42,330.8v2.87h-3.09v-3.53h.66v3.09l.44.44v-3.53h1.55c.22.22.44.44.44.66M271.01,329.92h.66v3.53c-.66,0-1.32,0-2.21-.22-.22-1.1-.22-2.43-.22-3.75h1.1c0,.88,0,1.77.22,2.65v.66s.22.22.44.22v-3.09ZM287.34,332.34c.22-1.1.44-1.99.66-2.87,0-.22.22-.22.44-.44.44-.22.88-.44,1.55-.66-.22,1.1-.44,2.21-.66,3.09,0,.22-.22.22-.44.44-.44.22-.88.44-1.55.44M267.92,333.01c-.44,0-.88-.22-1.32-.22-.22-1.1-.22-2.43-.22-3.75.66,0,1.1.22,1.55.22v3.75ZM265.93,332.57c-.44-.22-.88-.22-1.32-.44-.22-1.32-.44-2.43-.88-3.75.66.22,1.1.22,1.77.44.22,1.32.44,2.43.44,3.75M285.58,329.7v3.09c-.66,0-1.32.22-1.99.44v-3.53c.44,0,.66,0,1.32-.22-.88,1.1-.66,1.99-.66,3.09.44,0,.44-.22.44-.44,0-.66.22-1.55.22-2.21q.22-.22.66-.22M263.94,331.9q-1.1-.22-1.1-.88c-.22-.88-.22-1.99-.44-3.09.44.22.66.22,1.1.44.22,1.32.44,2.43.44,3.53M269.02,333.23h-.88v-3.75h.88s0,3.75,0,3.75ZM282.49,333.45c-.44-.22-.66-.22-.88-.44,0-.88,0-1.77.22-2.65q0-.44.88-.44c-.22,1.1-.22,2.21-.22,3.53M286.02,329.7h1.1c-.22.88-.22,1.99-.44,2.87,0,.22-.44.22-.66.44v-3.31ZM280.72,332.79c-.22-.22-.44-.44-.44-.66v-1.77c0-.22.22-.22.22-.44.22,0,.44.22.44.22,0,.44.22.88.22,1.1v1.32c-.22,0-.44.22-.44.22M278.95,329.92h1.1v1.99c-1.32-.22-1.32-.44-1.1-1.99M282.71,333.23v-2.87q0-.22.44-.44c.22,1.1,0,2.87-.22,3.31h-.22M277.19,330.14h1.1v.88c-.44-.44-.88-.66-1.1-.88M254.45,258.61c.22,1.55-.22,2.43-1.32,3.31-.44.44-1.1.88-1.77,1.32-1.1.66-1.99,1.55-2.87,2.43-1.1,1.1-2.21,1.99-3.75,2.65-.44.22-.88.44-1.32.88.22-.44.44-.66.66-.88.66-.66,1.55-1.55,2.43-2.21,2.87-1.99,5.3-4.19,7.29-7.06.22,0,.44-.22.66-.44M279.4,347.8h-.66v-7.29h.88c0,2.43,0,4.86-.22,7.29M275.86,340.51h.66c0,2.43,0,4.86-.22,7.51h-.88c.22-2.65.22-5.08.44-7.51M272.55,340.51h.66c0,2.43,0,4.86.22,7.06h-.88c-.22-2.21-.22-4.64,0-7.06M274.76,340.51h.66v7.06l-.22.22-.22-.22v-6.62q-.22-.22-.22-.44M273.66,340.51c.66-.22.66,0,.66.44v6.84c-.44.22-.66,0-.66-.22v-7.06ZM278.07,340.51c0,.22.22.22.22.44v6.84s-.22.22-.44.22c0,0-.22,0-.22-.22v-7.29h.44M282.71,340.07h.66v6.62c0,.22,0,.66-.66.44v-7.06M280.5,340.51v6.84c0,.22,0,.66-.44.44v-6.62q-.22-.66.44-.66M282.49,340.29v6.84c0,.22,0,.44-.44.44-.22-.66-.22-1.32,0-1.77.22-1.55.22-3.31.22-4.86-.44-.44-.44-.66.22-.66M276.97,348.02c0-.22-.22-.22-.22-.44v-1.32c0-1.77,0-3.31.22-4.86,0-.22-.22-.66.44-.88,0,.22.22.44.22.44,0,2.21,0,4.42-.22,6.62-.22,0-.22.22-.44.44M283.59,347.14v-.44c0-1.99.22-3.97.44-5.96,0-.22,0-.66.44-.66.22,2.43,0,4.86-.44,7.06h-.44M281.16,347.58c0-2.43,0-4.86.22-7.29.66,2.43,0,4.86-.22,7.29" style="fill: #fff;"/>
  </g>
</svg>