<svg enable-background="new 0 0 128 128" viewBox="0 0 128 128" xmlns="http://www.w3.org/2000/svg" xmlns:xlink="http://www.w3.org/1999/xlink"><linearGradient id="a" gradientTransform="matrix(.7071 -.7071 .7071 .7071 -29.463 68.997)" gradientUnits="userSpaceOnUse" x1="69.845" x2="69.845" y1="72.22" y2="82.027"><stop offset="0" stop-color="#eee"/><stop offset="1" stop-color="#9e9e9e"/></linearGradient><radialGradient id="b" cx="43.358" cy="4.3333" gradientTransform="matrix(1.0004 0 0 1 -.0267 0)" gradientUnits="userSpaceOnUse" r="82.01"><stop offset="0" stop-color="#e0e0e0"/><stop offset=".2274" stop-color="#dbdbdb"/><stop offset=".4939" stop-color="#cdcdcd"/><stop offset=".7789" stop-color="#b5b5b5"/><stop offset="1" stop-color="#9e9e9e"/></radialGradient><radialGradient id="c" cx="83.25" cy="72.5" gradientUnits="userSpaceOnUse" r="51.6"><stop offset="0" stop-color="#ffa726"/><stop offset=".0404" stop-color="#ffa623"/><stop offset=".5168" stop-color="#ff9800"/><stop offset="1" stop-color="#fb8c00"/></radialGradient><radialGradient id="d" cx="23.025" cy="23.5" gradientUnits="userSpaceOnUse" r="65.078"><stop offset="0" stop-color="#b3e5fc"/><stop offset=".1696" stop-color="#ade3fc"/><stop offset=".3927" stop-color="#9dddfb"/><stop offset=".6456" stop-color="#81d4fa"/><stop offset=".9186" stop-color="#5cc7f8"/><stop offset="1" stop-color="#4fc3f7"/></radialGradient><radialGradient id="e" cx="77.192" cy="74.667" gradientTransform="matrix(1.0004 0 0 1 -.0267 0)" gradientUnits="userSpaceOnUse" r="12.886"><stop offset="0" stop-color="#e0e0e0"/><stop offset="1" stop-color="#9e9e9e"/></radialGradient><path d="m98.78 90.08-8.45 8.5-33.79-33.98 8.45-8.49z" fill="url(#a)"/><path d="m64.98 60.37 29.56 29.72-4.22 4.24-29.56-29.72zm0-4.26-8.45 8.49 33.79 33.98 8.45-8.49z" fill="#424242" opacity=".2"/><ellipse cx="44.81" cy="45.03" fill="url(#b)" rx="40.81" ry="41.03"/><path d="m108.32 89.31c-6.48-6.52-13.55-11.1-19.48-13.06-1.62-.54-3.07-1.49-4.28-2.71l-1.78-1.79-10.75 10.8 1.78 1.79c1.21 1.21 2.16 2.67 2.69 4.3 1.96 5.96 6.51 13.06 12.99 19.58 7.31 7.35 15.36 12.23 21.69 13.69l.88.89c1.59 1.59 4.16 1.59 5.74 0l1.59-1.6c.37-.24.71-.51 1.02-.81.31-.31.58-.65.81-1.02l1.59-1.6c1.59-1.59 1.59-4.18 0-5.77l-.88-.89c-1.45-6.35-6.3-14.45-13.61-21.8z" fill="url(#c)"/><path d="m44.81 7c10.1 0 19.59 3.95 26.73 11.13 14.75 14.83 14.75 38.97 0 53.8-7.14 7.18-16.63 11.13-26.73 11.13s-19.59-3.95-26.73-11.13c-14.75-14.83-14.75-38.97 0-53.8 7.14-7.18 16.64-11.13 26.73-11.13m0-3c-10.44 0-20.89 4.01-28.86 12.02-15.94 16.02-15.94 42 0 58.03 7.97 8.01 18.41 12.02 28.86 12.02s20.89-4.01 28.86-12.02c15.94-16.02 15.94-42 0-58.03-7.97-8.01-18.41-12.02-28.86-12.02z" fill="#424242" opacity=".2"/><path d="m82.78 76c1.51 1.42 3.26 2.49 5.11 3.1 5.72 1.9 12.39 6.39 18.3 12.33 6.64 6.68 11.44 14.29 12.82 20.35l.19.84.61.61.88.89c.42.43.42 1.12 0 1.54l-1.59 1.6-.23.23-.17.28c-.13.2-.26.37-.41.51-.15.15-.31.28-.51.41l-.27.18-.23.23-1.59 1.6c-.27.27-.58.31-.74.31s-.48-.04-.74-.31l-.88-.89-.61-.61-.84-.19c-6.03-1.39-13.59-6.2-20.23-12.88-5.91-5.94-10.38-12.65-12.27-18.4-.61-1.86-1.68-3.64-3.1-5.15zm-.01-4.25-10.75 10.8 1.78 1.79c1.21 1.21 2.16 2.67 2.69 4.3 1.96 5.96 6.51 13.06 12.99 19.58 7.31 7.35 15.36 12.23 21.69 13.69l.88.89c.79.8 1.83 1.2 2.87 1.2s2.08-.4 2.87-1.2l1.59-1.6c.37-.24.71-.51 1.02-.81.31-.31.58-.65.81-1.02l1.59-1.6c1.59-1.59 1.59-4.18 0-5.77l-.88-.89c-1.45-6.36-6.3-14.45-13.61-21.8-6.48-6.52-13.55-11.1-19.48-13.06-1.62-.54-3.07-1.49-4.28-2.71z" fill="#424242" opacity=".2"/><ellipse cx="44.73" cy="44.95" fill="url(#d)" rx="33.04" ry="33.22"/><path d="m44.73 14.73c8.02 0 15.56 3.14 21.23 8.84 11.72 11.78 11.72 30.96 0 42.74-5.67 5.7-13.21 8.84-21.23 8.84s-15.56-3.14-21.23-8.84c-11.72-11.78-11.72-30.96 0-42.74 5.66-5.7 13.21-8.84 21.23-8.84m0-3c-8.46 0-16.91 3.24-23.36 9.73-12.9 12.97-12.9 34 0 46.98 6.45 6.49 14.91 9.73 23.36 9.73s16.91-3.24 23.36-9.73c12.9-12.97 12.9-34 0-46.98-6.45-6.49-14.91-9.73-23.36-9.73z" fill="#039be5" opacity=".2"/><path d="m87.19 77.1-9.99 10.05c-1.13 1.14-2.96 1.14-4.09 0l-.96-.97c-1.13-1.14-1.13-2.98 0-4.11l9.99-10.05c1.13-1.14 2.96-1.14 4.09 0l.96.97c1.13 1.14 1.13 2.98 0 4.11z" fill="url(#e)"/><path d="m84.18 73.17c.14 0 .4.03.63.26l.96.97c.35.36.35.93 0 1.29l-9.99 10.05c-.23.23-.49.26-.63.26s-.4-.03-.63-.26l-.96-.97c-.35-.36-.35-.93 0-1.29l9.99-10.05c.23-.22.5-.26.63-.26m0-2c-.74 0-1.48.28-2.04.85l-9.99 10.05c-1.13 1.14-1.13 2.98 0 4.11l.96.97c.56.57 1.3.85 2.04.85s1.48-.28 2.04-.85l9.99-10.05c1.13-1.14 1.13-2.98 0-4.11l-.96-.97c-.56-.56-1.3-.85-2.04-.85z" fill="#424242" opacity=".2"/></svg>