<svg xmlns="http://www.w3.org/2000/svg"  viewBox="0 0 40 40" width="40px" height="40px"><path fill="#ffeea3" d="M20,38.5C9.799,38.5,1.5,30.201,1.5,20S9.799,1.5,20,1.5S38.5,9.799,38.5,20S30.201,38.5,20,38.5z"/><path fill="#f5c276" d="M20,2c9.925,0,18,8.075,18,18s-8.075,18-18,18S2,29.925,2,20S10.075,2,20,2 M20,1 C9.507,1,1,9.507,1,20s8.507,19,19,19s19-8.507,19-19S30.493,1,20,1L20,1z"/><g><path fill="#f78f8f" d="M17.5,30.5c-2.757,0-5-2.243-5-5s2.243-5,5-5c0.795,0,1.56,0.186,2.272,0.551l0.728,0.373V8.809 l7,3.5v3.874l-5-2.556v12.168l-0.023,0.16C22.243,28.546,20.104,30.5,17.5,30.5z"/><path fill="#c74343" d="M21,9.618l6,3v2.748l-3.545-1.812L22,12.811v1.634v11.231l-0.021,0.234 C21.768,28.242,19.843,30,17.5,30c-2.481,0-4.5-2.019-4.5-4.5s2.019-4.5,4.5-4.5c0.714,0,1.402,0.167,2.044,0.495L21,22.24v-1.635 V9.618 M20,8v12.605C19.249,20.221,18.401,20,17.5,20c-3.038,0-5.5,2.462-5.5,5.5c0,3.038,2.462,5.5,5.5,5.5 c2.869,0,5.222-2.197,5.475-5H23V14.445L28,17v-5L20,8L20,8z"/></g></svg>