<svg enable-background="new 0 0 128 128" viewBox="0 0 128 128" xmlns="http://www.w3.org/2000/svg" xmlns:xlink="http://www.w3.org/1999/xlink"><linearGradient id="a" gradientUnits="userSpaceOnUse" x1="61.0205" x2="61.0205" y1="21.179" y2="45.167"><stop offset=".4803" stop-color="#ffd600"/><stop offset=".5419" stop-color="#fdd835"/><stop offset=".5827" stop-color="#ffe81f"/></linearGradient><linearGradient id="b" gradientUnits="userSpaceOnUse" x1="105.5" x2="105.5" y1="37.577" y2="48.648"><stop offset="0" stop-color="#ff6d00"/><stop offset=".2911" stop-color="#f86a00"/><stop offset=".7064" stop-color="#e56200"/><stop offset="1" stop-color="#d45a00"/></linearGradient><linearGradient id="c" gradientTransform="matrix(-1 0 0 1 139.57 0)" gradientUnits="userSpaceOnUse" x1="75.378" x2="75.378" y1="47.304" y2="106.63"><stop offset=".0013221" stop-color="#ff8c00"/><stop offset=".2772" stop-color="#ff7500"/><stop offset=".7415" stop-color="#ff5400"/><stop offset=".9962" stop-color="#ff4800"/></linearGradient><path d="m100.5 31.14h-6.84c-1.15-5.9-6.37-10.39-12.59-10.39h-46.7c-7.06 0-12.83 5.78-12.83 12.83 0 7.06 5.78 12.83 12.83 12.83h46.69c6.22 0 11.44-4.49 12.59-10.39h6.84v-4.88z" fill="url(#a)"/><path d="m34.72 28.97h42.5c.73 0 1.32-.73 1.32-1.64s-.59-1.64-1.32-1.64h-42.5c-.73 0-1.32.73-1.32 1.64s.59 1.64 1.32 1.64z" fill="#fff" opacity=".88"/><path d="m105.5 36.75h3.06v12.23h-3.06-3.06v-12.23z" fill="url(#b)"/><path d="m100.5 39.39h10.01c1.79 0 3.26-1.47 3.26-3.26v-7.02c0-1.79-1.47-3.26-3.26-3.26h-10.01c-1.79 0-3.26 1.47-3.26 3.26v7.02c0 1.79 1.46 3.26 3.26 3.26z" fill="#fe7e00"/><path d="m5.75 53.86h4.14v7h-4.14c-.96 0-1.75-.79-1.75-1.75v-3.5c0-.97.79-1.75 1.75-1.75z" fill="#00cc2c"/><g fill="#006e9c"><path d="m78.09 77.96h5.67v6.37h-5.67z" transform="matrix(-1 0 0 -1 161.86 162.29)"/><path d="m78.45 80.46v.68.68h-7.52v-.68-.68z"/><path d="m70.91 77.74c.56 0 1.02.46 1.02 1.02v4.76c0 .56-.46 1.02-1.02 1.02s-1.02-.46-1.02-1.02v-4.76c0-.56.46-1.02 1.02-1.02z"/></g><path d="m11.19 51.92h2.72v10.88h-2.72c-1.5 0-2.72-1.22-2.72-2.72v-5.44c0-1.5 1.22-2.72 2.72-2.72z" fill="#00e531"/><path d="m121.28 56v1.36 1.36h-2.72v-1.36-1.36z" fill="#ffefda"/><path d="m121.66 50.99c.25-.26.6-.43.98-.43.75 0 1.36.61 1.36 1.36v10.88c0 .38-.16.72-.41.97-.25.24-.58.39-.95.39-.75 0-1.36-.61-1.36-1.36v-10.88c0-.36.15-.69.38-.93z" fill="#00e531"/><path d="m117.84 54.8c.43.23.72.68.72 1.19v2.72c0 .75-.61 1.36-1.36 1.36v-5.44c.23.01.45.07.64.17z" fill="#00e531"/><path d="m117.2 54.64v5.44c0 1.5-1.22 2.72-2.72 2.72v-10.88c1.5 0 2.72 1.22 2.72 2.72z" fill="#ffe225"/><path d="m13.91 51.92v10.88c0 2.99 2.45 5.44 5.44 5.44h27.18c0 4.48 3.66 8.14 8.13 8.15 1.51 0 2.74 1.21 2.74 2.72v4.08c0 2.99 2.45 5.44 5.44 5.44h20.51l5.68 16.25c0 1.31 1.07 2.39 2.39 2.39h15.12c.44 0 .85-.12 1.2-.33.94-.55 1.29-1.75.94-2.78l-10.09-27.97c5.31 0 7.74-4.07 7.74-7.96h2.72c2.99 0 5.44-2.45 5.44-5.44v-10.88c0-2.76-2.08-5.05-4.75-5.39-.22-.03-.45-.05-.68-.05h-89.72c-2.99.01-5.43 2.46-5.43 5.45zm46.21 24.46h19.16l3.17 9.51h-19.62c-1.5 0-2.72-1.22-2.72-2.72v-6.79z" fill="url(#c)"/><path d="m100.25 68.31h-47c-.66 0-1.19-.54-1.19-1.19s.53-1.19 1.19-1.19h47c.66 0 1.19.54 1.19 1.19s-.53 1.19-1.19 1.19z" fill="#cf5d00" opacity=".69"/><g style="fill:none;stroke:#da3f00;stroke-linecap:round;stroke-linejoin:round;stroke-miterlimit:10;stroke-width:3"><path d="m87.67 80.49h10.66"/><path d="m89.33 86.08h10.67"/><path d="m91 91.66h10.67"/><path d="m93.17 97.24h10.66"/></g><g fill="#ffea00"><path d="m34.61 71.33h.06c.6 0 1.09-.49 1.09-1.09v-25.49c0-.6-.49-1.09-1.09-1.09h-.06c-.6 0-1.09.49-1.09 1.09v25.48c-.01.61.49 1.1 1.09 1.1z"/><path d="m29.83 71.33h.06c.6 0 1.09-.49 1.09-1.09v-25.49c0-.6-.49-1.09-1.09-1.09h-.06c-.6 0-1.09.49-1.09 1.09v25.48c0 .61.49 1.1 1.09 1.1z"/></g><path d="m81.07 23.75c4.69 0 8.75 3.35 9.65 7.96.15.78.6 1.44 1.21 1.87-.61.43-1.05 1.09-1.21 1.87-.9 4.61-4.96 7.96-9.65 7.96h-45.32c-.37 0-.73.07-1.06.19-.3-.13-.63-.21-.97-.23-.66-.04-1.31-.15-1.94-.33-.26-.07-.53-.11-.8-.11h-.14c-.22-.22-.48-.4-.77-.55-3.36-1.66-5.53-5.12-5.53-8.82 0-5.42 4.41-9.83 9.83-9.83h46.7m29.43 5.13c.13 0 .26.12.26.26v7.02c0 .13-.12.26-.26.26h-1.94c-1.66 0-3 1.34-3 3v7.1c0 1.66 1.34 3 3 3h.49c.08 0 .18.01.3.02 1.22.15 2.13 1.19 2.13 2.41 0 1.57 1.2 2.85 2.73 2.99.09 1.06.74 1.97 1.66 2.42 0 .01.01.02.01.03s-.01.02-.01.03c-.91.45-1.56 1.36-1.66 2.42-1.53.14-2.73 1.42-2.73 2.99 0 1.34-1.09 2.44-2.44 2.44h-2.72c-1.66 0-3 1.34-3 3 0 .83-.23 4.96-4.74 4.96-.98 0-1.89.48-2.46 1.28-.56.8-.7 1.82-.37 2.74l9.78 27.04h-13.56c-.03-.13-.06-.25-.11-.38l-5.68-16.25c-.16-.47-.44-.88-.78-1.2.09-.49.05-.99-.11-1.47l-.52-1.57c-.41-1.22-1.55-2.05-2.85-2.05h-.88c-.01-.06-.02-.13-.04-.19.03-.15.06-.3.07-.46.45-.21.85-.54 1.16-.96.56-.78.72-1.79.41-2.7l-.53-1.58c-.41-1.23-1.55-2.05-2.85-2.05h-19.14c-.89 0-1.68.38-2.23 1-.92-.62-2.03-.99-3.22-1-2.83-.01-5.14-2.32-5.14-5.15 0-1.66-1.34-3-3-3h-10.78c-.4 0-.77.08-1.12.22-.35-.14-.72-.22-1.12-.22h-2.54c-.4 0-.77.08-1.12.22-.35-.14-.72-.22-1.12-.22h-9.39c-1.34 0-2.44-1.09-2.44-2.44 0-1.66-1.34-3-3-3h-2.5c-.44-1.16-1.55-1.94-2.81-1.94h-1.59v-1h1.6c1.25 0 2.37-.78 2.81-1.94h2.5c1.66 0 3-1.34 3-3 0-1.34 1.09-2.44 2.44-2.44h9.4c.4 0 .77-.08 1.12-.22.35.14.72.22 1.12.22h2.54c.4 0 .77-.08 1.12-.22.35.14.72.22 1.12.22h66.68c1.66 0 3-1.34 3-3v-7.1c0-1.66-1.34-3-3-3h-1.94c-.13 0-.26-.12-.26-.26v-.1c0-1.01-.5-1.9-1.26-2.44.76-.54 1.26-1.44 1.26-2.44v-2.03c0-.13.12-.26.26-.26h9.99m-29.43-8.12h-46.7c-7.06 0-12.83 5.78-12.83 12.83 0 5.04 2.95 9.41 7.2 11.51v1.39h-9.4c-2.99 0-5.44 2.45-5.44 5.44h-2.72c-1.22 0-2.25.82-2.59 1.94h-2.84c-.96 0-1.75.78-1.75 1.75v3.5c0 .96.79 1.75 1.75 1.75h2.85c.34 1.11 1.37 1.94 2.59 1.94h2.72c0 2.99 2.45 5.44 5.44 5.44h9.39v2.01c0 .6.49 1.09 1.09 1.09h.06c.6 0 1.09-.49 1.09-1.09v-2.01h2.54v2.01c0 .6.49 1.09 1.09 1.09h.06c.6 0 1.09-.49 1.09-1.09v-2.01h10.78c0 4.48 3.66 8.14 8.13 8.15 1.51 0 2.74 1.21 2.74 2.72v4.08c0 2.99 2.45 5.44 5.44 5.44h20.51l5.68 16.25c0 1.31 1.07 2.39 2.39 2.39h15.12c.44 0 .85-.12 1.2-.33.94-.55 1.29-1.75.94-2.78l-10.1-27.97c5.31 0 7.74-4.07 7.74-7.96h2.72c2.99 0 5.44-2.45 5.44-5.44 1.5 0 2.72-1.22 2.72-2.72.75 0 1.36-.61 1.36-1.36h2.72v4.08c0 .75.61 1.36 1.36 1.36.37 0 .71-.15.95-.39.25-.25.41-.59.41-.97v-10.88c0-.75-.61-1.36-1.36-1.36-.39 0-.73.16-.98.43-.23.24-.38.57-.38.93v4.09h-2.72c0-.52-.3-.96-.72-1.19-.19-.1-.4-.17-.64-.17 0-1.5-1.22-2.72-2.72-2.72 0-2.76-2.08-5.05-4.75-5.39-.22-.03-.45-.05-.68-.05h-.49v-7.1h1.94c1.79 0 3.26-1.47 3.26-3.26v-7.02c0-1.79-1.47-3.26-3.26-3.26h-10.01c-1.79 0-3.26 1.47-3.26 3.26v2.03h-3.58c-1.15-5.89-6.37-10.38-12.59-10.38zm-45.32 25.73v-.06h45.31c6.22 0 11.44-4.49 12.59-10.39h3.58v.1c0 1.79 1.47 3.26 3.26 3.26h1.94v7.1h-66.68zm-4.77 0v-.54c.82.23 1.67.37 2.54.43v.11zm31.86 39.42c-1.5 0-2.72-1.22-2.72-2.72v-6.8h19.16l.53 1.58h-1.71v2.5h-6.16v-1.7c0-.56-.46-1.02-1.02-1.02s-1.02.46-1.02 1.02v4.76c0 .56.46 1.02 1.02 1.02s1.02-.46 1.02-1.02v-1.7h6.16v2.51h3.84l.52 1.57z" fill="#424242" opacity=".2"/></svg>