<svg xmlns:xlink="http://www.w3.org/1999/xlink" class="" width="26" height="56" viewBox="0 0 26 56" fill="none" xmlns="http://www.w3.org/2000/svg">
    <mask id="mask0_11250_122" style="mask-type:alpha" maskUnits="userSpaceOnUse" x="0" y="8" width="26" height="39" fill="none">
    <path d="M26 10.3951V33.3429C26 35.043 25.3097 36.8065 23.9488 38.5826C22.8844 39.972 21.4071 41.3778 19.5529 42.7596C16.4182 45.0998 13.0007 46.703 13.0007 46.703C13.0007 46.703 9.5827 45.0998 6.4484 42.7596C4.5956 41.3778 3.1169 39.972 2.05255 38.5826C0.69028 36.8065 0 35.043 0 33.3429V10.4026L10 8.70297C10.1992 9.07804 10.6482 9.48561 11 9.70297C11.3518 9.92033 12 10.4027 13 10.4025C14 10.4024 14.6474 9.92166 15 9.70297C15.3526 9.48428 15.8014 9.08001 16 8.70297L26 10.3951Z" fill="#C4C4C4"></path>
    </mask>
    <g mask="url(#mask0_11250_122)" fill="none">
    <path fill-rule="evenodd" clip-rule="evenodd" d="M-1 6.70297H28V46.703H-1V6.70297ZM22.0064 31.6089C21.3393 30.8724 19.472 29.3269 18.6829 28.8402C20.1961 27.4861 23.7435 23.4201 21.7304 17.8033C21.6872 17.6831 21.517 17.7192 21.5178 17.8633C21.5297 20.134 20.9754 21.5838 20.9754 21.5838C21.3037 19.0419 20.6663 16.7968 19.7579 15.4507C19.644 15.2817 19.4419 15.4004 19.4676 15.5913C19.8856 18.6016 19.0686 20.6949 18.3793 21.9254C18.2405 21.7162 18.0859 21.5192 17.9171 21.3364C17.9069 21.3262 17.8944 21.319 17.8808 21.3153C17.8672 21.3117 17.853 21.3118 17.8395 21.3157C17.8259 21.3195 17.8135 21.327 17.8035 21.3373C17.7935 21.3477 17.7861 21.3606 17.7821 21.3749C17.6388 21.7974 17.6127 22.3372 17.6127 22.3372L17.2499 21.8293C17.2413 21.8167 17.2298 21.8067 17.2164 21.8003C17.2031 21.7938 17.1884 21.7911 17.1738 21.7925C17.1591 21.7938 17.1451 21.7992 17.133 21.808C17.1209 21.8168 17.1112 21.8288 17.1048 21.8428C16.5994 22.7832 16.4369 23.7874 16.3843 24.2883C15.1508 25.2914 12.5678 26.7996 9.16482 25.7347C4.86462 24.3896 3.74041 20.167 3.63181 19.7589C3.62711 19.7414 3.62432 19.7309 3.62322 19.728C3.61572 19.7101 3.60321 19.695 3.58751 19.6848C3.57171 19.6745 3.55341 19.6696 3.53491 19.6705C3.51651 19.6715 3.49871 19.6783 3.48401 19.6901C3.46921 19.702 3.45822 19.7182 3.45241 19.7368C3.23982 20.3922 3.00902 24.3805 5.66861 27.632C5.98111 28.0182 6.32181 28.3779 6.68731 28.7077C5.84151 29.2918 4.27382 30.8367 3.59141 31.5092L3.50351 31.5958C3.30541 31.7909 3.46251 31.9216 3.58441 31.8801C3.86361 31.7849 4.21439 31.6381 4.63654 31.4613L4.64381 31.4583C5.25881 31.2006 6.02452 30.8798 6.93982 30.5628C6.35942 30.9662 4.40651 32.6234 3.66421 33.3172C3.39581 33.5681 3.55792 33.7521 3.73972 33.686C4.00146 33.5908 4.32528 33.456 4.70353 33.2986L4.70551 33.2978L4.70562 33.2977C6.46573 32.5649 9.40168 31.3426 12.7296 31.3426C16.0828 31.3426 19.1186 32.6024 20.8585 33.3245L20.8667 33.3279C21.2315 33.4792 21.539 33.6067 21.7801 33.6937C21.9303 33.7479 22.0997 33.5554 21.8918 33.3648C21.0211 32.5666 18.9503 30.9354 18.3833 30.5624C19.2364 30.8586 20.0106 31.1591 20.65 31.4073C21.1716 31.6098 21.6036 31.7775 21.9157 31.8797C22.0485 31.9269 22.1693 31.789 22.0064 31.6089ZM18.6242 24.2472C18.8622 24.2472 19.0551 24.0429 19.0551 23.7908C19.0551 23.5388 18.8622 23.3344 18.6242 23.3344C18.3861 23.3344 18.1932 23.5388 18.1932 23.7908C18.1932 24.0429 18.3861 24.2472 18.6242 24.2472Z" fill="#111111"></path>
    <path d="M1.5971 38.5041L1.61898 38.5312C2.71369 39.8923 4.28647 41.3304 6.33977 42.7905C8.06907 44.0198 9.89367 45.0675 11.2985 45.8122C11.9099 46.1361 12.4364 46.4004 12.8332 46.5937C13.2304 46.4001 13.7569 46.1363 14.3686 45.8122C15.7637 45.0728 17.5726 44.0347 19.2906 42.8161L19.3272 42.7901C21.3725 41.3366 22.9407 39.9042 24.0337 38.5485L24.0479 38.5309C25.4465 36.793 26 35.2614 26 33.9593V10.2382L15.9708 8.76749C15.1493 9.53408 14.0458 10.0056 12.8333 10.0056C11.6251 10.0056 10.5247 9.53711 9.70397 8.77431L-0.333374 10.2463V33.9593C-0.333374 35.2546 0.214816 36.7775 1.5971 38.5041ZM1.5971 38.5041C1.59692 38.5038 1.59727 38.5043 1.5971 38.5041Z" stroke="#111111" fill="none"></path>
    </g>
  </svg>