<?xml version="1.0" encoding="UTF-8"?>
<svg id="Layer_1" xmlns="http://www.w3.org/2000/svg" viewBox="0 0 500 500">
  <circle cx="250" cy="250" r="242.58" style="fill: #0f0f17; stroke: #000; stroke-miterlimit: 10; stroke-width: 5px;"/>
  <path d="M74.57,233.31h0s0,0,0,0M75.25,233.09c-.23.07-.46.15-.68.23-1.1-3.18-1.86-6.46-2.28-9.8-.23-1.82-.35-3.65-.37-5.48,0-.2.14-.36.34-.4,1.21-.25,2.45-.26,3.66-.05.6.11,1.14.26,1.6.43.21.08.31.31.23.52,0,.02-.01.03-.02.05-.18.33-.33.67-.47,1.01-2.08,5.18-1.95,9.67-1.31,13.3-.24.06-.47.12-.7.19M72.22,234.38c.42-.25.87-.47,1.32-.65-.75-2.07-1.41-4.16-1.98-6.29-.8-3.01-1.39-6.08-1.77-9.17-.02-.19-.17-.33-.36-.35-.3-.02-.6-.03-.9-.02-2.52.09-4.46,1.38-5.55,2.3-.17.14-.19.4-.05.57,0,0,.01.01.02.02,3.84,3.97,6.97,8.57,9.28,13.58h0ZM71.21,235.03l.1-.07h0c-.54-1.17-1.14-2.31-1.8-3.41-2.2-3.62-5.05-6.8-8.39-9.4-.13-.11-.33-.12-.47-.03-.51.33-1.09.79-1.64,1.43-.95,1.11-1.58,2.46-1.83,3.9-.04.24.12.45.36.47.96.11,1.95.34,3.04.73,4.84,1.74,8.01,5.1,9.64,7.14.16-.14.33-.28.51-.42l.04-.04c.15-.11.29-.22.43-.32M153.59,224.22h-3.54c-.23,0-.45.13-.56.33l-.06.07-.3.41c-.07.08-.11.19-.11.29,0,.03,0,.07.02.11.06.19.25.28.46.37h.03c.22.1.43.19.5.37.02.04.02.09.02.14-.02.23-.09.45-.21.64,0,0-4.96,9.15-6.17,11.41l-1.8-11.26c-.02-.09-.02-.17-.02-.26,0-.54.33-.69.73-.86.28-.09.53-.27.71-.5,0,0,.31-.47.31-.47.11-.16.13-.37.04-.54-.06-.08-.14-.14-.23-.18-.09-.04-.19-.05-.29-.04h-4.68c-.39,0-.64.03-.86.4l-.29.47c-.06.09-.09.19-.1.3,0,.05.01.1.03.14.08.16.23.27.41.31,1.01.29,1.09.31,1.28,1.44l2.5,14.73.13.8c.04.26.27.45.53.45h.46c.28,0,.53-.15.66-.39l.43-.77,7.88-14.29h0c.35-.63.75-1.35,1.41-1.76l.39-.19h.01c.32-.14.59-.26.76-.57l.21-.43c.06-.08.09-.18.09-.29,0-.06-.02-.12-.05-.18-.13-.21-.42-.2-.71-.2h-.02ZM155.56,226.64c0-1.06.72-1.86,1.76-1.86s1.44.98,1.44,1.54c0,1.2-.79,1.92-1.73,1.92-1.06,0-1.47-.9-1.47-1.59M173.88,226.64c0-1.06.72-1.86,1.76-1.86s1.44.98,1.44,1.54c0,1.2-.77,1.92-1.73,1.92-1.07,0-1.47-.9-1.47-1.59M213.88,275.07c-3.49,0-7.26-2.97-7.26-9.48l-.02-.02c0-7.8,6.36-16.5,15.48-16.5,2.17,0,4.31.46,6.28,1.35l.56.35c1.1.63,1.97,1.12,1.53,3.99l-2.64,13.74c-.13.75-.22,1.49-.06,1.82.15.33.75.21.75.21l1.31-.3h.07c.59-.11,1.19-.22,1.28.33,0,0,.2,1.07.2,1.1.06.72-.58.94-1.26,1.19l-.29.11-6.01,2.09c-.7.25-1.47-.12-1.72-.82-.08-.24-.1-.49-.05-.74.21-.94.45-2,.64-2.9l.39-1.77c-2.05,3.13-5.95,6.23-9.17,6.23M221.73,251.61c-5.72,0-9.99,7.73-9.99,14.64h0c0,.91.16,5.43,3.24,5.43,4,0,10.38-8.9,10.38-16.3,0-3.41-2.55-3.77-3.64-3.77M408,265.52c0,6.51,3.76,9.48,7.26,9.48,3.22,0,7.12-3.09,9.17-6.23l-1.03,4.67c-.16.73.3,1.44,1.03,1.6.24.05.5.04.73-.05l6.01-2.09.29-.11c.69-.24,1.32-.47,1.27-1.19,0-.03-.2-1.1-.2-1.1-.09-.56-.7-.45-1.28-.35h-.07s-1.31.31-1.31.31c0,0-.59.11-.75-.21-.15-.33-.07-1.07.07-1.82l2.64-13.74c.44-2.87-.42-3.36-1.53-3.99l-.56-.35c-1.97-.9-4.11-1.36-6.28-1.35-9.12,0-15.48,8.7-15.48,16.5h.02ZM413.12,266.18c0-6.91,4.27-14.64,9.99-14.64,1.09,0,3.64.37,3.64,3.77,0,7.4-6.38,16.3-10.38,16.3-3.09,0-3.24-4.52-3.24-5.42h0ZM199.59,238.22h4.99-.02s.96-.04,1.27.37c.25.28.3.7.18,1.35l-5.48,28.55-.24,1.26c-.07.37.17.73.54.79.09.02.18.02.26,0l1.74-.38c.4-.08.98-.19,1.07.4l.2,1.1s.04.32-.15.56c-.34.44-1.24.66-1.24.66l-6.21,2.06-.19.06c-.64.22-1.34-.13-1.55-.77-.07-.2-.08-.4-.05-.61l.03-.18h0s.04-.21.04-.21l5.81-29.98c.27-1.2,0-1.48-.29-1.76-.29-.3-.74-.49-1.14-.65l-.06-.03c-.55-.22-1.13-.46-1-1,0,0,.29-.88.29-.86.2-.71.62-.73,1.04-.75h.15ZM379.87,238.04h-5.14c-.42.03-.84.05-1.04.76,0-.02-.29.86-.29.86-.13.54.44.78,1,1l.06.03c.4.16.85.35,1.14.65.28.28.56.55.29,1.76l-5.81,29.98-.02.12v.09s-.03.09-.03.09v.09c-.13.67.31,1.3.98,1.42.2.04.41.02.61-.05l.19-.06,6.21-2.06s.9-.22,1.24-.66c.19-.24.15-.56.15-.56l-.2-1.1c-.09-.59-.67-.48-1.07-.4l-1.74.38c-.37.08-.73-.16-.81-.53-.02-.09-.02-.18,0-.26l.24-1.26,5.48-28.55c.12-.65.07-1.08-.18-1.35-.31-.41-1.27-.37-1.27-.37h.02ZM191.36,271.88s.11.2.05.38h.03c-.04.14-.15.27-.29.35l-1,.63c-.44.31-2.74,1.8-4.97,1.8-1.28,0-2.29-.42-2.97-1.25s-1.04-2.04-1.04-3.61c0-.88.1-1.76.27-2.62l2.87-15.1c.03-.15-.07-.29-.22-.32-.02,0-.04,0-.06,0h-2.67c-.35,0-.63-.29-.62-.64,0-.04,0-.08.01-.11l.24-1.19c.07-.32.35-.55.68-.55h2.91c.13,0,.24-.09.27-.22l.17-.87h0s0-.03,0-.03l.64-3.4c.03-.16.12-.31.26-.42l2.69-2.09c.58-.43,1.45-.56,1.89-.29.2.11.31.32.31.55v.11s-.94,4.95-1.21,6.34c-.03.17.11.33.28.33h4.83c.41,0,.73.35.69.76l-.05.44c0,.1-.05.19-.12.25l-.86.82c-.15.15-.35.23-.56.23h-4.43c-.13,0-.24.09-.27.22-.47,2.47-3,15.54-3,15.54-.1.5-.16,1-.16,1.52,0,.68.12,1.17.37,1.48.24.28.6.42.97.39.96.01,1.9-.21,2.74-.66,0,0,.36-.19.55-.12.2.06.23.21.23.21l.52,1.13ZM184.68,242.05c.03-.1-.03-.21-.03-.21l-.29-.63s-.01-.08-.13-.12c-.12-.04-.3.07-.3.07-.46.25-.99.37-1.51.36-.1,0-.2,0-.29-.05-.09-.04-.17-.1-.24-.17-.14-.17-.21-.44-.21-.82,0-.28.03-.56.09-.84.09-.42,1.39-7.21,1.66-8.57.01-.07.08-.12.15-.12h2.44c.11,0,.23-.04.31-.12l.47-.45s.06-.09.06-.14l.03-.24c.02-.21-.14-.4-.35-.41,0,0-.02,0-.02,0h-2.66c-.08,0-.16-.06-.16-.15,0-.01,0-.02,0-.03l.67-3.49v-.06c0-.06-.02-.12-.04-.17-.03-.05-.07-.1-.12-.13-.24-.16-.73-.08-1.04.15l-1.49,1.15c-.07.06-.12.14-.14.23-.09.46-.37,1.92-.45,2.37-.01.07-.08.12-.15.12h-1.61c-.18,0-.34.13-.37.31l-.13.66c-.04.21.12.41.34.41h1.47c.1,0,.17.09.16.18-.24,1.26-1.58,8.33-1.58,8.33-.09.47-.15.96-.15,1.44,0,.86.2,1.54.57,1.99.37.46.93.69,1.64.69,1.23,0,2.5-.82,2.74-.99l.55-.35c.07-.05.13-.12.16-.2l-.02.02ZM165.24,275.06c-6.46,0-9.4-4.96-9.4-9.57h-.02c0-9.06,6.6-16.42,14.69-16.42,5.3,0,8.87,3.95,8.87,9.83,0,6.6-5.04,16.16-14.14,16.16M169.43,252.2c-2.96,0-8.47,4.21-8.47,12.26h0s0,0,0,0c0,3.74,1.49,7.48,4.8,7.48,5.91,0,8.48-8.86,8.48-13.38,0-1.49-.34-6.36-4.81-6.36M135.52,264.61c0,6.79,4.73,10.46,9.16,10.46,2.87,0,4.64-.76,6.05-1.37h.02s.13-.07.13-.07c1.11-.53,1.52-.95,1.64-1.68l.25-1.12c.03-.15.02-.3-.03-.44-.06-.14-.15-.26-.28-.34-.43-.27-1.19-.11-1.98.41-1.09.71-2.55,1.08-4.23,1.08-3.4,0-5.59-2.87-5.59-7.33,0-6.48,4.28-12.16,9.16-12.16,2.16,0,3.16.47,3.65,1.76l.13.42c.19.66.39,1.34.81,1.51.08.03.17.04.26.03.09-.01.18-.04.25-.09l.72-.44s.12-.07.2-.19c.05-.08.09-.17.11-.26l.69-3.26c.22-1.05-.19-1.69-1.24-1.97-1.1-.31-2.67-.5-4.31-.5-10.16,0-15.57,9.02-15.57,15.52h0ZM122.52,254.08c-4.08-4.74-5.81-8.24-5.81-11.72h.02c0-5.24,4.45-8.47,11.62-8.47,2.63,0,4.33.3,6.07,1.09,1.02.4,2.12.97,1.89,2.26l-.63,3.39-.11.64c-.06.29-.21.54-.44.72l-1.28,1.01s-.37.23-.64-.21l-.16-.29c-.2-.42-.39-1.06-.66-1.98,0,0-.25-.8-.25-.81-.62-2.58-3.21-2.97-4.7-2.97-2.69,0-5.58,1.88-5.58,4.69,0,2.99,2.06,5.51,4.69,8.71l2.2,2.74c4.1,5.35,4.53,7.36,4.53,10.69,0,4.64-4.02,11.48-12.64,11.48-4,0-5.82-.5-7.08-.98h-.02c-2.27-.86-2.56-.96-2.26-2.54l.92-5.28.05-.35v-.03c.08-.55.17-1.16.68-1.39,0,0,1.34-.48,1.36-.48.06-.02.14-.03.2-.02.07,0,.13.03.19.07.29.19.35.7.45,1.56h0c.1.87.23,1.95.66,3.03.47,2.05,2.56,3.43,5.19,3.43,5.05,0,6.62-5.61,6.62-7.66,0-3.71-2.75-7.66-5.05-10.33M154.36,229.54h2.96c.11,0,.21,0,.31.03.1.03.19.08.26.16.12.18.16.4.09.61l-1.87,9.59c-.1.55-.11.86-.03.95.04.03.14.05.29.03l.49-.11h.03c.42-.11.89-.23,1.03.21,0,0,.11.59.11.61.03.46-.38.62-.75.75l-.16.06-3.39,1.15h-.06c-.27.03-.53-.06-.73-.24-.17-.19-.24-.48-.17-.87l1.99-10.09c.12-.68.02-.77-.07-.87-.18-.16-.39-.27-.62-.34h0c-.3-.13-.69-.28-.6-.66l.13-.47c.09-.41.36-.49.77-.49M161.77,232.42c-.07.28-.1.57-.1.86,0,1.53,1.02,2.43,1.87,3.18l.02.02.27.24.16.14c.85.72,2,1.71,2,2.96,0,.11,0,.21-.02.32-.18,1.19-1.29,2.02-2.49,1.84-.19-.03-.38-.08-.55-.16-.41-.18-.76-.48-1-.86l-.85-1.37c-.03-.06-.08-.11-.13-.15-.11-.08-.25-.11-.38-.08-.07.02-.14.05-.19.1l-.81.56c-.23.18-.32.48-.22.76l.46,1.73.06.11c.42.35,1.59.95,3.4.95s4.84-.95,5.46-3.57c.52-2.13-.65-3.68-2.57-5.35l-.22-.19c-.94-.81-1.67-1.44-1.49-2.51.11-.64.9-1.17,1.76-1.17,1.06,0,1.55.39,1.7,1.33.02.14.09.27.2.37.11.09.24.15.39.14h.43c.39,0,.48-.33.59-.72l.2-.61.26-.78c.07-.16.07-.34-.02-.49-.07-.12-.16-.22-.27-.3-.11-.08-.23-.14-.37-.16-.81-.23-1.66-.35-2.51-.35-2.08,0-4.55,1.12-5.02,3.2h-.02ZM172.68,229.54h2.95c.1,0,.2,0,.3.03.1.03.19.08.26.16.12.18.16.4.09.61l-1.86,9.59c-.1.55-.11.86-.03.95.04.03.14.05.29.03l.49-.11h.03c.43-.11.9-.23,1.04.21,0,0,.11.59.11.61.04.46-.38.62-.75.75l-.17.06-3.38,1.15h-.06c-.27.03-.53-.06-.73-.24-.17-.19-.23-.48-.17-.87l2-10.09c.11-.68.01-.77-.08-.87-.19-.15-.4-.27-.63-.34-.31-.12-.7-.28-.6-.66l.13-.47c.1-.41.38-.49.79-.49M438.39,228.29h1.55l1.4,3.91,1.42-3.91h1.55v5.44h-1.01v-4.38l-1.51,4.39h-.87l-1.52-4.39v4.39h-1v-5.44ZM434.6,229.21h-1.78v-.91h4.65v.91h-1.79v4.53h-1.09v-4.53ZM309.59,226.28h1.57v56.28h-1.57v-56.28ZM354.61,275.05c-.25,0-.45-.2-.45-.44,0-.09.03-.18.08-.26l.75-1.12c.17-.26.44-.44.74-.52.19-.05.39-.1.58-.16l.06-.02c1.24-.45,1.98-1.73,1.75-3.03l-.02-.14-1-6.64h-14.81l-4.12,7.44c-.4.73-.14,1.65.6,2.05.01,0,.02.01.03.02l1.24.64c.2.1.28.34.18.53-.01.02-.02.04-.04.06l-.54.73s-.1.13-.17.22l-.22.28c-.19.24-.47.37-.78.37h-9.23c-.26,0-.47-.21-.47-.46,0-.09.02-.17.07-.24l.77-1.26c.12-.19.3-.34.52-.4.29-.1.69-.22.9-.28.41-.1.81-.23,1.2-.38.41-.14.8-.35,1.14-.61.39-.3.74-.67,1.01-1.08.28-.39.61-.92,1-1.59l14.93-27.07.44-.8c.74-1.35.25-3.04-1.1-3.79-.15-.08-.31-.15-.47-.2-.5-.17-.99-.36-1.48-.55-.26-.1-.4-.39-.3-.66,0-.02.01-.04.02-.05l.53-1.03s.17-.46.49-.6.88-.16.88-.16h7.84c.47,0,.86.34.92.81,0,0,1.75,12.57,2.75,18.28l.7,3.96,2.1,11.95.08.51h0s.08.54.08.54c.14.88.76,1.6,1.61,1.88.43.14,1.36.45,2,.67.35.11.49.53.29.84l-.72,1.13c-.25.38-.67.62-1.13.62h-11.23l-.02-.02ZM356.55,259.47l-2.71-18.36-9.91,18.36h12.62ZM77.04,232.66h0,0ZM77.05,232.66c.24-.04.49-.07.76-.11.16-.02.32-.03.48-.04.06-1.19.39-5.2,3.56-8.27,1.02-.99,2.08-1.64,2.99-2.06.2-.09.29-.33.2-.53-.02-.04-.04-.07-.07-.1-.49-.55-1.05-1.04-1.67-1.45-.9-.59-1.91-1.01-2.96-1.23-.18-.03-.36.05-.45.2-.98,1.74-1.59,3.33-1.98,4.55-.38,1.2-1,3.2-1.05,5.89-.03,1.28.08,2.35.2,3.13M83.55,239.94c1.76-.28,5.9-.43,7.33,3.36,1.5,4.09-2.79,8.41-5.16,9.89-4.12,2.6-8.94,3.84-13.8,3.57-6-.72-8.35-3.45-8.74-6.09-.39-2.63.12-6.76,5.38-11.4,5.77-4.88,12.26-5.53,12.26-5.53,0,0,3.48-.58,6.71.53,3.64,1.25,3.13,3.01,3.13,3.01,0,0-.29,2-4.43,1.72-9.24-1.15-12.82,1.72-14.83,3.34l-.23.18c-1.96,1.56-3.55,4.66-2.83,6.75s2.68,3.63,7.8,3c4.15-.55,6.28-2.53,7.76-3.9l.31-.29c1.49-1.37,2.17-3.98,1.46-4.7h0c-.22-.23-.38-.4-.77-.51-.51-.14-1.67-.25-3.71.71,0,0-.02,0-.02,0,1.43,1.01,2.04,2.07,2.16,2.62.16.7.14,1.68-.81,1.99-.46.15-1.13.08-1.52-1.03-.34-1.08-.92-1.8-1.73-2.44-1.1.77-2.37,1.81-3.33,3.07-.3.4-.57.83-.8,1.28-.18.34-.28.53-.4.47-.02,0-.08-.06-.06-.32.16-1.6,1.38-4.06,2.78-5.65-.86-.4-1.7-.54-2.21-.62-.26-.04-.43-.07-.47-.11-.29-.27.96-.63,1.78-.67.72-.03,1.45.05,2.15.23,1.61-1.27,3.73-2.31,4.82-2.46M55.7,256.98c0-4.77,1.68-7.13,2.63-8.24.17-.19.49-.04.44.21-.24,1.32-.65,4.02-.05,6.92,1.01,4.81,4.65,7.16,7.61,9.07,1.43.92,2.69,1.74,3.42,2.68,2.16,1.98,2.53,5.73,2.56,7.8,0,.29-.39.37-.5.1-.46-1.16-1.3-2.85-2.65-4.16-1.2-1.16-2.87-1.93-4.57-2.71-1.57-.72-3.16-1.46-4.43-2.52-2.65-2.22-4.46-4.38-4.46-9.14M80.04,275.02c.07.31.51.33.6.03.45-1.42,1.49-3.98,3.38-5.43,1.27-.96,3.01-1.92,4.95-2.99,2.23-1.23,4.71-2.59,7.02-4.27,1.9-1.39,5.42-6.38,4.2-12.67-.88-4.54-3.19-6.3-4.42-6.93-.16-.08-.34-.01-.42.14-.04.09-.04.19,0,.27.8,1.75,2.51,6.4.73,11.3-1.32,3.64-4,5.11-6.94,6.74-2.09,1.15-4.32,2.38-6.29,4.5-3.47,3.74-3.19,7.53-2.79,9.32M73.25,259.46c.03-.19.2-.34.39-.35.68-.02,1.38-.06,2.11-.11,1-.09,2.1-.38,3.1-.64.55-.15,1.07-.29,1.53-.37.22-.04.43.1.47.32.01.07,0,.14-.01.21l-.2.58c-.73,2.09-1.46,4.19-1.73,5.5-.88,4.3-1.92,9.73.34,15.3.34.84.69,1.54,1,2.08.11.19.04.44-.15.55-.06.04-.13.05-.21.05h-1.65c-.13,0-.24-.05-.32-.15-.83-1.08-1.57-2.23-2.2-3.44-1.94-3.72-2.35-7.01-2.66-9.69-.38-3.27-.32-6.58.17-9.83h0ZM258.54,270.57l.2,1.1v-.02s.05.32-.14.56c-.34.45-1.24.67-1.24.67l-6.21,2.06-.19.06c-.64.22-1.34-.13-1.55-.77-.07-.2-.08-.4-.05-.61.03-.15.05-.28.06-.38l2.52-13.01c.74-3.75.7-5.78-.13-6.79-.48-.56-1.25-.83-2.35-.83-1.49,0-3.29,1.05-4.92,2.89-3.04,3.42-3.67,6.85-4.39,10.82l-1.45,7.64c-.06.31-.33.53-.64.53h-3.48c-.36,0-.65-.28-.66-.64,0-.04,0-.09.01-.13l3.68-18.98c.2-1.33-.04-1.56-.23-1.76-.3-.32-.76-.51-1.18-.68h-.02c-.55-.23-1.13-.46-1-1.01l.29-.86c.14-.59.42-.76,1.2-.76h5.41c.29,0,.66,0,.87.27.12.16.18.36.17.56,0,.13-.01.27-.04.4-.04.2-.52,2.6-.7,3.54,2.3-3.14,6.24-5.27,10.08-5.37,1.94,0,3.29.51,4.14,1.54,1.12,1.36,1.34,3.69.67,7.11l-2.09,10.77-.24,1.26c-.07.37.17.73.54.79.09.02.18.02.26,0l1.74-.38c.4-.08.98-.19,1.07.4M281.99,268.5l5.49-28.55c.12-.65.07-1.08-.18-1.35-.31-.41-1.27-.37-1.27-.37h-5.14c-.42.03-.84.05-1.04.76,0-.02-.29.86-.29.86-.13.54.44.78,1,1l.06.03c.4.16.85.35,1.14.65.28.28.56.55.29,1.76l-1.29,6.67h0s0-.01,0-.01h0c-.82-.5-2.6-.85-4.54-.85-8.76,0-15.33,8.7-15.33,16.5,0,6.51,3.76,9.48,7.26,9.48,3.07,0,6.76-2.81,8.87-5.8l-.77,3.98-.04.21-.03.18c-.12.66.32,1.3.98,1.42.21.04.42.02.62-.05l.19-.06,6.21-2.06s.9-.22,1.24-.67c.19-.24.15-.56.15-.56l-.2-1.1c-.09-.59-.67-.48-1.07-.4l-1.74.38c-.37.08-.73-.15-.8-.52-.02-.09-.02-.18,0-.27l.24-1.26v.02ZM269.27,271.7c-3.1,0-3.25-4.52-3.25-5.43,0-6.92,4.27-14.64,9.99-14.64,1.09,0,3.64.37,3.64,3.77,0,7.4-6.38,16.3-10.38,16.3h0ZM399.27,249.1c1.96,0,3.58.76,4.87,2.28v-.02c1.3,1.52,1.95,3.65,1.95,6.39,0,2.18-.42,4.35-1.24,6.37-.81,2.02-1.96,3.89-3.41,5.52-1.43,1.6-3.14,2.93-5.05,3.92-1.92.99-4.05,1.51-6.21,1.49-1.1,0-2.19-.13-3.26-.37-.91-.18-1.79-.49-2.61-.91-.2-.1-.39-.2-.58-.3-1.17-.64-1.79-1.97-1.53-3.28l.12-.63,3.56-18.33,1.57-8.14c.27-1.2,0-1.48-.28-1.76-.29-.3-.74-.49-1.15-.65l-.06-.02c-.56-.22-1.13-.46-1-1,0,0,.29-.88.29-.86.2-.71.62-.73,1.04-.75h.15s4.57,0,4.57,0c0,0,.96-.03,1.27.37.25.28.3.7.18,1.35l-2.2,11.47-.43,2.22.1.1c.71-.81,1.5-1.51,2.39-2.11.8-.55,1.66-1.01,2.56-1.38.78-.33,1.58-.58,2.41-.74.65-.13,1.31-.21,1.98-.22M394.51,271.72c1.34-.79,2.5-1.85,3.43-3.09h0c2.18-2.93,3.36-6.47,3.36-10.12,0-1.43-.18-2.56-.55-3.42-.28-.74-.71-1.42-1.26-1.99-.41-.41-.91-.72-1.47-.89-.36-.1-.72-.17-1.09-.2-1.13-.02-2.24.31-3.18.94-.96.66-1.8,1.47-2.48,2.4-.75,1.01-1.37,2.11-1.86,3.26-.5,1.16-.93,2.35-1.29,3.57-.32,1.07-.57,2.17-.74,3.28-.13.78-.21,1.56-.23,2.35v1.21c0,.52.1,1.04.3,1.52.22.52.57.99,1.02,1.34.49.4,1.21.65,2.17.75,1.36.12,2.72-.2,3.89-.92" style="fill: #fff;"/>
</svg>