<?xml version="1.0" encoding="UTF-8"?>
<svg id="Layer_1" xmlns="http://www.w3.org/2000/svg" xmlns:xlink="http://www.w3.org/1999/xlink" viewBox="0 0 500 500">
  <defs>
    <clipPath id="clippath">
      <ellipse cx="250" cy="250" rx="204.39" ry="124.91" style="fill: none;"/>
    </clipPath>
    <clipPath id="clippath-1">
      <ellipse cx="250" cy="250" rx="204.39" ry="124.91" style="fill: none;"/>
    </clipPath>
    <clipPath id="clippath-2">
      <ellipse cx="250" cy="250" rx="204.39" ry="124.91" style="fill: none;"/>
    </clipPath>
  </defs>
  <circle cx="250" cy="250" r="242.58" style="fill: #0f0f17; stroke: #000; stroke-miterlimit: 10; stroke-width: 5px;"/>
  <g>
    <ellipse cx="250" cy="250" rx="204.39" ry="124.91" style="fill: #df1883;"/>
    <path d="M454.15,263.6c-17.68,67.84-92.38,111.31-204.15,111.31s-185.76-44.92-200.57-111.31h404.72Z" style="fill: #ffce04;"/>
    <path d="M250,375.65c-108.72,0-185.88-42.89-201.31-111.88l-.17-.87h406.54l-.25.91c-8.82,33.85-32.02,62.05-67.13,81.53-35.69,19.84-83.32,30.32-137.68,30.32h0ZM50.3,264.31c15.68,67.84,92.08,109.93,199.65,109.93,54.16,0,101.48-10.44,137.01-30.16,34.44-19.14,57.32-46.67,66.21-79.77,0,0-402.88,0-402.88,0Z" style="fill: #010101;"/>
    <path d="M179.58,237.48c-20.01,0-36.23-16.22-36.23-36.23s16.22-36.23,36.23-36.23,36.23,16.22,36.23,36.23v.17c-.04,19.97-16.26,36.1-36.23,36.06h0ZM179.58,180.67c-11.19.17-20.14,9.4-19.97,20.59v.17c0,11.02,8.94,19.97,19.97,19.97s19.97-8.94,19.97-19.97c.25-11.23-8.7-20.5-19.93-20.76,0,0-.04,0-.04,0Z" style="fill: #fff;"/>
    <path d="M254.45,251.55c-20.5,0-32.32-12.69-32.32-29.45v-47.43h13.81v47.96c0,8.74,7.36,16.3,18.46,16.3s18.59-7.36,18.59-16.1v-48.23h13.48v47.45c.04,16.43-13.77,29.45-32.02,29.5h0Z" style="fill: #fff;"/>
    <path d="M244.97,274.62c9.11,0,17.76,3.78,23.96,10.48-.83.83-6.86,7.07-8.11,8.19-3.95-4.62-9.74-7.32-15.85-7.36-11.94-.25-21.84,9.23-22.09,21.18-.25,11.94,9.23,21.84,21.18,22.09,6.45.13,12.65-2.61,16.85-7.53l7.98,7.98c-12.27,13.35-33.02,14.26-46.41,2-13.35-12.27-14.26-33.02-2-46.41,6.28-6.82,15.18-10.69,24.49-10.61h0Z" style="fill: #010101;"/>
    <path d="M311.86,366.21c-22.34.04-40.47-18.06-40.51-40.39-.04-22.34,18.06-40.47,40.39-40.51,22.34-.04,40.47,18.06,40.51,40.39v.13c0,22.34-18.1,40.39-40.39,40.39h0ZM311.73,299c-14.47,0-25.91,11.9-25.91,26.83.46,14.39,12.44,25.66,26.83,25.25s25.66-12.44,25.25-26.83c-.46-14.09-12.06-25.34-26.17-25.25Z" style="fill: #010101;"/>
    <path d="M375.49,283.15v67.06c-2.59,0-13.81,2.66-15.72,2.66v-69.71h-24.87v-14.26h64.68v14.26h-24.09Z" style="fill: #010101;"/>
    <g style="clip-path: url(#clippath);">
      <path d="M310.02,179.33v57.07h-16.98v-91.25c3.95,3.78,64.47,53.95,69.38,57.85v-56.28h16.81v91.51c-5.16-4.33-64.34-54.65-69.21-58.81v-.08Z" style="fill: #fff;"/>
    </g>
    <g style="clip-path: url(#clippath-1);">
      <path d="M413.43,242.59c-16.81,0-27.61-12.65-27.61-28.08-.21-15.34,12.01-27.95,27.37-28.16h.46c7.7.08,15.02,3.29,20.26,8.9-1.08,1.08-8.15,7.62-9.19,8.7-2.74-3.37-6.82-5.33-11.14-5.37-8.78,0-15.22,7.15-15.22,16.38s6.66,16.38,15.09,16.38c6.94,0,12.31-3.65,13.73-10.19h-14.98v-9.44h28.61c.17.87.25,1.78.25,2.66.38,15.18-11.65,27.78-26.83,28.16h-.66l-.13.04h-.03Z" style="fill: #fff;"/>
    </g>
    <g style="clip-path: url(#clippath-2);">
      <path d="M167.02,371.33c-22.67,0-37.81-13.9-43.06-31.32,2.33-.62,15.13-3.86,17.59-4.5,3.63,10.97,13.9,18.38,25.46,18.3,14.64,0,24.09-9.57,24.7-21.01-3.99-1.08-61.44-19.29-66.68-20.84-.17-1.55-.46-4.16-.46-6.77,0-22.83,18.06-41.68,43.51-41.68,21.75,0,37.52,14.35,41.59,29.78-2.61.74-14.81,3.33-17.89,3.99-3.46-10.1-12.98-16.89-23.62-16.81-13.43,0-23.62,9.11-24.38,19.29,4.99,1.42,62.05,19.59,66.21,20.84.66,2.95.96,5.94.91,8.94,0,23.3-17.89,41.59-43.84,41.59l-.08.17.03.03Z" style="fill: #010101;"/>
    </g>
    <path d="M81.37,178.46c9.23,11.65,17.89,22.67,19.63,24.96,3.7-4.69,40.22-51.99,43.42-56.19h25.57c-3.5,4.24-56.36,72.37-59.23,76.04v36.18h-20.38v-36.18c-1.29-1.66-11.65-14.98-23.45-29.95l14.43-14.85h0Z" style="fill: #fff;"/>
    <rect x="44.98" y="259.4" width="410.75" height="4.29" style="fill: #010101;"/>
    <path d="M250,378.48c-55.24,0-107.23-13.18-146.41-37.1-39.68-24.3-61.56-56.73-61.56-91.38s21.88-67.13,61.56-91.38c39.18-23.92,91.17-37.1,146.41-37.1s107.23,13.18,146.41,37.1c39.68,24.25,61.56,56.73,61.56,91.38s-21.88,67.09-61.56,91.38c-39.18,23.92-91.17,37.1-146.41,37.1ZM250,128.66c-110.73.01-200.82,54.41-200.82,121.34s90.09,121.33,200.82,121.33,200.86-54.45,200.86-121.37-90.1-121.28-200.86-121.28h0Z" style="fill: #010101;"/>
  </g>
</svg>