<?xml version="1.0" encoding="UTF-8"?>
<svg id="Layer_1" data-name="Layer 1" xmlns="http://www.w3.org/2000/svg" xmlns:xlink="http://www.w3.org/1999/xlink" viewBox="0 0 24 24">
  <defs>
    <linearGradient id="linear-gradient" x1="2" y1="11.54" x2="22" y2="11.54" gradientUnits="userSpaceOnUse">
      <stop offset="0" stop-color="#fff"/>
      <stop offset="1" stop-color="#feea7f"/>
    </linearGradient>
  </defs>
  <path d="M11.52,2.3c.13-.26.45-.37.71-.24.1.05.19.14.24.24l2.31,4.68c.31.63.91,1.06,1.59,1.16l5.17.76c.29.04.49.31.45.6-.02.12-.07.22-.15.3l-3.74,3.64c-.5.49-.73,1.19-.61,1.88l.88,5.14c.05.29-.14.56-.43.61-.12.02-.24,0-.34-.05l-4.62-2.43c-.62-.32-1.36-.32-1.97,0l-4.62,2.43c-.26.14-.58.04-.72-.22-.06-.1-.07-.22-.05-.34l.88-5.14c.12-.69-.11-1.39-.61-1.88l-3.74-3.64c-.21-.2-.22-.54-.01-.75.08-.08.19-.14.31-.16l5.16-.76c.69-.1,1.29-.53,1.6-1.16l2.31-4.68Z" style="fill: url(#linear-gradient); stroke-miterlimit: 10;"/>
</svg>