<?xml version="1.0" encoding="UTF-8"?>
<svg id="Layer_1" data-name="Layer 1" xmlns="http://www.w3.org/2000/svg" xmlns:xlink="http://www.w3.org/1999/xlink" viewBox="0 0 1000 1000">
  <defs>
    <radialGradient id="radial-gradient" cx="303.23" cy="502.58" fx="-190.86" fy="502.58" r="494.09" gradientTransform="translate(0 1105.11) scale(1 -1.21)" gradientUnits="userSpaceOnUse">
      <stop offset="0" stop-color="#000" stop-opacity="0"/>
      <stop offset=".87" stop-color="#000"/>
    </radialGradient>
    <radialGradient id="radial-gradient-2" cx="500" cy="500" fx="500" fy="500" r="500.5" gradientTransform="translate(0 1000) scale(1 -1)" gradientUnits="userSpaceOnUse">
      <stop offset="0" stop-color="#000" stop-opacity="0"/>
      <stop offset=".75" stop-color="#000"/>
    </radialGradient>
  </defs>
  <g>
    <line y1="980.39" x2="1000" y2="980.39" style="fill: none; stroke: #1a1819; stroke-miterlimit: 10;"/>
    <line y1="960.78" x2="1000" y2="960.78" style="fill: none; stroke: #1a1819; stroke-miterlimit: 10;"/>
    <line y1="941.18" x2="1000" y2="941.18" style="fill: none; stroke: #1a1819; stroke-miterlimit: 10;"/>
    <line y1="921.57" x2="1000" y2="921.57" style="fill: none; stroke: #1a1819; stroke-miterlimit: 10;"/>
    <line y1="901.96" x2="1000" y2="901.96" style="fill: none; stroke: #1a1819; stroke-miterlimit: 10;"/>
    <line y1="882.35" x2="1000" y2="882.35" style="fill: none; stroke: #1a1819; stroke-miterlimit: 10;"/>
    <line y1="862.75" x2="1000" y2="862.75" style="fill: none; stroke: #1a1819; stroke-miterlimit: 10;"/>
    <line y1="843.14" x2="1000" y2="843.14" style="fill: none; stroke: #1a1819; stroke-miterlimit: 10;"/>
    <line y1="823.53" x2="1000" y2="823.53" style="fill: none; stroke: #1a1819; stroke-miterlimit: 10;"/>
    <line y1="803.92" x2="1000" y2="803.92" style="fill: none; stroke: #1a1819; stroke-miterlimit: 10;"/>
    <line y1="784.31" x2="1000" y2="784.31" style="fill: none; stroke: #1a1819; stroke-miterlimit: 10;"/>
    <line y1="764.71" x2="1000" y2="764.71" style="fill: none; stroke: #1a1819; stroke-miterlimit: 10;"/>
    <line y1="745.1" x2="1000" y2="745.1" style="fill: none; stroke: #1a1819; stroke-miterlimit: 10;"/>
    <line y1="725.49" x2="1000" y2="725.49" style="fill: none; stroke: #1a1819; stroke-miterlimit: 10;"/>
    <line y1="705.88" x2="1000" y2="705.88" style="fill: none; stroke: #1a1819; stroke-miterlimit: 10;"/>
    <line y1="686.27" x2="1000" y2="686.27" style="fill: none; stroke: #1a1819; stroke-miterlimit: 10;"/>
    <line y1="666.67" x2="1000" y2="666.67" style="fill: none; stroke: #1a1819; stroke-miterlimit: 10;"/>
    <line y1="647.06" x2="1000" y2="647.06" style="fill: none; stroke: #1a1819; stroke-miterlimit: 10;"/>
    <line y1="627.45" x2="1000" y2="627.45" style="fill: none; stroke: #1a1819; stroke-miterlimit: 10;"/>
    <line y1="607.84" x2="1000" y2="607.84" style="fill: none; stroke: #1a1819; stroke-miterlimit: 10;"/>
    <line y1="588.24" x2="1000" y2="588.24" style="fill: none; stroke: #1a1819; stroke-miterlimit: 10;"/>
    <line y1="568.63" x2="1000" y2="568.63" style="fill: none; stroke: #1a1819; stroke-miterlimit: 10;"/>
    <line y1="549.02" x2="1000" y2="549.02" style="fill: none; stroke: #1a1819; stroke-miterlimit: 10;"/>
    <line y1="529.41" x2="1000" y2="529.41" style="fill: none; stroke: #1a1819; stroke-miterlimit: 10;"/>
    <line y1="509.8" x2="1000" y2="509.8" style="fill: none; stroke: #1a1819; stroke-miterlimit: 10;"/>
    <line y1="490.2" x2="1000" y2="490.2" style="fill: none; stroke: #1a1819; stroke-miterlimit: 10;"/>
    <line y1="470.59" x2="1000" y2="470.59" style="fill: none; stroke: #1a1819; stroke-miterlimit: 10;"/>
    <line y1="450.98" x2="1000" y2="450.98" style="fill: none; stroke: #1a1819; stroke-miterlimit: 10;"/>
    <line y1="431.37" x2="1000" y2="431.37" style="fill: none; stroke: #1a1819; stroke-miterlimit: 10;"/>
    <line y1="411.76" x2="1000" y2="411.76" style="fill: none; stroke: #1a1819; stroke-miterlimit: 10;"/>
    <line y1="392.16" x2="1000" y2="392.16" style="fill: none; stroke: #1a1819; stroke-miterlimit: 10;"/>
    <line y1="372.55" x2="1000" y2="372.55" style="fill: none; stroke: #1a1819; stroke-miterlimit: 10;"/>
    <line y1="352.94" x2="1000" y2="352.94" style="fill: none; stroke: #1a1819; stroke-miterlimit: 10;"/>
    <line y1="333.33" x2="1000" y2="333.33" style="fill: none; stroke: #1a1819; stroke-miterlimit: 10;"/>
    <line y1="313.73" x2="1000" y2="313.73" style="fill: none; stroke: #1a1819; stroke-miterlimit: 10;"/>
    <line y1="294.12" x2="1000" y2="294.12" style="fill: none; stroke: #1a1819; stroke-miterlimit: 10;"/>
    <line y1="274.51" x2="1000" y2="274.51" style="fill: none; stroke: #1a1819; stroke-miterlimit: 10;"/>
    <line y1="254.9" x2="1000" y2="254.9" style="fill: none; stroke: #1a1819; stroke-miterlimit: 10;"/>
    <line y1="235.29" x2="1000" y2="235.29" style="fill: none; stroke: #1a1819; stroke-miterlimit: 10;"/>
    <line y1="215.69" x2="1000" y2="215.69" style="fill: none; stroke: #1a1819; stroke-miterlimit: 10;"/>
    <line y1="196.08" x2="1000" y2="196.08" style="fill: none; stroke: #1a1819; stroke-miterlimit: 10;"/>
    <line y1="176.47" x2="1000" y2="176.47" style="fill: none; stroke: #1a1819; stroke-miterlimit: 10;"/>
    <line y1="156.86" x2="1000" y2="156.86" style="fill: none; stroke: #1a1819; stroke-miterlimit: 10;"/>
    <line y1="137.25" x2="1000" y2="137.25" style="fill: none; stroke: #1a1819; stroke-miterlimit: 10;"/>
    <line y1="117.65" x2="1000" y2="117.65" style="fill: none; stroke: #1a1819; stroke-miterlimit: 10;"/>
    <line y1="98.04" x2="1000" y2="98.04" style="fill: none; stroke: #1a1819; stroke-miterlimit: 10;"/>
    <line y1="78.43" x2="1000" y2="78.43" style="fill: none; stroke: #1a1819; stroke-miterlimit: 10;"/>
    <line y1="58.82" x2="1000" y2="58.82" style="fill: none; stroke: #1a1819; stroke-miterlimit: 10;"/>
    <line y1="39.22" x2="1000" y2="39.22" style="fill: none; stroke: #1a1819; stroke-miterlimit: 10;"/>
    <line y1="19.61" x2="1000" y2="19.61" style="fill: none; stroke: #1a1819; stroke-miterlimit: 10;"/>
    <line x1="980.39" x2="980.39" y2="1000" style="fill: none; stroke: #1a1819; stroke-miterlimit: 10;"/>
    <line x1="960.78" x2="960.78" y2="1000" style="fill: none; stroke: #1a1819; stroke-miterlimit: 10;"/>
    <line x1="941.18" x2="941.18" y2="1000" style="fill: none; stroke: #1a1819; stroke-miterlimit: 10;"/>
    <line x1="921.57" x2="921.57" y2="1000" style="fill: none; stroke: #1a1819; stroke-miterlimit: 10;"/>
    <line x1="901.96" x2="901.96" y2="1000" style="fill: none; stroke: #1a1819; stroke-miterlimit: 10;"/>
    <line x1="882.35" x2="882.35" y2="1000" style="fill: none; stroke: #1a1819; stroke-miterlimit: 10;"/>
    <line x1="862.75" x2="862.75" y2="1000" style="fill: none; stroke: #1a1819; stroke-miterlimit: 10;"/>
    <line x1="843.14" x2="843.14" y2="1000" style="fill: none; stroke: #1a1819; stroke-miterlimit: 10;"/>
    <line x1="823.53" x2="823.53" y2="1000" style="fill: none; stroke: #1a1819; stroke-miterlimit: 10;"/>
    <line x1="803.92" x2="803.92" y2="1000" style="fill: none; stroke: #1a1819; stroke-miterlimit: 10;"/>
    <line x1="784.31" x2="784.31" y2="1000" style="fill: none; stroke: #1a1819; stroke-miterlimit: 10;"/>
    <line x1="764.71" x2="764.71" y2="1000" style="fill: none; stroke: #1a1819; stroke-miterlimit: 10;"/>
    <line x1="745.1" x2="745.1" y2="1000" style="fill: none; stroke: #1a1819; stroke-miterlimit: 10;"/>
    <line x1="725.49" x2="725.49" y2="1000" style="fill: none; stroke: #1a1819; stroke-miterlimit: 10;"/>
    <line x1="705.88" x2="705.88" y2="1000" style="fill: none; stroke: #1a1819; stroke-miterlimit: 10;"/>
    <line x1="686.27" x2="686.27" y2="1000" style="fill: none; stroke: #1a1819; stroke-miterlimit: 10;"/>
    <line x1="666.67" x2="666.67" y2="1000" style="fill: none; stroke: #1a1819; stroke-miterlimit: 10;"/>
    <line x1="647.06" x2="647.06" y2="1000" style="fill: none; stroke: #1a1819; stroke-miterlimit: 10;"/>
    <line x1="627.45" x2="627.45" y2="1000" style="fill: none; stroke: #1a1819; stroke-miterlimit: 10;"/>
    <line x1="607.84" x2="607.84" y2="1000" style="fill: none; stroke: #1a1819; stroke-miterlimit: 10;"/>
    <line x1="588.24" x2="588.24" y2="1000" style="fill: none; stroke: #1a1819; stroke-miterlimit: 10;"/>
    <line x1="568.63" x2="568.63" y2="1000" style="fill: none; stroke: #1a1819; stroke-miterlimit: 10;"/>
    <line x1="549.02" x2="549.02" y2="1000" style="fill: none; stroke: #1a1819; stroke-miterlimit: 10;"/>
    <line x1="529.41" x2="529.41" y2="1000" style="fill: none; stroke: #1a1819; stroke-miterlimit: 10;"/>
    <line x1="509.8" x2="509.8" y2="1000" style="fill: none; stroke: #1a1819; stroke-miterlimit: 10;"/>
    <line x1="490.2" x2="490.2" y2="1000" style="fill: none; stroke: #1a1819; stroke-miterlimit: 10;"/>
    <line x1="470.59" x2="470.59" y2="1000" style="fill: none; stroke: #1a1819; stroke-miterlimit: 10;"/>
    <line x1="450.98" x2="450.98" y2="1000" style="fill: none; stroke: #1a1819; stroke-miterlimit: 10;"/>
    <line x1="431.37" x2="431.37" y2="1000" style="fill: none; stroke: #1a1819; stroke-miterlimit: 10;"/>
    <line x1="411.76" x2="411.76" y2="1000" style="fill: none; stroke: #1a1819; stroke-miterlimit: 10;"/>
    <line x1="392.16" x2="392.16" y2="1000" style="fill: none; stroke: #1a1819; stroke-miterlimit: 10;"/>
    <line x1="372.55" x2="372.55" y2="1000" style="fill: none; stroke: #1a1819; stroke-miterlimit: 10;"/>
    <line x1="352.94" x2="352.94" y2="1000" style="fill: none; stroke: #1a1819; stroke-miterlimit: 10;"/>
    <line x1="333.33" x2="333.33" y2="1000" style="fill: none; stroke: #1a1819; stroke-miterlimit: 10;"/>
    <line x1="313.73" x2="313.73" y2="1000" style="fill: none; stroke: #1a1819; stroke-miterlimit: 10;"/>
    <line x1="294.12" x2="294.12" y2="1000" style="fill: none; stroke: #1a1819; stroke-miterlimit: 10;"/>
    <line x1="274.51" x2="274.51" y2="1000" style="fill: none; stroke: #1a1819; stroke-miterlimit: 10;"/>
    <line x1="254.9" x2="254.9" y2="1000" style="fill: none; stroke: #1a1819; stroke-miterlimit: 10;"/>
    <line x1="235.29" x2="235.29" y2="1000" style="fill: none; stroke: #1a1819; stroke-miterlimit: 10;"/>
    <line x1="215.69" x2="215.69" y2="1000" style="fill: none; stroke: #1a1819; stroke-miterlimit: 10;"/>
    <line x1="196.08" x2="196.08" y2="1000" style="fill: none; stroke: #1a1819; stroke-miterlimit: 10;"/>
    <line x1="176.47" x2="176.47" y2="1000" style="fill: none; stroke: #1a1819; stroke-miterlimit: 10;"/>
    <line x1="156.86" x2="156.86" y2="1000" style="fill: none; stroke: #1a1819; stroke-miterlimit: 10;"/>
    <line x1="137.25" x2="137.25" y2="1000" style="fill: none; stroke: #1a1819; stroke-miterlimit: 10;"/>
    <line x1="117.65" x2="117.65" y2="1000" style="fill: none; stroke: #1a1819; stroke-miterlimit: 10;"/>
    <line x1="98.04" x2="98.04" y2="1000" style="fill: none; stroke: #1a1819; stroke-miterlimit: 10;"/>
    <line x1="78.43" x2="78.43" y2="1000" style="fill: none; stroke: #1a1819; stroke-miterlimit: 10;"/>
    <line x1="58.82" x2="58.82" y2="1000" style="fill: none; stroke: #1a1819; stroke-miterlimit: 10;"/>
    <line x1="39.22" x2="39.22" y2="1000" style="fill: none; stroke: #1a1819; stroke-miterlimit: 10;"/>
    <line x1="19.61" x2="19.61" y2="1000" style="fill: none; stroke: #1a1819; stroke-miterlimit: 10;"/>
  </g>
  <rect width="1000" height="1000" style="fill: url(#radial-gradient); stroke: url(#radial-gradient-2); stroke-miterlimit: 10;"/>
</svg>