<?xml version="1.0" encoding="UTF-8"?>
<svg id="Layer_1" xmlns="http://www.w3.org/2000/svg" viewBox="0 0 450.25 76.68">
  <defs>
    <style>
      .cls-1 {
        fill: #000;
      }

    </style>
  </defs>
  <text/>
  <path class="cls-2" d="M32.71,10.5c-.18,6.73-5.58,12.14-12.28,12.35,6.7.18,12.1,5.62,12.28,12.33.16-6.71,5.56-12.14,12.26-12.33-6.7-.21-12.1-5.62-12.26-12.35h0Z"/>
  <g>
    <path class="cls-1" d="M0,64.18V28.58h8.4v28.4h14.9v7.2H0Z"/>
    <path class="cls-1" d="M36.45,64.18h-7.5v-25.6h7.5v25.6Z"/>
    <path class="cls-1" d="M84.95,48.08v16.1h-7.5v-14.6c0-3.05-1.9-5.3-4.75-5.4-2.9,0-4.85,2.25-4.85,5.4v14.6h-7.5v-14.6c0-3.25-1.8-5.4-4.6-5.4s-4.7,2.15-4.7,5.4v14.6h-7.5v-25.6h7.45v4.85c1.45-3.55,4.25-5.85,7.7-5.85,4.05,0,7.3,2.65,8.4,6.5,1.55-3.9,4.85-6.5,8.75-6.5,5.25,0,9.1,4.4,9.1,10.5Z"/>
    <path class="cls-1" d="M116.75,56.53c-1.25,5-6.65,8.65-12.9,8.65-8.25,0-14.05-5.75-14.05-14s5.85-13.6,14.1-13.6,13.8,5.6,13.8,13.7c0,.65,0,1.7-.1,2.25l-20.05-.05c.65,3.6,3.1,5.95,6.5,5.95,2.8,0,5.15-1.6,5.95-3.85l6.75.95ZM110.1,48.98c-.45-3.25-2.95-5.65-6.35-5.65s-5.6,2.25-6.25,5.65h12.6Z"/>
    <path class="cls-1" d="M130.5,64.18h-7.5V27.08h7.5v37.1Z"/>
    <path class="cls-1" d="M141.3,26.73c2.55,0,4.35,1.75,4.35,4.2s-1.8,4.25-4.35,4.25-4.35-1.75-4.35-4.25,1.8-4.2,4.35-4.2ZM145.05,64.18h-7.5v-25.6h7.5v25.6Z"/>
    <path class="cls-1" d="M152,66.48l6.7-.75c.65,2.9,3.35,5,6.4,5,3.8,0,6.5-2.6,6.5-7.05v-4.4c-1.9,3.25-4.95,5.25-8.9,5.25-6.8,0-11.7-5.4-11.7-13.15s4.9-13.75,11.7-13.75c4,0,7.1,2.1,8.9,5.5v-4.55h7.5v25.3c0,7.95-5.6,12.8-13.7,12.8-7,0-12.65-4.3-13.4-10.2ZM165.2,44.18c-3.9,0-6.7,3.05-6.7,7.2s2.8,7,6.7,7,6.7-2.95,6.7-7-2.8-7.2-6.7-7.2Z"/>
    <path class="cls-1" d="M210.7,64.18h-7.5v-14.7c0-3.1-1.8-5.25-4.8-5.3-2.9,0-5.3,2.35-5.3,5.6v14.4h-7.5V27.08h7.5v16.45c1.5-3.65,4.7-5.95,8.3-5.95,5.55,0,9.3,4.35,9.3,10.35v16.25Z"/>
    <path class="cls-1" d="M229.6,55.13h1.7v4.6c0,3.3-2.5,5.45-6.1,5.45-4.25,0-7.05-2.45-7.05-6.35v-14.55h-3.6v-5.7h3.95l.85-6.45h6.3v6.45h5.8v5.7h-5.8v15.4c0,1.55.85,2.45,1.95,2.45,1.2,0,2-.9,2-2.4v-4.6Z"/>
    <path class="cls-1" d="M287.95,51.93c-1.2,7.85-8.6,13.5-17.7,13.5-11,0-19-8-19-19.05s8-19.05,19-19.05c9,0,16.4,5.8,17.7,13.85l-7.9.9c-1-4.4-5-7.55-9.6-7.55-6.35,0-10.8,4.9-10.8,11.85s4.5,11.85,10.8,11.85c4.5,0,8.55-3.1,9.65-7.35l7.85,1.05Z"/>
    <path class="cls-1" d="M297.95,26.73c2.55,0,4.35,1.75,4.35,4.2s-1.8,4.25-4.35,4.25-4.35-1.75-4.35-4.25,1.8-4.2,4.35-4.2ZM301.7,64.18h-7.5v-25.6h7.5v25.6Z"/>
    <path class="cls-1" d="M316.3,49.78v14.4h-7.5v-25.6h7.5v4.9c1.5-3.6,4.6-5.9,8.15-5.9,5.65,0,9.45,4.45,9.45,10.6v16h-7.5v-14.7c0-3.1-1.8-5.3-4.75-5.3s-5.35,2.35-5.35,5.6Z"/>
    <path class="cls-1" d="M365.7,56.53c-1.25,5-6.65,8.65-12.9,8.65-8.25,0-14.05-5.75-14.05-14s5.85-13.6,14.1-13.6,13.8,5.6,13.8,13.7c0,.65,0,1.7-.1,2.25l-20.05-.05c.65,3.6,3.1,5.95,6.5,5.95,2.8,0,5.15-1.6,5.95-3.85l6.75.95ZM359.05,48.98c-.45-3.25-2.95-5.65-6.35-5.65s-5.6,2.25-6.25,5.65h12.6Z"/>
    <path class="cls-1" d="M413.4,48.08v16.1h-7.5v-14.6c0-3.05-1.9-5.3-4.75-5.4-2.9,0-4.85,2.25-4.85,5.4v14.6h-7.5v-14.6c0-3.25-1.8-5.4-4.6-5.4s-4.7,2.15-4.7,5.4v14.6h-7.5v-25.6h7.45v4.85c1.45-3.55,4.25-5.85,7.7-5.85,4.05,0,7.3,2.65,8.4,6.5,1.55-3.9,4.85-6.5,8.75-6.5,5.25,0,9.1,4.4,9.1,10.5Z"/>
    <path class="cls-1" d="M439.2,38.58h7.5l.05,22.6c0,.55.35.95.85.95.55,0,.9-.4.9-.95v-6h1.75v5.75c0,2.5-1.8,4.25-5.45,4.25-3.4,0-5.6-1.55-5.6-4.8l.05-1.85c-1.8,4.1-5.05,6.65-9.2,6.65-6.95,0-11.8-5.7-11.8-13.8s4.85-13.8,11.8-13.8c4.1,0,7.4,2.55,9.15,6.65v-5.65ZM439.15,51.38c0-4.15-2.8-7.2-6.7-7.2s-6.7,3.05-6.7,7.2,2.8,7.2,6.7,7.2,6.7-3.05,6.7-7.2Z"/>
  </g>
</svg>